<?xml version="1.0" encoding="UTF-8"?>
<svg id="Layer_2" data-name="Layer 2" xmlns="http://www.w3.org/2000/svg" xmlns:xlink="http://www.w3.org/1999/xlink" viewBox="0 0 1160.83 474.97">
  <defs>
    <style>
      .bst-cls-1 {
        stroke: #fbd63b;
      }

      .bst-cls-1, .bst-cls-2, .bst-cls-3, .bst-cls-4, .bst-cls-5, .bst-cls-6, .bst-cls-7 {
        stroke-miterlimit: 10;
      }

      .bst-cls-1, .bst-cls-2, .bst-cls-5, .bst-cls-6 {
        stroke-width: 2px;
      }

      .bst-cls-1, .bst-cls-8, .bst-cls-9, .bst-cls-5, .bst-cls-10 {
        fill: #fff;
      }

      .bst-cls-11 {
        letter-spacing: 0em;
      }

      .bst-cls-2, .bst-cls-3, .bst-cls-4, .bst-cls-5, .bst-cls-7 {
        stroke: #0042b3;
      }

      .bst-cls-2, .bst-cls-3, .bst-cls-6, .bst-cls-7, .bst-cls-12 {
        fill: none;
      }

      .bst-cls-3 {
        stroke-width: 3px;
      }

      .bst-cls-13 {
        font-size: 8.87px;
      }

      .bst-cls-13, .bst-cls-14, .bst-cls-4, .bst-cls-15 {
        fill: #0042b3;
      }

      .bst-cls-13, .bst-cls-15 {
        font-family: Impact, Impact;
      }

      .bst-cls-16 {
        letter-spacing: -.02em;
      }

      .bst-cls-17 {
        fill: #fbd63b;
      }

      .bst-cls-18 {
        letter-spacing: 0em;
      }

      .bst-cls-8 {
        font-family: Montserrat-Bold, Montserrat;
        font-size: 13.27px;
        font-weight: 700;
      }

      .bst-cls-19 {
        letter-spacing: -.02em;
      }

      .bst-cls-20 {
        letter-spacing: -.02em;
      }

      .bst-cls-21 {
        filter: url(#dropshadow3-2);
      }

      .bst-cls-22 {
        filter: url(#dropshadow-3);
      }

      .bst-cls-23 {
        filter: url(#dropshadow);
      }

      .bst-cls-24 {
        font-size: 17.82px;
      }

      .bst-cls-24, .bst-cls-25, .bst-cls-10 {
        font-family: Montserrat-Regular, Montserrat;
      }

      .bst-cls-26 {
        fill: #c6d6ee;
      }

      .bst-cls-27 {
        letter-spacing: 0em;
      }

      .bst-cls-28 {
        filter: url(#dropshadow-2);
      }

      .bst-cls-4 {
        stroke-width: .75px;
      }

      .bst-cls-29 {
        letter-spacing: 0em;
      }

      .bst-cls-30 {
        filter: url(#dropshadow3-4);
      }

      .bst-cls-15 {
        font-size: 11.02px;
      }

      .bst-cls-31 {
        letter-spacing: -.02em;
      }

      .bst-cls-6 {
        stroke: #fff;
      }

      .bst-cls-32 {
        letter-spacing: -.02em;
      }

      .bst-cls-33 {
        letter-spacing: 0em;
      }

      .bst-cls-34 {
        filter: url(#dropshadow3-3);
      }

      .bst-cls-7 {
        stroke-width: 4px;
      }

      .bst-cls-35 {
        letter-spacing: -.02em;
      }

      .bst-cls-25 {
        font-size: 17.63px;
      }

      .bst-cls-36 {
        letter-spacing: 0em;
      }

      .bst-cls-12 {
        stroke: #0042b3;
        stroke-linecap: square;
        stroke-width: 2.3px;
      }

      .bst-cls-37 {
        fill: #fbd63b;
      }

      .bst-cls-10 {
        font-size: 18.45px;
      }

      .bst-cls-38 {
        filter: url(#dropshadow3);
      }
    </style>
    <filter id="dropshadow">
      <feGaussianBlur in="SourceAlpha" stdDeviation="5"/>
      <feOffset dx="5" dy="5"/>
      <feComponentTransfer>
        <feFuncA slope="0.5" type="linear"/>
      </feComponentTransfer>
      <feMerge>
        <feMergeNode/>
        <feMergeNode in="SourceGraphic"/>
      </feMerge>
    </filter>
    <filter id="dropshadow3">
      <feGaussianBlur in="SourceAlpha" stdDeviation="1"/>
      <feOffset dx="2" dy="2"/>
      <feComponentTransfer>
        <feFuncA slope="0.3" type="linear"/>
      </feComponentTransfer>
      <feMerge>
        <feMergeNode/>
        <feMergeNode in="SourceGraphic"/>
      </feMerge>
    </filter>
    <filter id="dropshadow3-2" data-name="dropshadow3">
      <feGaussianBlur in="SourceAlpha" stdDeviation="1"/>
      <feOffset dx="2" dy="2"/>
      <feComponentTransfer>
        <feFuncA slope="0.3" type="linear"/>
      </feComponentTransfer>
      <feMerge>
        <feMergeNode/>
        <feMergeNode in="SourceGraphic"/>
      </feMerge>
    </filter>
    <filter id="dropshadow-2" data-name="dropshadow">
      <feGaussianBlur in="SourceAlpha" stdDeviation="5"/>
      <feOffset dx="5" dy="5"/>
      <feComponentTransfer>
        <feFuncA slope="0.5" type="linear"/>
      </feComponentTransfer>
      <feMerge>
        <feMergeNode/>
        <feMergeNode in="SourceGraphic"/>
      </feMerge>
    </filter>
    <filter id="dropshadow-3" data-name="dropshadow">
      <feGaussianBlur in="SourceAlpha" stdDeviation="5"/>
      <feOffset dx="5" dy="5"/>
      <feComponentTransfer>
        <feFuncA slope="0.5" type="linear"/>
      </feComponentTransfer>
      <feMerge>
        <feMergeNode/>
        <feMergeNode in="SourceGraphic"/>
      </feMerge>
    </filter>
    <filter id="dropshadow3-3" data-name="dropshadow3">
      <feGaussianBlur in="SourceAlpha" stdDeviation="1"/>
      <feOffset dx="2" dy="2"/>
      <feComponentTransfer>
        <feFuncA slope="0.3" type="linear"/>
      </feComponentTransfer>
      <feMerge>
        <feMergeNode/>
        <feMergeNode in="SourceGraphic"/>
      </feMerge>
    </filter>
    <filter id="dropshadow3-4" data-name="dropshadow3">
      <feGaussianBlur in="SourceAlpha" stdDeviation="1"/>
      <feOffset dx="2" dy="2"/>
      <feComponentTransfer>
        <feFuncA slope="0.3" type="linear"/>
      </feComponentTransfer>
      <feMerge>
        <feMergeNode/>
        <feMergeNode in="SourceGraphic"/>
      </feMerge>
    </filter>
  </defs>
  <g id="Withdraw_details" data-name="Withdraw details">
    <g id="_1" class="fragment fade" data-name="1">
      <g>
        <g class="bst-cls-23">
          <ellipse class="bst-cls-9" cx="111.35" cy="99.38" rx="80.92" ry="80.02"/>
        </g>
        <text class="bst-cls-24" transform="translate(66.78 146.08) scale(1.01 1)"><tspan class="bst-cls-16" x="0" y="0">C</tspan><tspan x="12.49" y="0">us</tspan><tspan class="bst-cls-32" x="33.21" y="0">t</tspan><tspan x="40.1" y="0">o</tspan><tspan class="bst-cls-11" x="51.28" y="0">m</tspan><tspan x="70.23" y="0">er</tspan></text>
        <path class="bst-cls-12" d="M83.84,116.82c0-10.16,13.75-10.16,20.63-16.94,3.44-3.39-6.88-3.39-6.88-20.33,0-11.29,4.58-16.94,13.75-16.94s13.75,5.65,13.75,16.94c0,16.94-10.31,16.94-6.88,20.33,6.88,6.78,20.63,6.78,20.63,16.94"/>
      </g>
      <g>
        <g>
          <path class="bst-cls-7" d="M110.51,235.87l108.51,88.18v148.15H2v-148.15l108.51-88.18ZM2,324.05l76.73,74.11L2,472.2l76.73-74.04c17.73-17.11,45.82-17.11,63.55,0l76.73,74.04-76.73-74.04,76.73-74.11"/>
          <path class="bst-cls-26" d="M79.07,395.76l-51.19-49.68-.31-81.39c0-7.83,6.35-14.17,14.17-14.17h134.28c7.83,0,14.17,6.35,14.17,14.17l.95,83.01-49.53,48.06-1.38-1.18c-17.75-15.14-44.01-14.63-61.16,1.18h0Z"/>
        </g>
        <g>
          <g class="bst-cls-38">
            <rect class="bst-cls-9" x="79.77" y="322.1" width="61.41" height="59.27" rx="9.91" ry="9.91"/>
            <rect class="bst-cls-2" x="79.77" y="322.1" width="61.41" height="59.27" rx="9.91" ry="9.91"/>
          </g>
          <g>
            <ellipse class="bst-cls-1" cx="110.13" cy="350.54" rx="17.64" ry="17.51"/>
            <path class="bst-cls-17" d="M110.68,356.41v1.47h-1.09v-1.47c-.93-.33-1.5-1.49-.75-2.71,1.36-1.19,2.94-.21,2.94,1.13,0,.72-.47,1.33-1.09,1.58h0ZM106.02,346.24c0-3.63,4.56-6.15,8.21-2.02v5.1s-4.1-.3-4.1-.3l-4.1.3v-3.07h0ZM115.87,349.43v-3.18c0-3.21-2.57-5.82-5.75-5.82s-5.75,2.6-5.75,5.82v3.18l-1.92.14v10.52l7.66.55,7.66-.55v-10.52l-1.92-.14h0Z"/>
          </g>
          <g id="coin">
            <g class="bst-cls-21">
              <ellipse class="bst-cls-37" cx="110.46" cy="285.19" rx="27.52" ry="27.42"/>
            </g>
            <ellipse class="bst-cls-6" cx="110.51" cy="285.24" rx="21.84" ry="21.76"/>
            <path class="bst-cls-9" d="M117.88,279.78h-6.5v-1.07c0-1.14-.08-1.89-.23-2.24s-.47-.53-.96-.53c-.4,0-.69.15-.89.46-.2.3-.3.76-.3,1.37,0,1.01.2,1.72.61,2.13.4.41,1.56,1.2,3.51,2.37,1.65.99,2.78,1.75,3.38,2.28.6.53,1.11,1.28,1.52,2.24s.62,2.17.62,3.61c0,2.31-.56,4.12-1.67,5.43-1.12,1.31-2.79,2.13-5.02,2.44v2.44h-2.99v-2.52c-1.74-.17-3.25-.84-4.55-2-1.3-1.16-1.95-3.18-1.95-6.06v-1.27h6.5v1.59c0,1.74.07,2.82.2,3.24.13.42.46.63.97.63.44,0,.77-.15.98-.44s.32-.73.32-1.31c0-1.45-.1-2.49-.31-3.12-.2-.62-.9-1.31-2.09-2.04-1.98-1.24-3.33-2.15-4.04-2.73s-1.33-1.4-1.85-2.46-.78-2.25-.78-3.59c0-1.93.55-3.45,1.65-4.55,1.1-1.1,2.75-1.78,4.94-2.04v-2.07h2.99v2.07c2,.26,3.5.93,4.5,2.01,1,1.08,1.5,2.58,1.5,4.49,0,.27-.02.67-.06,1.22Z"/>
          </g>
        </g>
        <g>
          <ellipse class="bst-cls-5" cx="108.38" cy="430.84" rx="27.87" ry="28.35"/>
          <path class="bst-cls-14" d="M109,448.51v1.7h-1.23v-1.7c-1.04-.38-1.68-1.73-.84-3.14,1.53-1.38,3.3-.24,3.3,1.31,0,.84-.52,1.54-1.23,1.83h0ZM103.77,436.71c0-4.21,5.13-7.14,9.23-2.35v5.92s-4.61-.35-4.61-.35l-4.61.35v-3.57h0ZM114.84,440.41v-3.7c0-3.73-2.89-6.75-6.46-6.75s-6.46,3.02-6.46,6.75v3.7l-2.15.16v12.22l8.61.64,8.61-.64v-12.22l-2.15-.16h0Z"/>
          <path class="bst-cls-14" d="M114.07,412.95h-4.56v-.76c0-.81-.05-1.34-.16-1.59-.11-.25-.33-.38-.68-.38-.28,0-.49.11-.63.32-.14.21-.21.54-.21.97,0,.72.14,1.22.43,1.51.28.29,1.1.85,2.46,1.68,1.16.7,1.95,1.24,2.37,1.62.42.38.78.9,1.07,1.59.29.69.44,1.54.44,2.56,0,1.63-.39,2.92-1.18,3.85-.78.93-1.96,1.51-3.52,1.72v1.73h-2.1v-1.78c-1.22-.12-2.29-.59-3.2-1.41-.91-.82-1.37-2.25-1.37-4.3v-.9h4.56v1.12c0,1.23.05,2,.14,2.3.09.3.32.45.68.45.31,0,.54-.1.69-.31.15-.21.23-.52.23-.92,0-1.03-.07-1.77-.21-2.21s-.63-.92-1.47-1.45c-1.39-.88-2.34-1.52-2.84-1.93-.5-.41-.93-.99-1.3-1.74-.37-.75-.55-1.6-.55-2.54,0-1.37.39-2.44,1.16-3.22s1.93-1.26,3.47-1.44v-1.46h2.1v1.46c1.41.18,2.46.66,3.16,1.42.7.77,1.05,1.83,1.05,3.18,0,.19-.02.48-.05.86Z"/>
        </g>
      </g>
    </g>
    <g id="_2" class="fragment fade" data-name="2">
      <g>
        <g>
          <g class="bst-cls-28">
            <ellipse class="bst-cls-14" cx="605.21" cy="99.38" rx="80.9" ry="82.81"/>
          </g>
          <text class="bst-cls-10" transform="translate(561.31 153.85) scale(.98 1)"><tspan class="bst-cls-35" x="0" y="0">E</tspan><tspan class="bst-cls-31" x="12.06" y="0">x</tspan><tspan class="bst-cls-36" x="21.56" y="0">c</tspan><tspan class="bst-cls-33" x="31.8" y="0">ha</tspan><tspan class="bst-cls-29" x="55.18" y="0">n</tspan><tspan x="67.7" y="0">ge</tspan></text>
          <g>
            <path class="bst-cls-9" d="M575.08,92.58c.38.16.83.16,1.21-.03l12-5.83c.77-.39,1.09-1.38.72-2.2-.35-.79-1.23-1.15-1.98-.79l-8.4,4.09c4.01-12.83,15.18-21.4,28.04-21.4s25.26,9.63,28.65,23.41c.22.87,1.06,1.4,1.87,1.17.81-.23,1.31-1.13,1.09-2-3.75-15.21-16.75-25.85-31.62-25.85s-26.52,9.46-30.97,23.62l-3.53-9.44c-.26-.85-1.14-1.33-1.94-1.05-.8.28-1.24,1.22-.98,2.07.02.07.05.13.08.2l4.9,13.14c.15.41.46.76.86.92h0Z"/>
            <path class="bst-cls-9" d="M642.88,116.82s-.03-.07-.03-.1l-4.9-13.14c-.15-.41-.46-.76-.86-.92-.38-.16-.83-.15-1.21.03l-12,5.83c-.78.34-1.15,1.31-.83,2.15.32.84,1.23,1.23,2.01.89.03-.02.06-.03.09-.05l8.4-4.09c-4.04,12.83-15.23,21.4-28.07,21.4-13.47,0-25.26-9.63-28.65-23.41-.22-.87-1.06-1.4-1.87-1.17-.81.23-1.31,1.13-1.09,2,3.73,15.23,16.75,25.85,31.62,25.85s26.5-9.46,30.97-23.62l3.53,9.44c.29.85,1.17,1.3,1.97.99.8-.31,1.21-1.25.92-2.1h0Z"/>
          </g>
        </g>
        <g>
          <ellipse class="bst-cls-5" cx="684.95" cy="55.82" rx="30" ry="28.46"/>
          <path class="bst-cls-14" d="M692.03,65.83l2.59,2.62,2.59-2.62,2.59,2.62,3.19-4.03-3.19-4.03h-16.15c-1.44-2.66-4.19-4.43-7.38-4.43-4.63,0-8.37,3.79-8.37,8.46s3.75,8.46,8.37,8.46c3.19,0,5.94-1.77,7.38-4.43h2.59l1.6-1.61,1.6,1.61,2.59-2.62h0ZM672.69,66.84c-1.32,0-2.39-1.09-2.39-2.42s1.08-2.42,2.39-2.42,2.39,1.09,2.39,2.42-1.08,2.42-2.39,2.42h0Z"/>
          <path class="bst-cls-14" d="M691.08,38.58h-4.91v-.76c0-.81-.06-1.35-.17-1.6-.11-.25-.36-.38-.73-.38-.3,0-.53.11-.67.32-.15.22-.23.54-.23.97,0,.72.15,1.23.46,1.51.3.29,1.18.85,2.65,1.69,1.25.71,2.1,1.25,2.55,1.62.45.38.84.91,1.15,1.6.31.69.47,1.54.47,2.57,0,1.64-.42,2.93-1.26,3.86-.84.93-2.11,1.51-3.79,1.73v1.73h-2.26v-1.79c-1.31-.12-2.46-.59-3.44-1.42-.98-.82-1.47-2.26-1.47-4.31v-.9h4.91v1.13c0,1.24.05,2.01.15,2.31.1.3.35.45.74.45.33,0,.58-.11.74-.31s.24-.52.24-.93c0-1.03-.08-1.77-.23-2.22-.15-.44-.68-.93-1.58-1.45-1.5-.88-2.52-1.53-3.06-1.94s-1.01-1-1.4-1.75c-.39-.75-.59-1.6-.59-2.55,0-1.37.42-2.45,1.25-3.23.83-.78,2.08-1.27,3.74-1.45v-1.47h2.26v1.47c1.52.18,2.65.66,3.41,1.43s1.13,1.84,1.13,3.2c0,.19-.02.48-.05.87Z"/>
        </g>
        <g>
          <rect class="bst-cls-5" x="532.85" y="166.26" width="144.71" height="75.43" rx="13.85" ry="13.85"/>
          <path class="bst-cls-12" d="M624.01,226c0-8.26,10.91-8.26,16.37-13.77,2.73-2.75-5.46-2.75-5.46-16.52,0-9.18,3.64-13.77,10.91-13.77s10.91,4.59,10.91,13.77c0,13.77-8.19,13.77-5.46,16.52,5.46,5.51,16.37,5.51,16.37,13.77"/>
          <g>
            <path class="bst-cls-14" d="M554.59,204.44v6.08h-11.31v-6.08h11.31Z"/>
            <path class="bst-cls-14" d="M570.17,186.67v35.27h-8.61v-18.91c0-2.73-.06-4.37-.19-4.92-.13-.55-.48-.97-1.05-1.25-.58-.28-1.86-.42-3.85-.42h-.85v-4.11c4.16-.92,7.32-2.8,9.48-5.65h5.07Z"/>
            <path class="bst-cls-14" d="M593.82,198.6v11.76c0,2.67-.14,4.62-.43,5.84s-.87,2.36-1.77,3.42c-.9,1.06-1.97,1.82-3.24,2.29-1.26.46-2.68.7-4.24.7-2.06,0-3.77-.24-5.14-.73-1.36-.49-2.45-1.25-3.26-2.28-.81-1.03-1.38-2.12-1.73-3.26s-.51-2.95-.51-5.43v-12.31c0-3.24.27-5.66.82-7.28.55-1.61,1.63-2.9,3.26-3.88,1.63-.97,3.6-1.46,5.91-1.46,1.89,0,3.58.34,5.07,1.01,1.49.67,2.61,1.5,3.35,2.47.74.97,1.24,2.07,1.5,3.29.26,1.22.39,3.17.39,5.84ZM585.21,195.64c0-1.87-.09-3.05-.27-3.52-.18-.47-.59-.71-1.25-.71s-1.06.25-1.27.75-.31,1.66-.31,3.47v17.21c0,2.05.1,3.28.29,3.7.19.42.61.63,1.25.63s1.06-.25,1.26-.74c.2-.49.3-1.6.3-3.33v-17.47Z"/>
            <path class="bst-cls-14" d="M617.09,196.95h-8.61v-1.46c0-1.55-.1-2.57-.3-3.05s-.62-.72-1.28-.72c-.53,0-.92.21-1.18.62-.26.41-.39,1.04-.39,1.86,0,1.38.27,2.34.81,2.9.53.55,2.07,1.63,4.65,3.22,2.19,1.35,3.68,2.39,4.47,3.1.79.72,1.47,1.74,2.01,3.05.55,1.31.82,2.95.82,4.91,0,3.14-.74,5.6-2.22,7.38s-3.69,2.89-6.65,3.31v3.31h-3.96v-3.42c-2.3-.23-4.31-1.14-6.03-2.71-1.72-1.58-2.58-4.32-2.58-8.25v-1.72h8.61v2.16c0,2.37.09,3.84.27,4.41.18.57.61.86,1.29.86.58,0,1.02-.2,1.3-.6s.43-.99.43-1.78c0-1.97-.13-3.39-.4-4.24-.27-.85-1.19-1.77-2.77-2.78-2.63-1.68-4.42-2.92-5.36-3.71-.95-.79-1.76-1.91-2.45-3.34-.69-1.44-1.03-3.06-1.03-4.88,0-2.63.73-4.69,2.18-6.19,1.46-1.5,3.64-2.42,6.55-2.77v-2.81h3.96v2.81c2.66.35,4.65,1.26,5.97,2.73,1.32,1.47,1.98,3.51,1.98,6.11,0,.36-.03.92-.08,1.66Z"/>
          </g>
        </g>
      </g>
      <g>
        <g>
          <path class="bst-cls-7" d="M484.14,322.3h227.34v148.17h-227.34v-148.17ZM484.14,322.3l105.11,97.44c4.79,4.44,12.37,4.44,17.16,0l105.06-97.44M484.14,470.47l80.26-73.77M711.48,470.47l-80.55-73.47"/>
          <g>
            <g>
              <rect class="bst-cls-5" x="550.77" y="327.97" width="94.09" height="50.36" rx="5.58" ry="5.58"/>
              <path class="bst-cls-4" d="M597.81,378.39h-38.06c-6.98-.61-8.99-3.96-8.99-8.84v-32.68c0-6.87,4.02-8.84,8.99-8.84h38.06"/>
            </g>
            <g>
              <ellipse class="bst-cls-5" cx="573.41" cy="360.98" rx="14.24" ry="13.43"/>
              <path class="bst-cls-14" d="M576.77,365.71l1.23,1.24,1.23-1.24,1.23,1.24,1.51-1.9-1.51-1.9h-7.67c-.68-1.26-1.99-2.09-3.5-2.09-2.2,0-3.97,1.79-3.97,3.99s1.78,3.99,3.97,3.99c1.51,0,2.82-.84,3.5-2.09h1.23l.76-.76.76.76,1.23-1.24h0ZM567.59,366.18c-.62,0-1.14-.51-1.14-1.14s.51-1.14,1.14-1.14,1.14.51,1.14,1.14-.51,1.14-1.14,1.14h0Z"/>
              <text class="bst-cls-15" transform="translate(570.44 359.01) scale(1.07 1)"><tspan x="0" y="0">$</tspan></text>
            </g>
            <text class="bst-cls-8" transform="translate(564.5 341.13)"><tspan x="0" y="0">Sig</tspan></text>
          </g>
          <g>
            <path class="bst-cls-14" d="M741.57,250.12l-1.47-1.6,2.28-2.59c1.2-1.47,1.49-4.44-1.63-7.96-3.15-3.43-6.39-3.1-7.58-1.81l-34.45,35,10.99,11.97,27.25-31.04,1.39,1.52c.54.53.59,1.42.11,2.02l-20.78,22.62c-.9.95-.93,2.51-.06,3.49.87.98,2.3,1.01,3.21.06.02-.02.04-.04.06-.06l20.78-22.62c2.25-2.52,2.19-6.54-.12-9h0Z"/>
            <path class="bst-cls-14" d="M673.14,299.9c-.86.96-1.69,1.95-2.49,2.97l-9.82,12.07,8.66,9.42,11.09-10.7c.94-.87,1.85-1.77,2.73-2.71l22.96-24.07-11-11.98-22.12,24.99h0Z"/>
            <path class="bst-cls-14" d="M649.59,330.79c-.32.62-.2,1.4.29,1.88l-2.59,4.58c-.35.62-.17,1.43.4,1.81.19.12.4.19.62.19.23,0,.45-.07.64-.21l4.17-2.85c.43.52,1.13.65,1.7.31l10.77-8.81-7.84-8.53-8.16,11.62h0Z"/>
          </g>
        </g>
        <g>
          <ellipse class="bst-cls-5" cx="597.81" cy="431.42" rx="27.87" ry="28.35"/>
          <path class="bst-cls-14" d="M598.43,449.08v1.7h-1.23v-1.7c-1.04-.38-1.68-1.73-.84-3.14,1.53-1.38,3.3-.24,3.3,1.31,0,.84-.52,1.54-1.23,1.83h0ZM593.2,437.28c0-4.21,5.13-7.14,9.23-2.35v5.92s-4.61-.35-4.61-.35l-4.61.35v-3.57h0ZM604.27,440.98v-3.7c0-3.73-2.89-6.75-6.46-6.75s-6.46,3.02-6.46,6.75v3.7l-2.15.16v12.22l8.61.64,8.61-.64v-12.22l-2.15-.16h0Z"/>
          <path class="bst-cls-14" d="M603.5,413.52h-4.56v-.76c0-.81-.05-1.34-.16-1.59-.11-.25-.33-.38-.68-.38-.28,0-.49.11-.63.32-.14.21-.21.54-.21.97,0,.72.14,1.22.43,1.51.28.29,1.1.85,2.46,1.68,1.16.7,1.95,1.24,2.37,1.62.42.38.78.9,1.07,1.59.29.69.44,1.54.44,2.56,0,1.63-.39,2.92-1.18,3.85-.78.93-1.96,1.51-3.52,1.72v1.73h-2.1v-1.78c-1.22-.12-2.29-.59-3.2-1.41-.91-.82-1.37-2.25-1.37-4.3v-.9h4.56v1.12c0,1.23.05,2,.14,2.3.09.3.32.45.68.45.31,0,.54-.1.69-.31s.23-.52.23-.92c0-1.03-.07-1.77-.21-2.21-.14-.44-.63-.92-1.47-1.45-1.39-.88-2.34-1.52-2.84-1.93-.5-.41-.93-.99-1.3-1.74-.37-.75-.55-1.6-.55-2.54,0-1.37.39-2.44,1.16-3.22.77-.78,1.93-1.26,3.47-1.44v-1.46h2.1v1.46c1.41.18,2.46.66,3.16,1.42.7.77,1.05,1.83,1.05,3.18,0,.19-.01.48-.04.86Z"/>
        </g>
      </g>
      <g>
        <line class="bst-cls-3" x1="391.76" y1="385.94" x2="294.32" y2="387.04"/>
        <path class="bst-cls-14" d="M371.09,371.77c-.44.7-.22,1.63.48,2.07l19.5,12.11-19.22,12.55c-.69.45-.89,1.38-.44,2.08.45.69,1.39.88,2.08.44l21.19-13.84c.43-.28.69-.76.68-1.27s-.27-.99-.71-1.26l-21.5-13.35c-.25-.16-.53-.23-.81-.23-.5,0-.98.26-1.26.71Z"/>
      </g>
    </g>
    <g id="_3" class="fragment fade" data-name="3">
      <g>
        <g class="bst-cls-22">
          <ellipse class="bst-cls-9" cx="1049.13" cy="102.55" rx="81.77" ry="79.12"/>
        </g>
        <text class="bst-cls-25" transform="translate(1004.0975 148.7255) scale(1.0335 1)"><tspan class="bst-cls-20" x="0" y="0">C</tspan><tspan x="12.36" y="0">us</tspan><tspan class="bst-cls-19" x="32.84" y="0">t</tspan><tspan x="39.66" y="0">o</tspan><tspan class="bst-cls-18" x="50.71" y="0">m</tspan><tspan class="bst-cls-27" x="69.44" y="0">er</tspan></text>
        <path class="bst-cls-12" d="M1021.34,119.79c0-10.05,13.9-10.05,20.84-16.75,3.47-3.35-6.95-3.35-6.95-20.1,0-11.17,4.63-16.75,13.9-16.75s13.9,5.58,13.9,16.75c0,16.75-10.42,16.75-6.95,20.1,6.95,6.7,20.84,6.7,20.84,16.75"/>
      </g>
      <g>
        <path class="bst-cls-7" d="M1050.32,236.64l108.51,88.18v148.15h-217.02v-148.15l108.51-88.18ZM941.81,324.82l76.73,74.11-76.73,74.04,76.73-74.04c17.73-17.11,45.82-17.11,63.55,0l76.73,74.04-76.73-74.04,76.73-74.11"/>
        <path class="bst-cls-26" d="M1019.04,396.39l-51.19-49.68,2.25-180.08c0-7.83,6.35-14.17,14.17-14.17h134.28c7.83,0,14.17,6.35,14.17,14.17l-1.61,181.71-49.53,48.06-.87-.78c-17.64-15.79-44.43-15.45-61.66.78h0Z"/>
      </g>
      <g id="Coin">
        <g class="bst-cls-34">
          <rect class="bst-cls-9" x="998.52" y="226.85" width="105.08" height="141.42" rx="9.91" ry="9.91"/>
          <rect class="bst-cls-2" x="998.52" y="226.85" width="105.08" height="141.42" rx="9.91" ry="9.91"/>
        </g>
        <g>
          <g class="bst-cls-30">
            <ellipse class="bst-cls-37" cx="1049.28" cy="189.77" rx="25.02" ry="25.15"/>
          </g>
          <ellipse class="bst-cls-6" cx="1049.33" cy="189.82" rx="19.86" ry="19.96"/>
          <path class="bst-cls-9" d="M1056.03,184.81h-5.91v-.98c0-1.05-.07-1.73-.21-2.06s-.43-.49-.88-.49c-.36,0-.63.14-.81.42s-.27.7-.27,1.26c0,.93.19,1.58.56,1.95.36.37,1.42,1.1,3.19,2.17,1.5.91,2.52,1.61,3.07,2.09.55.49,1.01,1.17,1.38,2.06.38.89.56,1.99.56,3.31,0,2.12-.51,3.78-1.52,4.98-1.01,1.21-2.53,1.95-4.56,2.23v2.23h-2.72v-2.31c-1.58-.16-2.96-.77-4.14-1.83-1.18-1.06-1.77-2.92-1.77-5.56v-1.16h5.91v1.45c0,1.6.06,2.59.18,2.98s.42.58.88.58c.4,0,.7-.13.89-.4.2-.27.29-.67.29-1.2,0-1.33-.09-2.28-.28-2.86-.18-.57-.82-1.2-1.9-1.87-1.8-1.14-3.03-1.97-3.68-2.5-.65-.53-1.21-1.29-1.68-2.26s-.71-2.07-.71-3.29c0-1.77.5-3.16,1.5-4.17s2.5-1.63,4.5-1.87v-1.9h2.72v1.9c1.82.23,3.19.85,4.09,1.84.91.99,1.36,2.37,1.36,4.12,0,.25-.02.62-.06,1.12Z"/>
        </g>
        <g>
          <ellipse class="bst-cls-1" cx="1026.29" cy="253.87" rx="15.65" ry="15.53"/>
          <path class="bst-cls-17" d="M1031.18,254.81l1.67,1.74,1.67-1.74,1.67,1.74,2.06-2.68-2.06-2.68h-10.42c-.93-1.77-2.7-2.95-4.76-2.95-2.98,0-5.4,2.52-5.4,5.63s2.42,5.63,5.4,5.63c2.06,0,3.83-1.18,4.76-2.95h1.67l1.03-1.07,1.03,1.07,1.67-1.74h0ZM1018.71,255.48c-.85,0-1.54-.72-1.54-1.61s.69-1.61,1.54-1.61,1.54.72,1.54,1.61-.69,1.61-1.54,1.61h0Z"/>
        </g>
        <g>
          <ellipse class="bst-cls-1" cx="1071.98" cy="254.11" rx="16.04" ry="15.75"/>
          <path class="bst-cls-17" d="M1072.48,259.39v1.32h-1v-1.32c-.84-.29-1.36-1.34-.68-2.43,1.24-1.07,2.67-.19,2.67,1.01,0,.65-.42,1.2-1,1.42h0ZM1068.25,250.25c0-3.26,4.15-5.53,7.46-1.82v4.59s-3.73-.27-3.73-.27l-3.73.27v-2.76h0ZM1077.21,253.12v-2.86c0-2.89-2.34-5.23-5.23-5.23s-5.23,2.34-5.23,5.23v2.86l-1.74.12v9.47l6.97.5,6.97-.5v-9.47l-1.74-.12h0Z"/>
        </g>
        <g>
          <ellipse class="bst-cls-5" cx="1048.42" cy="345.36" rx="16.6" ry="16.09"/>
          <path class="bst-cls-14" d="M1048.78,355.39v.97h-.73v-.97c-.62-.21-1-.98-.5-1.78.91-.78,1.97-.14,1.97.74,0,.47-.31.88-.73,1.04h0ZM1045.67,348.69c0-2.39,3.05-4.05,5.49-1.33v3.36s-2.75-.2-2.75-.2l-2.75.2v-2.03h0ZM1052.26,350.79v-2.1c0-2.12-1.72-3.83-3.85-3.83s-3.85,1.71-3.85,3.83v2.1l-1.28.09v6.93l5.13.36,5.13-.36v-6.93l-1.28-.09h0Z"/>
          <path class="bst-cls-14" d="M1051.81,335.21h-2.72v-.43c0-.46-.03-.76-.09-.9s-.2-.21-.4-.21c-.17,0-.29.06-.37.18-.08.12-.12.31-.12.55,0,.41.08.69.26.86.17.16.65.48,1.47.95.69.4,1.16.71,1.41.92.25.21.46.51.64.9s.26.87.26,1.45c0,.93-.23,1.66-.7,2.18-.47.53-1.17.85-2.1.98v.98h-1.25v-1.01c-.73-.07-1.36-.34-1.9-.8s-.81-1.28-.81-2.44v-.51h2.72v.64c0,.7.03,1.13.08,1.3.06.17.19.25.41.25.18,0,.32-.06.41-.18.09-.12.13-.29.13-.53,0-.58-.04-1-.13-1.25-.08-.25-.38-.52-.87-.82-.83-.5-1.39-.86-1.69-1.1-.3-.23-.56-.56-.77-.99s-.33-.91-.33-1.44c0-.78.23-1.39.69-1.83s1.15-.71,2.07-.82v-.83h1.25v.83c.84.1,1.47.37,1.88.81s.63,1.04.63,1.81c0,.11,0,.27-.03.49Z"/>
        </g>
        <g>
          <g>
            <rect class="bst-cls-5" x="1012.06" y="279.85" width="74.44" height="40.55" rx="5.58" ry="5.58"/>
            <path class="bst-cls-4" d="M1049.28,320.45h-30.11c-5.52-.49-7.11-3.19-7.11-7.12v-26.31c0-5.53,3.18-7.12,7.11-7.12h30.11"/>
          </g>
          <g>
            <ellipse class="bst-cls-5" cx="1029.97" cy="306.43" rx="11.27" ry="10.82"/>
            <path class="bst-cls-14" d="M1032.63,310.23l.97,1,.97-1,.97,1,1.2-1.53-1.2-1.53h-6.06c-.54-1.01-1.57-1.68-2.77-1.68-1.74,0-3.14,1.44-3.14,3.22s1.41,3.22,3.14,3.22c1.2,0,2.23-.67,2.77-1.68h.97l.6-.61.6.61.97-1h0ZM1025.37,310.62c-.49,0-.9-.41-.9-.92s.4-.92.9-.92.9.41.9.92-.4.92-.9.92h0Z"/>
            <text class="bst-cls-13" transform="translate(1027.6196 304.8389) scale(1.0544 1)"><tspan x="0" y="0">$</tspan></text>
          </g>
          <g>
            <path class="bst-cls-9" d="M1024.53,290.33c-.54-.16-.98-.37-1.31-.62l.58-1.3c.32.24.69.42,1.12.57.43.14.87.21,1.3.21.48,0,.84-.07,1.07-.22.23-.15.35-.34.35-.58,0-.18-.07-.33-.21-.44-.14-.12-.31-.21-.53-.28-.21-.07-.5-.15-.87-.23-.56-.14-1.02-.27-1.38-.41-.36-.13-.66-.35-.92-.65-.25-.3-.38-.7-.38-1.2,0-.43.12-.83.35-1.18.23-.35.58-.63,1.04-.84.47-.21,1.04-.31,1.71-.31.47,0,.93.06,1.38.17.45.11.84.28,1.18.49l-.53,1.31c-.68-.39-1.36-.59-2.04-.59-.48,0-.83.08-1.06.24-.23.16-.34.36-.34.62s.13.45.39.57c.26.12.66.25,1.2.37.56.13,1.02.27,1.38.41.36.14.66.35.92.64s.38.69.38,1.19c0,.43-.12.82-.35,1.17-.23.35-.59.63-1.06.84-.47.21-1.04.31-1.71.31-.58,0-1.14-.08-1.69-.24Z"/>
            <path class="bst-cls-9" d="M1030.47,283.63c-.19-.18-.28-.4-.28-.66s.09-.48.28-.66c.19-.18.43-.27.74-.27s.55.08.74.26c.19.17.28.38.28.64,0,.28-.09.51-.28.69-.19.18-.43.27-.74.27s-.55-.09-.74-.27ZM1030.38,284.7h1.64v5.75h-1.64v-5.75Z"/>
            <path class="bst-cls-9" d="M1039.38,284.7v4.79c0,1.05-.27,1.84-.81,2.35s-1.33.77-2.36.77c-.55,0-1.06-.07-1.55-.2-.49-.13-.9-.33-1.22-.59l.65-1.2c.24.2.54.36.9.48s.73.18,1.09.18c.57,0,.99-.13,1.25-.39s.41-.65.41-1.18v-.25c-.43.48-1.02.72-1.79.72-.52,0-.99-.12-1.42-.35s-.77-.56-1.02-.98c-.25-.42-.38-.9-.38-1.45s.13-1.03.38-1.45c.25-.42.59-.75,1.02-.98s.91-.35,1.42-.35c.82,0,1.44.27,1.87.82v-.74h1.55ZM1037.34,288.41c.28-.26.42-.6.42-1.02s-.14-.76-.42-1.02-.63-.39-1.07-.39-.79.13-1.07.39-.42.6-.42,1.02.14.76.42,1.02.64.39,1.07.39.79-.13,1.07-.39Z"/>
          </g>
          <g>
            <ellipse class="bst-cls-1" cx="1067.67" cy="299.43" rx="12.16" ry="12.11"/>
            <path class="bst-cls-17" d="M1068.05,303.49v1.02h-.75v-1.02c-.64-.23-1.03-1.03-.52-1.87.94-.82,2.03-.14,2.03.78,0,.5-.32.92-.75,1.09h0ZM1064.84,296.47c0-2.51,3.15-4.25,5.66-1.4v3.53s-2.83-.21-2.83-.21l-2.83.21v-2.13h0ZM1071.64,298.67v-2.2c0-2.22-1.77-4.02-3.96-4.02s-3.96,1.8-3.96,4.02v2.2l-1.32.1v7.28l5.28.38,5.28-.38v-7.28l-1.32-.1h0Z"/>
          </g>
        </g>
      </g>
      <g>
        <line class="bst-cls-3" x1="866.02" y1="390.67" x2="768.58" y2="391.78"/>
        <path class="bst-cls-14" d="M845.36,376.5c-.44.7-.22,1.63.48,2.07l19.5,12.11-19.22,12.55c-.69.45-.89,1.38-.44,2.08s1.39.88,2.08.44l21.19-13.84c.43-.28.69-.76.68-1.27,0-.51-.27-.99-.71-1.26l-21.5-13.35c-.25-.16-.53-.23-.81-.23-.5,0-.98.26-1.26.71Z"/>
      </g>
    </g>
  </g>
</svg>