<?xml version="1.0" encoding="UTF-8"?>
<svg id="Layer_2" data-name="Layer 2" xmlns="http://www.w3.org/2000/svg" xmlns:xlink="http://www.w3.org/1999/xlink" viewBox="0 0 1205.76 441.29">
  <defs>
    <style>
      .bs-cls-1 {
        letter-spacing: 0em;
      }

      .bs-cls-2 {
        letter-spacing: -.02em;
      }

      .bs-cls-3 {
        letter-spacing: 0em;
      }

      .bs-cls-4 {
        fill: #0042b3;
      }

      .bs-cls-5, .bs-cls-6 {
        fill: #fff;
      }

      .bs-cls-7 {
        letter-spacing: -.02em;
      }

      .bs-cls-8 {
        letter-spacing: -.02em;
      }

      .bs-cls-9 {
        filter: url(#dropshadow2);
      }

      .bs-cls-10, .bs-cls-11 {
        fill: #0042b3;
      }

      .bs-cls-12 {
        filter: url(#dropshadow-3);
      }

      .bs-cls-13 {
        filter: url(#dropshadow);
      }

      .bs-cls-14 {
        font-size: 17.82px;
      }

      .bs-cls-14, .bs-cls-15, .bs-cls-6 {
        font-family: Montserrat-Regular, Montserrat;
      }

      .bs-cls-16 {
        filter: url(#dropshadow2-2);
      }

      .bs-cls-17 {
        letter-spacing: 0em;
      }

      .bs-cls-18 {
        filter: url(#dropshadow-2);
      }

      .bs-cls-19 {
        letter-spacing: 0em;
      }

      .bs-cls-20 {
        letter-spacing: -.02em;
      }

      .bs-cls-21 {
        letter-spacing: -.02em;
      }

      .bs-cls-22 {
        letter-spacing: 0em;
      }

      .bs-cls-23 {
        letter-spacing: -.02em;
      }

      .bs-cls-15 {
        font-size: 17.63px;
      }

      .bs-cls-24 {
        letter-spacing: 0em;
      }

      .bs-cls-25 {
        fill: #fbd63b;
      }

      .bs-cls-11 {
        font-family: Impact, Impact;
        font-size: 44.61px;
      }

      .bs-cls-6 {
        font-size: 18.45px;
      }
    </style>
    <filter id="dropshadow2">
      <feGaussianBlur in="SourceAlpha" stdDeviation="2"/>
      <feOffset dx="3" dy="3"/>
      <feComponentTransfer>
        <feFuncA slope="0.5" type="linear"/>
      </feComponentTransfer>
      <feMerge>
        <feMergeNode/>
        <feMergeNode in="SourceGraphic"/>
      </feMerge>
    </filter>
    <filter id="dropshadow">
      <feGaussianBlur in="SourceAlpha" stdDeviation="5"/>
      <feOffset dx="5" dy="5"/>
      <feComponentTransfer>
        <feFuncA slope="0.5" type="linear"/>
      </feComponentTransfer>
      <feMerge>
        <feMergeNode/>
        <feMergeNode in="SourceGraphic"/>
      </feMerge>
    </filter>
    <filter id="dropshadow-2" data-name="dropshadow">
      <feGaussianBlur in="SourceAlpha" stdDeviation="5"/>
      <feOffset dx="5" dy="5"/>
      <feComponentTransfer>
        <feFuncA slope="0.5" type="linear"/>
      </feComponentTransfer>
      <feMerge>
        <feMergeNode/>
        <feMergeNode in="SourceGraphic"/>
      </feMerge>
    </filter>
    <filter id="dropshadow2-2" data-name="dropshadow2">
      <feGaussianBlur in="SourceAlpha" stdDeviation="2"/>
      <feOffset dx="3" dy="3"/>
      <feComponentTransfer>
        <feFuncA slope="0.5" type="linear"/>
      </feComponentTransfer>
      <feMerge>
        <feMergeNode/>
        <feMergeNode in="SourceGraphic"/>
      </feMerge>
    </filter>
    <filter id="dropshadow-3" data-name="dropshadow">
      <feGaussianBlur in="SourceAlpha" stdDeviation="5"/>
      <feOffset dx="5" dy="5"/>
      <feComponentTransfer>
        <feFuncA slope="0.5" type="linear"/>
      </feComponentTransfer>
      <feMerge>
        <feMergeNode/>
        <feMergeNode in="SourceGraphic"/>
      </feMerge>
    </filter>
  </defs>
  <g id="BlindSig">
    <g id="_1" class="fragment fade" data-name="1">
      <g>
        <path class="bs-cls-10" d="M221.02,441.29H0v-150.02l39.38-31.77v-34.05h42.2l28.93-23.34,28.93,23.34h42.02v33.9l39.56,31.91v150.02ZM6.98,437.29h207.06l-73.14-70.05c-17.04-16.32-43.74-16.32-60.78,0h0S6.98,437.29,6.98,437.29ZM145.18,365.79l71.84,68.81v-137.69l-71.84,68.88ZM4,296.91v137.69l71.84-68.81L4,296.91ZM43.38,329.12l35.39,33.92c18.15-16.08,45.34-16.08,63.5,0l35.2-33.75v-99.84H43.38v99.67ZM181.46,264.49v60.96l34.53-33.11-34.53-27.86ZM5.02,292.35l34.35,32.93v-60.64l-34.35,27.71ZM87.95,225.45h45.12l-22.56-18.2-22.56,18.2Z"/>
        <g>
          <g class="bs-cls-9">
            <ellipse class="bs-cls-25" cx="109.68" cy="290.98" rx="46.97" ry="47.31"/>
          </g>
          <path class="bs-cls-5" d="M109.77,329.62c-21.11,0-38.28-17.29-38.28-38.55s17.17-38.55,38.28-38.55,38.28,17.29,38.28,38.55-17.17,38.55-38.28,38.55ZM109.77,254.52c-20,0-36.28,16.39-36.28,36.55s16.27,36.55,36.28,36.55,36.28-16.39,36.28-36.55-16.27-36.55-36.28-36.55Z"/>
        </g>
      </g>
      <g>
        <g class="bs-cls-13">
          <ellipse class="bs-cls-5" cx="110.51" cy="98.13" rx="80.92" ry="80.02"/>
        </g>
        <text class="bs-cls-14" transform="translate(65.94 144.83) scale(1.01 1)"><tspan class="bs-cls-2" x="0" y="0">C</tspan><tspan x="12.49" y="0">us</tspan><tspan class="bs-cls-21" x="33.21" y="0">t</tspan><tspan x="40.1" y="0">o</tspan><tspan class="bs-cls-1" x="51.28" y="0">m</tspan><tspan x="70.23" y="0">er</tspan></text>
        <path class="bs-cls-4" d="M139.16,116.72h-2.3v-1.15c0-5.59-4.8-7.73-10.36-10.21-3.53-1.58-7.19-3.21-9.93-5.91-2.15-2.12-.57-3.79.81-5.25,2.14-2.26,5.72-6.05,5.72-15.89,0-10.62-4.12-15.79-12.6-15.79s-12.6,5.17-12.6,15.79c0,9.85,3.58,13.63,5.72,15.89,1.39,1.47,2.96,3.14.82,5.25-2.74,2.7-6.39,4.33-9.93,5.91-5.56,2.48-10.36,4.62-10.36,10.21v1.15h-2.3v-1.15c0-7.08,5.96-9.74,11.72-12.32,3.35-1.5,6.81-3.04,9.25-5.45q.54-.54-.87-2.03c-2.22-2.35-6.35-6.71-6.35-17.48,0-12,5.01-18.09,14.9-18.09s14.9,6.09,14.9,18.09c0,10.76-4.13,15.13-6.35,17.48q-1.42,1.5-.87,2.03c2.44,2.4,5.9,3.95,9.25,5.44,5.76,2.57,11.72,5.23,11.72,12.32v1.15Z"/>
      </g>
    </g>
    <g id="_2" class="fragment fade" data-name="2">
      <g>
        <path class="bs-cls-10" d="M731.18,438.27h-231.34v-152.17h231.34v152.17ZM506.97,434.27h217.05l-75.38-68.75-23.17,21.48c-5.58,5.17-14.31,5.17-19.88,0l-23.5-21.78-75.12,69.05ZM651.59,362.78l75.59,68.95v-139.06l-75.59,70.11ZM503.84,292.67v139.04l75.31-69.22-75.31-69.82ZM506.94,290.09l101.37,93.97c4.05,3.76,10.4,3.75,14.45,0l101.32-93.97h-217.14Z"/>
        <g>
          <path class="bs-cls-10" d="M748.02,229.52l-1.47-1.6,2.28-2.59c1.2-1.47,1.49-4.44-1.63-7.96-3.15-3.43-6.39-3.1-7.58-1.81l-34.45,35,10.99,11.97,27.25-31.04,1.39,1.52c.54.53.59,1.42.11,2.02l-20.78,22.62c-.9.95-.93,2.51-.06,3.49.87.98,2.3,1.01,3.21.06.02-.02.04-.04.06-.06l20.78-22.62c2.25-2.52,2.19-6.54-.12-9h0Z"/>
          <path class="bs-cls-10" d="M679.6,279.31c-.86.96-1.69,1.95-2.49,2.97l-9.82,12.07,8.66,9.42,11.09-10.7c.94-.87,1.85-1.77,2.73-2.71l22.96-24.07-11-11.98-22.12,24.99h0Z"/>
          <path class="bs-cls-10" d="M656.04,310.19c-.32.62-.2,1.4.29,1.88l-2.59,4.58c-.35.62-.17,1.43.4,1.81.19.12.4.19.62.19.23,0,.45-.07.64-.21l4.17-2.85c.43.52,1.13.65,1.7.31l10.77-8.81-7.84-8.53-8.16,11.62h0Z"/>
        </g>
        <g>
          <path class="bs-cls-10" d="M589.67,318.29v-2.64c.71-.69,1.43-1.35,2.17-2s1.55-1.34,2.45-2.09,1.83-1.47,2.79-2.16c.96-.69,2.05-1.4,3.28-2.13,1.09,1.72,1.63,3.36,1.63,4.93,0,.86-.17,1.82-.5,2.87s-.8,2.26-1.38,3.61-1.31,3.05-2.18,5.09c-2.33,5.61-4.08,10.23-5.24,13.87-1.16,3.64-1.74,6.12-1.74,7.43,0,.11.07.53.21,1.26s.21,1.28.21,1.64c0,.62-.16.96-.49,1-.33.04-.79-.09-1.38-.39-1.52-.82-2.54-1.59-3.06-2.32-.51-.73-.77-1.68-.77-2.84,0-2.08.7-5.32,2.11-9.7.71-2.21,1.54-4.42,2.49-6.61.95-2.19,2-4.41,3.16-6.65s2.25-4.31,3.28-6.2c-2.24,1.01-4.58,2.35-7.03,4.03Z"/>
          <path class="bs-cls-10" d="M626.5,311.68c.93.45,1.61,1.19,2.03,2.21.43,1.02.64,2.53.64,4.53,0,3.03-.56,6.29-1.68,9.8-1.12,3.5-2.68,6.79-4.69,9.86-2.01,3.07-4.31,5.61-6.9,7.61-2.91,2.23-5.29,3.35-7.15,3.35-1.44,0-2.8-.47-4.07-1.42-1.27-.95-2.28-2.29-3.03-4.04-.75-1.75-1.13-3.8-1.13-6.14,0-3.27.83-6.7,2.48-10.3,1.65-3.6,3.75-6.85,6.29-9.75s5.19-5.13,7.95-6.7,5.13-2.12,7.11-1.64c1.29.3,2,1.18,2.14,2.64ZM619.67,318l1.04-2.35c-1.17.64-2.2,1.28-3.09,1.9s-1.91,1.5-3.07,2.64-2.37,2.57-3.64,4.29c-2.06,2.86-3.61,5.62-4.66,8.3-1.05,2.67-1.57,4.95-1.57,6.82,0,2.69.83,4.03,2.49,4.03.95,0,2.31-.56,4.08-1.68s3.64-2.65,5.62-4.61c1.9-1.89,3.57-4.01,5-6.35,1.43-2.34,2.53-4.65,3.29-6.93.76-2.28,1.14-4.22,1.14-5.83,0-1.03-.21-1.83-.62-2.4-.42-.57-.94-.85-1.57-.85-.59,0-1.22.25-1.88.74s-1.52,1.26-2.57,2.29Z"/>
          <path class="bs-cls-10" d="M645.82,313.52l3.83-.45c.42-1.18.75-2.09,1.01-2.72.26-.63.65-1.25,1.17-1.85s1.13-.9,1.83-.9c.38,0,.56.15.56.45,0,.13-.23.74-.7,1.84s-.87,2.12-1.2,3.06c1.9.04,3.27.27,4.12.69.85.42,1.28,1.3,1.28,2.66,0,1.72-.7,2.93-2.11,3.64-.49.24-1.19.49-2.08.77-.89.28-1.39.42-1.51.42-.24,0-.36-.1-.36-.29,0-.09.04-.17.12-.26.38-.21.65-.38.83-.5.18-.12.27-.31.27-.56,0-.24-.26-.41-.79-.53-.52-.12-1.18-.18-1.97-.18l-2.34,6.93c4.37.54,6.56,2.49,6.56,5.87,0,1.72-.42,3.28-1.25,4.67-.83,1.4-2.08,2.59-3.75,3.59-1.67,1-3.77,1.81-6.31,2.43-.32,1.03-.65,2.22-.99,3.56-.35,1.34-.63,2.29-.85,2.85s-.47.84-.77.84-.54-.29-.74-.87c-.2-.58-.3-1.26-.3-2.03,0-1.07.27-2.37.8-3.9-.99.09-2.25.13-3.77.13-.44,1.35-.81,2.77-1.11,4.25s-.55,2.22-.73,2.22c-.24,0-.5-.47-.79-1.42s-.43-1.63-.43-2.06.25-1.58.74-3.51c-1.7-.62-2.76-1.03-3.19-1.21-.43-.18-.77-.46-1.04-.82-.27-.37-.4-.9-.4-1.61,0-1.76.93-3.38,2.79-4.87.71.73,1.29,1.25,1.74,1.56s1.12.58,2.03.82l2.49-8.06c-1.17-.04-2.17-.19-3.01-.45-.84-.26-1.5-.72-1.97-1.39s-.71-1.58-.71-2.74c0-.6.13-1.32.39-2.14.26-.83.61-1.61,1.07-2.34.89-1.42,2.04-2.48,3.44-3.17,1.4-.7,3.29-1.31,5.67-1.82.12-.32.24-.68.37-1.08.13-.4.24-.73.34-1,.1-.27.28-.69.55-1.26.27-.57.48-1.03.64-1.37,1.33-.24,1.99-.11,1.99.39,0,.13-.06.36-.19.69-.13.33-.34.83-.62,1.48-.29.66-.5,1.17-.64,1.53ZM639.79,324.28l1.66-4.9c-1.62.45-2.88.98-3.77,1.58-.89.6-1.33,1.22-1.33,1.87,0,.82,1.15,1.3,3.44,1.45ZM644.48,328.76l-3.77-.32-2.49,8.12c.24.04.66.06,1.28.06.97,0,1.86-.11,2.67-.32l2.31-7.54ZM647.72,318.68l-3.92.32-1.87,5.61,3.65.61,2.14-6.54ZM646.8,329.09l-1.9,6.54c1.76-.69,3.04-1.32,3.84-1.9.8-.58,1.2-1.25,1.2-2s-.23-1.32-.7-1.63c-.46-.31-1.28-.65-2.45-1.01Z"/>
        </g>
      </g>
      <g>
        <g>
          <g class="bs-cls-18">
            <ellipse class="bs-cls-10" cx="612.33" cy="99.38" rx="80.9" ry="82.81"/>
          </g>
          <text class="bs-cls-6" transform="translate(568.43 153.85) scale(.98 1)"><tspan class="bs-cls-23" x="0" y="0">E</tspan><tspan class="bs-cls-20" x="12.06" y="0">x</tspan><tspan class="bs-cls-24" x="21.56" y="0">c</tspan><tspan class="bs-cls-22" x="31.8" y="0">ha</tspan><tspan class="bs-cls-19" x="55.18" y="0">n</tspan><tspan x="67.7" y="0">ge</tspan></text>
          <g>
            <path class="bs-cls-5" d="M582.2,92.58c.38.16.83.16,1.21-.03l12-5.83c.77-.39,1.09-1.38.72-2.2-.35-.79-1.23-1.15-1.98-.79l-8.4,4.09c4.01-12.83,15.18-21.4,28.04-21.4s25.26,9.63,28.65,23.41c.22.87,1.06,1.4,1.87,1.17.81-.23,1.31-1.13,1.09-2-3.75-15.21-16.75-25.85-31.62-25.85s-26.52,9.46-30.97,23.62l-3.53-9.44c-.26-.85-1.14-1.33-1.94-1.05-.8.28-1.24,1.22-.98,2.07.02.07.05.13.08.2l4.9,13.14c.15.41.46.76.86.92h0Z"/>
            <path class="bs-cls-5" d="M650,116.82s-.03-.07-.03-.1l-4.9-13.14c-.15-.41-.46-.76-.86-.92-.38-.16-.83-.15-1.21.03l-12,5.83c-.78.34-1.15,1.31-.83,2.15.32.84,1.23,1.23,2.01.89.03-.02.06-.03.09-.05l8.4-4.09c-4.04,12.83-15.23,21.4-28.07,21.4-13.47,0-25.26-9.63-28.65-23.41-.22-.87-1.06-1.4-1.87-1.17-.81.23-1.31,1.13-1.09,2,3.73,15.23,16.75,25.85,31.62,25.85s26.5-9.46,30.97-23.62l3.53,9.44c.29.85,1.17,1.3,1.97.99.8-.31,1.21-1.25.92-2.1h0Z"/>
          </g>
        </g>
        <g>
          <g>
            <rect class="bs-cls-5" x="647.15" y="12.21" width="144.71" height="75.43" rx="13.85" ry="13.85"/>
            <path class="bs-cls-10" d="M778.01,88.64h-117.01c-8.19,0-14.85-6.66-14.85-14.85V26.06c0-8.19,6.66-14.85,14.85-14.85h117.01c8.19,0,14.85,6.66,14.85,14.85v47.73c0,8.19-6.66,14.85-14.85,14.85ZM661,13.21c-7.08,0-12.85,5.76-12.85,12.85v47.73c0,7.09,5.76,12.85,12.85,12.85h117.01c7.08,0,12.85-5.76,12.85-12.85V26.06c0-7.09-5.76-12.85-12.85-12.85h-117.01Z"/>
          </g>
          <path class="bs-cls-4" d="M783.11,73.11h-2.3v-1.15c0-4.41-3.75-6.12-8.09-8.11-2.83-1.29-5.75-2.63-7.95-4.85-1.84-1.86-.47-3.35.64-4.55,1.68-1.82,4.48-4.85,4.48-12.78,0-8.49-3.19-12.62-9.76-12.62s-9.76,4.13-9.76,12.62c0,7.92,2.81,10.96,4.48,12.78,1.11,1.2,2.49,2.69.64,4.55-2.2,2.22-5.12,3.56-7.95,4.85-4.34,1.98-8.09,3.7-8.09,8.11v1.15h-2.3v-1.15c0-5.89,4.8-8.08,9.43-10.2,2.64-1.21,5.37-2.45,7.27-4.38.19-.2.23-.29.23-.29-.05-.13-.54-.65-.93-1.08-1.78-1.93-5.09-5.52-5.09-14.34,0-12.33,6.56-14.92,12.07-14.92s12.07,2.59,12.07,14.92c0,8.83-3.31,12.41-5.09,14.34-.38.41-.84.91-.92,1.12.02,0,.07.1.22.24,1.91,1.92,4.63,3.17,7.27,4.38,4.64,2.12,9.43,4.31,9.43,10.2v1.15Z"/>
          <text class="bs-cls-11" transform="translate(656.81 67.88) scale(.98 1)"><tspan x="0" y="0">-10$</tspan></text>
        </g>
      </g>
      <g>
        <rect class="bs-cls-10" x="289.46" y="355.08" width="149.74" height="3" transform="translate(-1.27 1.31)"/>
        <path class="bs-cls-10" d="M418.64,341.99c-.44.7-.23,1.63.47,2.07l19.4,12.26-19.31,12.4c-.7.45-.9,1.38-.45,2.07s1.38.89,2.07.45l21.3-13.67c.43-.28.69-.76.69-1.27,0-.51-.27-.99-.7-1.26l-21.39-13.52c-.25-.16-.53-.23-.81-.23-.5,0-.98.25-1.26.7Z"/>
      </g>
    </g>
    <g id="_3" class="fragment fade" data-name="3">
      <g>
        <path class="bs-cls-10" d="M1205.76,441.29h-221.02v-150.02l39.38-31.77v-34.05h42.2l28.93-23.34,28.93,23.34h42.02v33.9l39.56,31.91v150.02ZM991.72,437.29h207.06l-73.14-70.05c-17.04-16.32-43.74-16.32-60.78,0l-73.14,70.05ZM988.74,296.91v137.69l71.84-68.81-71.84-68.88ZM1129.92,365.79l71.84,68.81v-137.69l-71.84,68.88ZM1095.25,350.99c11.34,0,22.67,4.02,31.75,12.06l35.2-33.75v-99.84h-134.09v99.67l35.39,33.92c9.08-8.04,20.41-12.06,31.75-12.06ZM1166.2,264.49v60.96l34.53-33.11-34.53-27.86ZM989.77,292.35l34.35,32.93v-60.64l-34.35,27.71ZM1072.69,225.45h45.12l-22.56-18.2-22.56,18.2Z"/>
        <g>
          <g class="bs-cls-16">
            <ellipse class="bs-cls-25" cx="1095.16" cy="288.09" rx="44.55" ry="44.47"/>
          </g>
          <path class="bs-cls-5" d="M1095.37,328.98c-22.56,0-40.91-18.36-40.91-40.92s18.35-40.92,40.91-40.92,40.91,18.36,40.91,40.92-18.35,40.92-40.91,40.92ZM1095.37,249.13c-21.45,0-38.91,17.46-38.91,38.92s17.45,38.92,38.91,38.92,38.91-17.46,38.91-38.92-17.45-38.92-38.91-38.92Z"/>
          <g>
            <path class="bs-cls-5" d="M1068.07,280.34v-2.21c.65-.57,1.3-1.13,1.97-1.67.66-.54,1.41-1.12,2.22-1.75.82-.63,1.66-1.23,2.53-1.8.87-.57,1.86-1.17,2.98-1.78.99,1.43,1.48,2.81,1.48,4.11,0,.72-.15,1.52-.46,2.39-.31.88-.72,1.88-1.25,3.01-.53,1.13-1.19,2.55-1.98,4.25-2.12,4.68-3.7,8.54-4.75,11.58s-1.58,5.11-1.58,6.2c0,.09.06.44.19,1.05s.19,1.07.19,1.37c0,.52-.15.8-.44.83-.3.04-.71-.07-1.25-.32-1.38-.68-2.31-1.33-2.77-1.94s-.7-1.4-.7-2.37c0-1.74.64-4.44,1.91-8.09.65-1.85,1.4-3.68,2.26-5.51.86-1.83,1.82-3.68,2.87-5.55,1.05-1.87,2.04-3.6,2.98-5.18-2.03.84-4.16,1.96-6.38,3.36Z"/>
            <path class="bs-cls-5" d="M1101.5,274.82c.84.38,1.46.99,1.84,1.84s.58,2.11.58,3.78c0,2.53-.51,5.25-1.52,8.17-1.02,2.92-2.43,5.67-4.26,8.23-1.82,2.56-3.91,4.68-6.26,6.35-2.64,1.87-4.8,2.8-6.49,2.8-1.31,0-2.54-.39-3.69-1.18-1.15-.79-2.07-1.91-2.75-3.37s-1.02-3.17-1.02-5.12c0-2.72.75-5.59,2.25-8.59,1.5-3,3.4-5.71,5.71-8.13,2.31-2.42,4.71-4.29,7.22-5.59,2.51-1.31,4.66-1.77,6.45-1.37,1.17.25,1.81.99,1.94,2.21ZM1095.31,280.1l.94-1.96c-1.06.54-1.99,1.07-2.8,1.59-.81.52-1.74,1.26-2.79,2.21-1.05.95-2.15,2.14-3.3,3.58-1.87,2.38-3.28,4.69-4.23,6.92-.95,2.23-1.43,4.13-1.43,5.69,0,2.24.75,3.36,2.26,3.36.86,0,2.1-.47,3.71-1.4,1.61-.93,3.31-2.21,5.1-3.85,1.72-1.58,3.24-3.34,4.54-5.3,1.3-1.95,2.3-3.88,2.99-5.78s1.04-3.52,1.04-4.87c0-.86-.19-1.53-.57-2-.38-.47-.85-.71-1.43-.71-.54,0-1.11.21-1.71.62-.6.41-1.38,1.05-2.33,1.91Z"/>
            <path class="bs-cls-5" d="M1119.04,276.36l3.48-.38c.38-.99.68-1.74.92-2.27.23-.53.59-1.04,1.06-1.55.48-.5,1.03-.75,1.66-.75.34,0,.51.12.51.38,0,.11-.21.62-.63,1.53s-.79,1.77-1.09,2.55c1.72.04,2.97.23,3.74.58s1.16,1.09,1.16,2.22c0,1.43-.64,2.45-1.91,3.04-.45.2-1.08.41-1.89.65-.81.23-1.27.35-1.37.35-.22,0-.32-.08-.32-.24,0-.07.04-.14.11-.21.34-.18.59-.32.75-.42.16-.1.24-.26.24-.47,0-.2-.24-.34-.71-.44-.48-.1-1.07-.15-1.79-.15l-2.13,5.78c3.97.45,5.95,2.08,5.95,4.89,0,1.43-.38,2.73-1.13,3.9s-1.89,2.16-3.41,3-3.43,1.51-5.72,2.03c-.29.86-.59,1.85-.9,2.97-.31,1.12-.57,1.91-.77,2.38-.2.47-.43.7-.7.7s-.49-.24-.67-.73c-.18-.48-.27-1.05-.27-1.69,0-.9.24-1.98.73-3.25-.9.07-2.04.11-3.42.11-.4,1.13-.73,2.31-1.01,3.55-.28,1.24-.5,1.86-.66,1.86-.22,0-.45-.39-.71-1.18-.26-.79-.39-1.36-.39-1.72,0-.34.22-1.32.67-2.93-1.54-.52-2.51-.86-2.9-1.01-.39-.15-.7-.38-.94-.69-.24-.3-.36-.75-.36-1.34,0-1.47.84-2.82,2.53-4.06.65.61,1.17,1.04,1.58,1.3s1.02.49,1.85.69l2.26-6.72c-1.06-.04-1.97-.16-2.73-.38-.76-.22-1.36-.6-1.79-1.16-.43-.56-.65-1.32-.65-2.29,0-.5.12-1.1.35-1.79s.56-1.34.97-1.95c.81-1.18,1.85-2.07,3.12-2.65,1.28-.58,2.99-1.09,5.15-1.52.11-.27.22-.57.34-.9.12-.33.22-.61.31-.83.09-.22.26-.57.5-1.05.24-.48.44-.86.58-1.14,1.2-.2,1.8-.09,1.8.32,0,.11-.06.3-.17.58-.12.28-.31.69-.57,1.24-.26.55-.45.97-.58,1.28ZM1113.57,285.34l1.51-4.09c-1.47.38-2.61.82-3.42,1.32-.81.5-1.21,1.02-1.21,1.56,0,.68,1.04,1.08,3.12,1.21ZM1117.83,289.08l-3.42-.27-2.26,6.78c.22.04.6.05,1.16.05.88,0,1.69-.09,2.42-.27l2.1-6.29ZM1120.77,280.66l-3.56.27-1.7,4.68,3.31.51,1.94-5.46ZM1119.93,289.35l-1.72,5.46c1.6-.57,2.76-1.1,3.49-1.59.73-.48,1.09-1.04,1.09-1.67s-.21-1.1-.63-1.36-1.16-.54-2.22-.85Z"/>
          </g>
        </g>
      </g>
      <g>
        <g class="bs-cls-12">
          <ellipse class="bs-cls-5" cx="1094.77" cy="94.99" rx="81.77" ry="79.12"/>
        </g>
        <text class="bs-cls-15" transform="translate(1049.731 141.1691) scale(1.0335 1)"><tspan class="bs-cls-8" x="0" y="0">C</tspan><tspan x="12.36" y="0">us</tspan><tspan class="bs-cls-7" x="32.84" y="0">t</tspan><tspan x="39.66" y="0">o</tspan><tspan class="bs-cls-3" x="50.71" y="0">m</tspan><tspan class="bs-cls-17" x="69.44" y="0">er</tspan></text>
        <path class="bs-cls-4" d="M1123.71,113.39h-2.3v-1.15c0-5.51-4.85-7.63-10.46-10.08-3.57-1.56-7.26-3.17-10.03-5.84-.98-.94-1.28-1.94-.91-2.96.29-.78.92-1.44,1.73-2.27,2.16-2.23,5.77-5.97,5.77-15.7,0-10.5-4.17-15.6-12.74-15.6s-12.74,5.1-12.74,15.6c0,9.73,3.61,13.46,5.77,15.7.81.83,1.44,1.49,1.73,2.27.38,1.02.07,2.02-.91,2.96-2.76,2.67-6.46,4.28-10.03,5.84-5.61,2.45-10.46,4.57-10.46,10.08v1.15h-2.3v-1.15c0-7.02,6.02-9.65,11.84-12.19,3.38-1.48,6.88-3.01,9.35-5.39.33-.32.36-.46.36-.46-.01-.24-.72-.98-1.24-1.51-2.24-2.32-6.42-6.64-6.42-17.3,0-11.88,5.06-17.9,15.05-17.9s15.05,6.02,15.05,17.9c0,10.66-4.18,14.98-6.42,17.3-.52.53-1.22,1.27-1.24,1.51h0s.03.15.36.46c2.47,2.38,5.97,3.91,9.35,5.39,5.82,2.54,11.84,5.17,11.84,12.19v1.15Z"/>
      </g>
      <g>
        <rect class="bs-cls-10" x="802.28" y="355.3" width="139.1" height="3" transform="translate(-2.3 5.68) rotate(-.37)"/>
        <path class="bs-cls-10" d="M920.78,342.07c-.44.7-.23,1.63.47,2.07l19.44,12.2-19.27,12.46c-.7.45-.9,1.38-.45,2.07s1.38.89,2.07.45l21.25-13.74c.43-.28.69-.76.69-1.27,0-.51-.27-.99-.7-1.26l-21.44-13.45c-.25-.16-.53-.23-.81-.23-.5,0-.98.25-1.26.7Z"/>
      </g>
    </g>
  </g>
</svg>