<?xml version="1.0" encoding="UTF-8"?>
<svg id="Layer_2" data-name="Layer 2" xmlns="http://www.w3.org/2000/svg" xmlns:xlink="http://www.w3.org/1999/xlink" viewBox="0 0 689.6 579.89">
  <defs>
    <style>
      .ml-cls-1 {
        filter: url(#dropshadow2-8);
      }

      .ml-cls-2 {
        filter: url(#dropshadow2-10);
      }

      .ml-cls-3 {
        filter: url(#dropshadow2-9);
      }

      .ml-cls-4 {
        filter: url(#dropshadow2-4);
      }

      .ml-cls-5 {
        stroke: #0042b3;
      }

      .ml-cls-5, .ml-cls-6, .ml-cls-7 {
        stroke-miterlimit: 10;
        stroke-width: 2px;
      }

      .ml-cls-5, .ml-cls-6, .ml-cls-7, .ml-cls-8 {
        fill: none;
      }

      .ml-cls-9 {
        filter: url(#dropshadow2-6);
      }

      .ml-cls-10 {
        letter-spacing: 0em;
      }

      .ml-cls-11 {
        letter-spacing: -.01em;
      }

      .ml-cls-12 {
        letter-spacing: 0em;
      }

      .ml-cls-13 {
        font-size: 17.19px;
      }

      .ml-cls-13, .ml-cls-14, .ml-cls-15, .ml-cls-16, .ml-cls-17, .ml-cls-18, .ml-cls-19 {
        font-family: Montserrat-Regular, Montserrat;
      }

      .ml-cls-20 {
        letter-spacing: 0em;
      }

      .ml-cls-14 {
        font-size: 24.19px;
      }

      .ml-cls-21 {
        fill: #fff;
      }

      .ml-cls-22 {
        font-size: 21px;
      }

      .ml-cls-22, .ml-cls-23, .ml-cls-16, .ml-cls-24, .ml-cls-19 {
        fill: #0042b3;
      }

      .ml-cls-22, .ml-cls-24 {
        font-family: Montserrat-Bold, Montserrat;
        font-weight: 700;
      }

      .ml-cls-15 {
        font-size: 15.46px;
      }

      .ml-cls-25 {
        filter: url(#dropshadow2);
      }

      .ml-cls-26 {
        filter: url(#dropshadow-3);
      }

      .ml-cls-27 {
        filter: url(#dropshadow);
      }

      .ml-cls-28 {
        opacity: .36;
      }

      .ml-cls-29 {
        filter: url(#dropshadow2-7);
      }

      .ml-cls-30 {
        letter-spacing: 0em;
      }

      .ml-cls-31 {
        letter-spacing: 0em;
      }

      .ml-cls-32 {
        letter-spacing: -.01em;
      }

      .ml-cls-33 {
        filter: url(#dropshadow2-2);
      }

      .ml-cls-34 {
        filter: url(#dropshadow-2);
      }

      .ml-cls-16 {
        font-size: 23px;
      }

      .ml-cls-35 {
        letter-spacing: -.01em;
      }

      .ml-cls-36 {
        letter-spacing: 0em;
      }

      .ml-cls-37 {
        filter: url(#dropshadow2-3);
      }

      .ml-cls-24, .ml-cls-19 {
        font-size: 22px;
      }

      .ml-cls-6 {
        stroke: #fff;
      }

      .ml-cls-17 {
        font-size: 16.96px;
      }

      .ml-cls-38 {
        letter-spacing: 0em;
      }

      .ml-cls-7, .ml-cls-8 {
        stroke: #0042b3;
      }

      .ml-cls-18 {
        font-size: 24px;
      }

      .ml-cls-8 {
        stroke-linecap: square;
        stroke-width: 2.3px;
      }

      .ml-cls-39 {
        fill: #fbd63b;
      }

      .ml-cls-40 {
        letter-spacing: 0em;
      }

      .ml-cls-41 {
        filter: url(#dropshadow2-5);
      }

      .ml-cls-42 {
        letter-spacing: 0em;
      }

      .ml-cls-43 {
        letter-spacing: 0em;
      }
    </style>
    <filter id="dropshadow">
      <feGaussianBlur in="SourceAlpha" stdDeviation="5"/>
      <feOffset dx="5" dy="5"/>
      <feComponentTransfer>
        <feFuncA slope="0.5" type="linear"/>
      </feComponentTransfer>
      <feMerge>
        <feMergeNode/>
        <feMergeNode in="SourceGraphic"/>
      </feMerge>
    </filter>
    <filter id="dropshadow-2" data-name="dropshadow">
      <feGaussianBlur in="SourceAlpha" stdDeviation="5"/>
      <feOffset dx="5" dy="5"/>
      <feComponentTransfer>
        <feFuncA slope="0.5" type="linear"/>
      </feComponentTransfer>
      <feMerge>
        <feMergeNode/>
        <feMergeNode in="SourceGraphic"/>
      </feMerge>
    </filter>
    <filter id="dropshadow2">
      <feGaussianBlur in="SourceAlpha" stdDeviation="2"/>
      <feOffset dx="3" dy="3"/>
      <feComponentTransfer>
        <feFuncA slope="0.5" type="linear"/>
      </feComponentTransfer>
      <feMerge>
        <feMergeNode/>
        <feMergeNode in="SourceGraphic"/>
      </feMerge>
    </filter>
    <filter id="dropshadow2-2" data-name="dropshadow2">
      <feGaussianBlur in="SourceAlpha" stdDeviation="2"/>
      <feOffset dx="3" dy="3"/>
      <feComponentTransfer>
        <feFuncA slope="0.5" type="linear"/>
      </feComponentTransfer>
      <feMerge>
        <feMergeNode/>
        <feMergeNode in="SourceGraphic"/>
      </feMerge>
    </filter>
    <filter id="dropshadow-3" data-name="dropshadow">
      <feGaussianBlur in="SourceAlpha" stdDeviation="5"/>
      <feOffset dx="5" dy="5"/>
      <feComponentTransfer>
        <feFuncA slope="0.5" type="linear"/>
      </feComponentTransfer>
      <feMerge>
        <feMergeNode/>
        <feMergeNode in="SourceGraphic"/>
      </feMerge>
    </filter>
    <filter id="dropshadow2-3" data-name="dropshadow2">
      <feGaussianBlur in="SourceAlpha" stdDeviation="2"/>
      <feOffset dx="3" dy="3"/>
      <feComponentTransfer>
        <feFuncA slope="0.5" type="linear"/>
      </feComponentTransfer>
      <feMerge>
        <feMergeNode/>
        <feMergeNode in="SourceGraphic"/>
      </feMerge>
    </filter>
    <filter id="dropshadow2-4" data-name="dropshadow2">
      <feGaussianBlur in="SourceAlpha" stdDeviation="2"/>
      <feOffset dx="3" dy="3"/>
      <feComponentTransfer>
        <feFuncA slope="0.5" type="linear"/>
      </feComponentTransfer>
      <feMerge>
        <feMergeNode/>
        <feMergeNode in="SourceGraphic"/>
      </feMerge>
    </filter>
    <filter id="dropshadow2-5" data-name="dropshadow2">
      <feGaussianBlur in="SourceAlpha" stdDeviation="2"/>
      <feOffset dx="3" dy="3"/>
      <feComponentTransfer>
        <feFuncA slope="0.5" type="linear"/>
      </feComponentTransfer>
      <feMerge>
        <feMergeNode/>
        <feMergeNode in="SourceGraphic"/>
      </feMerge>
    </filter>
    <filter id="dropshadow2-6" data-name="dropshadow2">
      <feGaussianBlur in="SourceAlpha" stdDeviation="2"/>
      <feOffset dx="3" dy="3"/>
      <feComponentTransfer>
        <feFuncA slope="0.5" type="linear"/>
      </feComponentTransfer>
      <feMerge>
        <feMergeNode/>
        <feMergeNode in="SourceGraphic"/>
      </feMerge>
    </filter>
    <filter id="dropshadow2-7" data-name="dropshadow2">
      <feGaussianBlur in="SourceAlpha" stdDeviation="2"/>
      <feOffset dx="3" dy="3"/>
      <feComponentTransfer>
        <feFuncA slope="0.5" type="linear"/>
      </feComponentTransfer>
      <feMerge>
        <feMergeNode/>
        <feMergeNode in="SourceGraphic"/>
      </feMerge>
    </filter>
    <filter id="dropshadow2-8" data-name="dropshadow2">
      <feGaussianBlur in="SourceAlpha" stdDeviation="2"/>
      <feOffset dx="3" dy="3"/>
      <feComponentTransfer>
        <feFuncA slope="0.5" type="linear"/>
      </feComponentTransfer>
      <feMerge>
        <feMergeNode/>
        <feMergeNode in="SourceGraphic"/>
      </feMerge>
    </filter>
    <filter id="dropshadow2-9" data-name="dropshadow2">
      <feGaussianBlur in="SourceAlpha" stdDeviation="2"/>
      <feOffset dx="3" dy="3"/>
      <feComponentTransfer>
        <feFuncA slope="0.5" type="linear"/>
      </feComponentTransfer>
      <feMerge>
        <feMergeNode/>
        <feMergeNode in="SourceGraphic"/>
      </feMerge>
    </filter>
    <filter id="dropshadow2-10" data-name="dropshadow2">
      <feGaussianBlur in="SourceAlpha" stdDeviation="2"/>
      <feOffset dx="3" dy="3"/>
      <feComponentTransfer>
        <feFuncA slope="0.5" type="linear"/>
      </feComponentTransfer>
      <feMerge>
        <feMergeNode/>
        <feMergeNode in="SourceGraphic"/>
      </feMerge>
    </filter>
  </defs><g id="Cheating">
    <g id="rjs">
      <g id="cheat-1" data-id="cheat1">
        <g>
          <g class="ml-cls-27">
            <ellipse class="ml-cls-39" cx="124.06" cy="147.73" rx="70.38" ry="69.05"/>
          </g>
          <ellipse class="ml-cls-6" cx="124.39" cy="147.67" rx="63.05" ry="61.99"/>
          <g>
            <path class="ml-cls-21" d="M108.89,139.16h-12.87v-2.09c0-2.23-.15-3.69-.45-4.38-.3-.69-.93-1.03-1.91-1.03-.79,0-1.38.3-1.77.89-.39.59-.59,1.48-.59,2.67,0,1.98.4,3.37,1.21,4.16.79.79,3.1,2.33,6.94,4.62,3.27,1.94,5.5,3.42,6.69,4.45s2.19,2.49,3.01,4.38c.82,1.89,1.23,4.23,1.23,7.05,0,4.5-1.1,8.03-3.31,10.59s-5.52,4.15-9.94,4.75v4.75h-5.92v-4.91c-3.44-.33-6.45-1.63-9.01-3.89-2.57-2.26-3.85-6.2-3.85-11.83v-2.47h12.87v3.09c0,3.4.13,5.51.4,6.33.26.82.91,1.23,1.93,1.23.87,0,1.52-.29,1.94-.86.42-.57.64-1.42.64-2.55,0-2.83-.2-4.86-.6-6.08-.4-1.22-1.78-2.55-4.14-3.98-3.93-2.42-6.6-4.19-8.01-5.33-1.41-1.13-2.63-2.73-3.66-4.8s-1.54-4.39-1.54-7c0-3.77,1.09-6.73,3.27-8.88,2.18-2.14,5.44-3.47,9.79-3.97v-4.03h5.92v4.03c3.97.5,6.94,1.81,8.92,3.92,1.97,2.12,2.96,5.04,2.96,8.77,0,.52-.04,1.31-.13,2.38Z"/>
            <path class="ml-cls-21" d="M134.27,124.41v50.59h-12.87v-27.12c0-3.92-.1-6.27-.29-7.06-.19-.79-.72-1.39-1.58-1.8-.86-.41-2.78-.61-5.75-.61h-1.27v-5.9c6.22-1.31,10.95-4.01,14.18-8.1h7.58Z"/>
            <path class="ml-cls-21" d="M169.63,141.54v16.88c0,3.83-.21,6.62-.64,8.38s-1.31,3.39-2.64,4.91c-1.34,1.52-2.95,2.62-4.84,3.28-1.89.67-4,1-6.34,1-3.08,0-5.64-.35-7.68-1.05s-3.66-1.79-4.87-3.27c-1.21-1.48-2.07-3.04-2.58-4.67-.51-1.63-.76-4.23-.76-7.8v-17.66c0-4.64.41-8.12,1.23-10.44s2.44-4.17,4.87-5.56c2.43-1.39,5.38-2.09,8.84-2.09,2.82,0,5.35.48,7.58,1.45s3.9,2.15,5,3.55c1.1,1.4,1.85,2.97,2.25,4.72.39,1.75.59,4.54.59,8.38ZM156.76,137.29c0-2.69-.13-4.37-.4-5.05-.27-.68-.89-1.02-1.86-1.02s-1.59.36-1.9,1.08-.46,2.38-.46,4.98v24.69c0,2.94.14,4.71.43,5.31.29.61.91.91,1.86.91s1.58-.35,1.88-1.06c.3-.71.45-2.3.45-4.78v-25.06Z"/>
          </g>
        </g>
        <g>
          <g class="ml-cls-34">
            <ellipse class="ml-cls-21" cx="437.15" cy="147.67" rx="69.21" ry="69.41"/>
          </g>
          <text class="ml-cls-15" transform="translate(401.15 191.93)"><tspan x="0" y="0">Me</tspan><tspan class="ml-cls-35" x="24.1" y="0">r</tspan><tspan class="ml-cls-20" x="30.1" y="0">c</tspan><tspan x="38.68" y="0">hant</tspan></text>
          <g>
            <path class="ml-cls-23" d="M422.36,119.81c0,.49-.4.9-.9.9s-.9-.4-.9-.9.4-.9.9-.9.9.4.9.9h0Z"/>
            <path class="ml-cls-23" d="M419.66,122.5c0,.49-.4.9-.9.9s-.9-.4-.9-.9.4-.9.9-.9.9.4.9.9h0Z"/>
            <path class="ml-cls-23" d="M441.25,122.5c0,.49-.4.9-.9.9s-.9-.4-.9-.9.4-.9.9-.9.9.4.9.9h0Z"/>
            <path class="ml-cls-23" d="M443.95,119.81c0,.49-.4.9-.9.9s-.9-.4-.9-.9.4-.9.9-.9.9.4.9.9h0Z"/>
            <path class="ml-cls-23" d="M446.65,122.5c0,.49-.4.9-.9.9s-.9-.4-.9-.9.4-.9.9-.9.9.4.9.9h0Z"/>
            <path class="ml-cls-23" d="M435.85,127.87c0,.49-.4.9-.9.9s-.9-.4-.9-.9.4-.9.9-.9.9.4.9.9h0Z"/>
            <path class="ml-cls-23" d="M430.46,127.87c0,.49-.4.9-.9.9s-.9-.4-.9-.9.4-.9.9-.9.9.4.9.9h0Z"/>
            <path class="ml-cls-23" d="M457.45,127.87c0,.49-.4.9-.9.9s-.9-.4-.9-.9.4-.9.9-.9.9.4.9.9h0Z"/>
            <path class="ml-cls-23" d="M433.15,130.55c0,.49-.4.9-.9.9s-.9-.4-.9-.9.4-.9.9-.9.9.4.9.9h0Z"/>
            <path class="ml-cls-23" d="M435.85,133.24c0,.49-.4.9-.9.9s-.9-.4-.9-.9.4-.9.9-.9.9.4.9.9h0Z"/>
            <path class="ml-cls-23" d="M427.76,130.55c0,.49-.4.9-.9.9s-.9-.4-.9-.9.4-.9.9-.9.9.4.9.9h0Z"/>
            <path class="ml-cls-23" d="M430.46,133.24c0,.49-.4.9-.9.9s-.9-.4-.9-.9.4-.9.9-.9.9.4.9.9h0Z"/>
            <path class="ml-cls-23" d="M460.15,130.55c0,.49-.4.9-.9.9s-.9-.4-.9-.9.4-.9.9-.9.9.4.9.9h0Z"/>
            <path class="ml-cls-23" d="M454.75,130.55c0,.49-.4.9-.9.9s-.9-.4-.9-.9.4-.9.9-.9.9.4.9.9h0Z"/>
            <path class="ml-cls-23" d="M457.45,133.24c0,.49-.4.9-.9.9s-.9-.4-.9-.9.4-.9.9-.9.9.4.9.9h0Z"/>
            <path class="ml-cls-23" d="M463.75,125.31c0-.14-.03-.27-.08-.39,0-.09-.02-.17-.04-.26l-3.71-8.05c-.6-1.3-1.92-2.14-3.36-2.14h-37.8c-1.44,0-2.76.84-3.36,2.14l-3.66,7.9-.05.13c-.04.12-.04.25-.03.37-.06.14-.09.29-.09.45v6.01c0,1.25.33,2.43.9,3.46v6.58c-.41.45-.72,1.01-.84,1.64-.1.53-.07,1.1.09,1.64.09.29.02.65-.19.95-.94,1.39-1.13,3.32-.48,4.81.1.23.22.44.37.63.21.28.28.65.2.99-.05.18-.08.37-.1.56-.07.8.09,1.58.22,2.21.14.66.35,1.65,1.09,2.29.4.34.88.52,1.42.55v3.25h-2.64l-.46.02-.55.68,1.08,6.47h51.15v-33.24c.57-1.03.9-2.2.9-3.46v-6.17h0ZM461.26,134.09c-.03.05-.06.1-.1.16-.12.2-.25.38-.39.56,0,0,0,0,0,0-.14.17-.29.34-.44.49-.03.03-.07.06-.1.09-.05.05-.11.09-.16.14-.14-.3-.45-.52-.81-.52-.5,0-.9.4-.9.9,0,.21.08.39.2.54-.05.02-.1.04-.15.05-.12.04-.23.08-.35.12-.08.02-.17.04-.25.06-.13.03-.26.06-.4.08-.07.01-.14.02-.21.03-.21.03-.42.04-.64.04-.71,0-1.38-.14-2-.39.12-.15.2-.33.2-.54,0-.49-.4-.9-.9-.9-.36,0-.67.22-.81.52-.53-.46-.98-1.02-1.3-1.65.19-.16.31-.4.31-.67,0-.47-.36-.84-.82-.88-.05-.29-.08-.58-.08-.88v-2.72c.5,0,.9-.4.9-.9s-.4-.9-.9-.9v-.86h10.8v.86c-.5,0-.9.4-.9.9s.4.9.9.9v2.72c0,.3-.03.59-.08.88-.46.04-.82.41-.82.88,0,.27.12.5.31.67-.02.04-.04.09-.06.13l-.03.06h0ZM432.25,135.03c-.5,0-.9.4-.9.9,0,.45.33.8.76.87-.25.03-.5.06-.76.06-2.98,0-5.4-2.41-5.4-5.37v-5.37h10.8v5.37c0,2.49-1.72,4.59-4.03,5.19.26-.16.43-.43.43-.75,0-.5-.4-.9-.9-.9h0ZM418.12,136.81c-.07,0-.14-.02-.21-.03-.13-.02-.27-.05-.4-.08-.08-.02-.17-.04-.25-.06-.12-.03-.24-.08-.35-.12-.08-.03-.16-.05-.24-.09-.17-.07-.34-.15-.5-.24-.08-.04-.16-.1-.24-.15-.1-.06-.19-.12-.29-.19-.07-.05-.14-.1-.21-.16-.12-.09-.24-.19-.35-.3-.03-.03-.07-.06-.1-.09-.16-.15-.31-.32-.45-.49,0,0,0,0,0,0-.14-.18-.27-.37-.39-.56-.03-.05-.07-.1-.1-.16l-.03-.06c-.42-.76-.65-1.63-.65-2.55v-5.37h10.8v5.37c0,2.96-2.42,5.37-5.4,5.37-.22,0-.43-.02-.64-.04h0ZM438.55,126.11h10.8v5.37c0,2.96-2.42,5.37-5.4,5.37s-5.4-2.41-5.4-5.37v-5.37h0ZM456.55,116.26c.74,0,1.42.43,1.73,1.1l3.21,6.95h-10.49l-.74-4.03-.74-4.03h7.02ZM438.55,116.26h1.63c-.41.08-.73.43-.73.86,0,.49.4.9.9.9s.9-.4.9-.9c0-.44-.32-.78-.73-.86h5.07c-.41.08-.73.43-.73.86,0,.49.4.9.9.9s.9-.4.9-.9c0-.44-.32-.78-.73-.86h1.78l.49,2.7c-.37.11-.64.44-.64.84,0,.49.4.9.9.9.02,0,.04-.01.06-.01l.66,3.63h-10.62v-8.06h0ZM427.61,116.26h9.15v8.06h-10.62l.74-4.03.74-4.03h0ZM415.56,120.53c.14.1.31.17.5.17.5,0,.9-.4.9-.9,0-.41-.29-.75-.67-.85l.74-1.6c.26-.55.77-.93,1.36-1.05-.31.14-.53.45-.53.81,0,.49.4.9.9.9s.9-.4.9-.9c0-.44-.32-.78-.73-.86h5.07c-.41.08-.73.43-.73.86,0,.49.4.9.9.9s.9-.4.9-.9c0-.44-.32-.78-.73-.86h1.45l-.74,4.03-.28,1.55c-.16-.15-.37-.24-.6-.24-.5,0-.9.4-.9.9s.4.9.9.9c.12,0,.23-.03.33-.07l-.18.99h-10.5l1.75-3.78h0ZM413.51,154.57c-.11-.53-.24-1.14-.19-1.67,0-.1.02-.19.05-.29.21-.85.03-1.79-.5-2.49-.06-.09-.12-.18-.17-.28-.41-.93-.28-2.2.32-3.09.51-.75.66-1.65.42-2.46-.08-.26-.09-.55-.05-.8.06-.34.24-.65.47-.86l.06-.05c.09-.07.16-.12.23-.15l.82-.66c.06-.07.14-.11.23-.15.02,0,.04-.02.06-.02.17-.06.35-.07.5-.07.09,0,.18,0,.24.02.33.05.62.15.87.31l.2.16c.09.08.17.15.24.23.06.08.13.16.18.25.14.27.18.63.11.94-.17.8.03,1.66.56,2.29.11.13.19.3.22.47.02.11.03.23.03.35,0,.37-.1.81-.31,1.33h0c-.17.44-.37.81-.59,1.11-.44.6-.6,1.39-.47,2.19.04.26.12.53.23.78.11.24.17.52.18.8.02.28-.01.56-.09.82-.04.14-.1.28-.16.41-.12.26-.29.5-.49.73,0,0-.02.02-.03.03-.09.1-.19.2-.3.3-.36.32-.73.54-1,.68,0,0,0,0-.01,0-.14.07-.29.13-.44.18-.36.12-.71.15-.92-.02-.28-.24-.41-.88-.5-1.3h0ZM417.1,166.39h-3.87l-.6-3.58h5.07l-.6,3.58h0ZM416.06,161.02v-3.64c.05-.02.1-.05.15-.07.5-.26.95-.57,1.35-.92h0s.01-.01.02-.02c.17-.15.33-.31.48-.48.02-.03.04-.05.06-.08.11-.13.22-.27.32-.41.04-.06.08-.13.12-.19.07-.12.14-.24.2-.36.03-.06.07-.13.1-.19.08-.18.16-.37.22-.57.07-.23.12-.47.14-.71.03-.24.03-.49.02-.73-.03-.49-.14-.97-.33-1.41-.19-.44-.18-.91.04-1.21.09-.12.17-.26.25-.4.2-.33.39-.69.56-1.1.41-1.02.53-1.9.37-2.69-.09-.46-.3-.9-.6-1.26-.17-.2-.24-.51-.18-.77.05-.23.06-.47.06-.71,0-.06,0-.12,0-.18-.01-.21-.04-.42-.1-.62,0-.02,0-.05-.01-.07h20.16v18.8h-23.39ZM444.85,166.39v-24.17h12.6v24.17h-12.6ZM461.05,166.39h-1.8v-25.96h-16.2v25.96h-24.13l.6-3.58h21.73v-22.38h-23.29c-.49-.34-1.08-.57-1.72-.66-.23-.03-.46-.04-.68-.03-.06,0-.12,0-.17.01-.17.01-.33.04-.49.08-.05.01-.09.02-.14.03-.18.05-.35.12-.51.2v-2.99c.52.41,1.09.75,1.7,1,0,0,0,0,0,0,.2.08.4.16.61.22.04.01.07.02.11.03.18.05.35.1.53.14.05.01.11.02.16.03.17.03.34.06.51.08.06,0,.12.02.18.02.23.02.46.03.69.03.3,0,.6-.03.9-.06.08-.01.17-.03.25-.04.22-.04.44-.08.66-.14.07-.02.15-.04.22-.06.28-.08.55-.17.81-.29.04-.02.08-.04.12-.06.22-.1.44-.21.65-.33.07-.04.14-.09.21-.13.19-.12.37-.25.55-.38.05-.04.1-.07.15-.11.22-.18.43-.36.62-.56.04-.04.08-.09.13-.14.15-.16.3-.33.43-.51.05-.07.1-.13.15-.2.14-.2.27-.4.39-.61.02-.03.04-.06.06-.09.02.03.04.06.06.09.12.21.25.41.39.61.05.07.1.13.15.2.14.18.28.35.43.51.04.05.08.09.13.14.2.2.4.39.62.56.05.04.1.07.15.11.18.14.36.26.55.38.07.04.14.09.21.13.21.12.43.23.65.33.04.02.08.04.12.06.26.11.53.21.81.29.07.02.15.04.22.06.22.06.43.1.66.14.08.01.17.03.25.04.29.04.59.06.89.06s.6-.03.9-.06c.08-.01.17-.03.25-.04.22-.04.44-.08.66-.14.07-.02.15-.04.22-.06.28-.08.55-.17.81-.29.04-.02.08-.04.12-.06.22-.1.44-.21.65-.33.07-.04.14-.09.21-.13.19-.12.37-.25.55-.38.05-.04.1-.07.15-.11.22-.18.43-.36.62-.56.04-.04.08-.09.13-.14.15-.16.3-.33.43-.51.05-.07.1-.13.15-.2.14-.2.27-.4.39-.61.02-.03.04-.06.06-.09.02.03.04.06.06.09.12.21.25.41.39.61.05.07.1.13.15.2.14.18.28.35.43.51.04.05.08.09.13.14.2.2.4.39.62.56.05.04.1.07.15.11.18.14.36.26.55.38.07.04.14.09.21.13.21.12.43.23.65.33.04.02.08.04.12.06.26.11.53.21.81.29.07.02.15.04.22.06.22.06.43.1.66.14.08.01.17.03.25.04.29.04.59.06.89.06s.6-.03.9-.06c.08-.01.17-.03.25-.04.22-.04.44-.08.66-.14.07-.02.15-.04.22-.06.28-.08.55-.17.81-.29.04-.02.08-.04.12-.06.22-.1.44-.21.65-.33.07-.04.14-.09.21-.13.19-.12.37-.25.55-.38.05-.04.1-.07.15-.11.22-.18.43-.36.62-.56.04-.04.08-.09.13-.14.15-.16.3-.33.43-.51.05-.07.1-.13.15-.2.14-.2.27-.4.39-.61.02-.03.04-.06.06-.09.02.03.04.06.06.09.12.21.25.41.39.61.05.07.1.13.15.2.14.18.28.35.43.51.04.05.08.09.13.14.2.2.4.39.62.56.05.04.1.07.15.11.18.14.36.26.55.38.07.04.14.09.21.13.21.12.43.23.65.33.04.02.08.04.12.06.26.11.53.21.81.29.07.02.15.04.22.06.22.06.43.1.66.14.08.01.17.03.25.04.29.04.59.06.89.06.23,0,.46-.01.69-.03.06,0,.12-.02.18-.02.17-.02.34-.05.51-.08.05-.01.11-.02.16-.03.18-.04.36-.09.53-.14.04-.01.07-.02.11-.03.21-.07.41-.14.61-.22,0,0,0,0,0,0,.61-.26,1.18-.59,1.7-1v29.32h0Z"/>
            <path class="ml-cls-23" d="M454.75,152.97c-.5,0-.9.4-.9.9v2.69c0,.5.4.9.9.9s.9-.4.9-.9v-2.69c0-.5-.4-.9-.9-.9h0Z"/>
            <path class="ml-cls-23" d="M426.86,149.39c.23,0,.46-.09.64-.26l3.6-3.58c.35-.35.35-.92,0-1.27-.35-.35-.92-.35-1.27,0l-3.6,3.58c-.35.35-.35.92,0,1.27.18.17.41.26.64.26h0Z"/>
            <path class="ml-cls-23" d="M426.86,158.34c.23,0,.46-.09.64-.26l8.1-8.06c.35-.35.35-.92,0-1.27-.35-.35-.92-.35-1.27,0l-8.1,8.06c-.35.35-.35.92,0,1.27.18.17.41.26.64.26h0Z"/>
            <path class="ml-cls-23" d="M431.62,148.23c.18.17.41.26.64.26s.46-.09.64-.26l2.7-2.69c.35-.35.35-.92,0-1.27-.35-.35-.92-.35-1.27,0l-2.7,2.69c-.35.35-.35.92,0,1.27h0Z"/>
            <path class="ml-cls-23" d="M426.86,153.86c.23,0,.46-.09.64-.26l1.8-1.79c.35-.35.35-.92,0-1.27-.35-.35-.92-.35-1.27,0l-1.8,1.79c-.35.35-.35.92,0,1.27.18.17.41.26.64.26h0Z"/>
            <path class="ml-cls-23" d="M429.82,148.75c-.16.17-.26.4-.26.64s.1.47.26.63c.17.17.39.27.64.27s.47-.1.64-.26c.16-.17.26-.4.26-.64s-.1-.47-.26-.64c-.33-.33-.94-.33-1.28,0h0Z"/>
            <path class="ml-cls-23" d="M436.11,148.23c.17.16.4.26.64.26s.47-.1.64-.26c.16-.17.26-.4.26-.64s-.1-.47-.26-.64c-.33-.33-.94-.33-1.28,0-.16.17-.26.4-.26.64s.1.47.26.64h0Z"/>
          </g>
        </g>
        <g>
          <g>
            <line class="ml-cls-5" x1="342.61" y1="147.73" x2="218.59" y2="147.73"/>
            <path class="ml-cls-23" d="M328.94,138.13c-.3.46-.16,1.08.31,1.38l12.91,8.22-12.91,8.22c-.47.3-.6.92-.31,1.38s.92.6,1.38.31l14.23-9.06c.29-.18.46-.5.46-.84s-.17-.66-.46-.84l-14.23-9.06c-.17-.11-.35-.16-.54-.16-.33,0-.65.16-.84.46Z"/>
          </g>
          <text class="ml-cls-16" transform="translate(243.26 135.01) scale(.93 1)"><tspan x="0" y="0">Spe</tspan><tspan class="ml-cls-12" x="43.63" y="0">n</tspan><tspan x="59.25" y="0">d</tspan></text>
        </g>
        <g>
          <g class="ml-cls-25">
            <ellipse class="ml-cls-21" cx="61.33" cy="86.19" rx="33.58" ry="33.84"/>
          </g>
          <text class="ml-cls-13" transform="translate(55.22 110.24)"><tspan x="0" y="0">A</tspan></text>
          <path class="ml-cls-8" d="M44.35,96.62c0-6.03,8.49-6.03,12.74-10.04,2.12-2.01-4.25-2.01-4.25-12.05,0-6.7,2.83-10.04,8.49-10.04s8.49,3.35,8.49,10.04c0,10.04-6.37,10.04-4.25,12.05,4.25,4.02,12.74,4.02,12.74,10.04"/>
        </g>
        <g>
          <g class="ml-cls-33">
            <ellipse class="ml-cls-21" cx="278.48" cy="56.68" rx="46.65" ry="47.23"/>
          </g>
          <text class="ml-cls-18" transform="translate(269.98 90.24) scale(.99 1)"><tspan x="0" y="0">A</tspan></text>
          <path class="ml-cls-8" d="M254.88,71.23c0-8.41,11.8-8.41,17.69-14.02,2.95-2.8-5.9-2.8-5.9-16.82,0-9.35,3.93-14.02,11.8-14.02s11.8,4.67,11.8,14.02c0,14.02-8.85,14.02-5.9,16.82,5.9,5.61,17.69,5.61,17.69,14.02"/>
        </g>
      </g>
      <g id="cheat-2" data-id="cheat2">
        <g>
          <g>
            <g class="ml-cls-26">
              <ellipse class="ml-cls-39" cx="124.06" cy="425.82" rx="70.38" ry="69.05"/>
            </g>
            <ellipse class="ml-cls-6" cx="124.39" cy="425.76" rx="63.05" ry="61.99"/>
            <g>
              <path class="ml-cls-21" d="M108.89,417.25h-12.87v-2.09c0-2.23-.15-3.69-.45-4.38-.3-.69-.93-1.03-1.91-1.03-.79,0-1.38.3-1.77.89-.39.59-.59,1.48-.59,2.67,0,1.98.4,3.37,1.21,4.16.79.79,3.1,2.33,6.94,4.62,3.27,1.94,5.5,3.42,6.69,4.45s2.19,2.49,3.01,4.38c.82,1.89,1.23,4.23,1.23,7.05,0,4.5-1.1,8.03-3.31,10.59s-5.52,4.15-9.94,4.75v4.75h-5.92v-4.91c-3.44-.33-6.45-1.63-9.01-3.89-2.57-2.26-3.85-6.2-3.85-11.83v-2.47h12.87v3.09c0,3.4.13,5.51.4,6.33.26.82.91,1.23,1.93,1.23.87,0,1.52-.29,1.94-.86.42-.57.64-1.42.64-2.55,0-2.83-.2-4.86-.6-6.08-.4-1.22-1.78-2.55-4.14-3.98-3.93-2.42-6.6-4.19-8.01-5.33-1.41-1.13-2.63-2.73-3.66-4.8s-1.54-4.4-1.54-7c0-3.77,1.09-6.73,3.27-8.88,2.18-2.15,5.44-3.47,9.79-3.97v-4.03h5.92v4.03c3.97.5,6.94,1.81,8.92,3.92,1.97,2.12,2.96,5.04,2.96,8.77,0,.52-.04,1.31-.13,2.38Z"/>
              <path class="ml-cls-21" d="M134.27,402.5v50.59h-12.87v-27.12c0-3.92-.1-6.27-.29-7.06-.19-.79-.72-1.39-1.58-1.8-.86-.41-2.78-.61-5.75-.61h-1.27v-5.9c6.22-1.31,10.95-4.01,14.18-8.1h7.58Z"/>
              <path class="ml-cls-21" d="M169.63,419.63v16.88c0,3.83-.21,6.62-.64,8.38s-1.31,3.39-2.64,4.91c-1.34,1.52-2.95,2.62-4.84,3.28-1.89.67-4,1-6.34,1-3.08,0-5.64-.35-7.68-1.05s-3.66-1.79-4.87-3.27c-1.21-1.48-2.07-3.04-2.58-4.67-.51-1.63-.76-4.23-.76-7.8v-17.66c0-4.65.41-8.12,1.23-10.44s2.44-4.17,4.87-5.56c2.43-1.4,5.38-2.09,8.84-2.09,2.82,0,5.35.48,7.58,1.45s3.9,2.15,5,3.55c1.1,1.4,1.85,2.97,2.25,4.72.39,1.75.59,4.54.59,8.38ZM156.76,415.38c0-2.69-.13-4.37-.4-5.05-.27-.68-.89-1.02-1.86-1.02s-1.59.36-1.9,1.08-.46,2.38-.46,4.98v24.69c0,2.94.14,4.71.43,5.31.29.6.91.91,1.86.91s1.58-.35,1.88-1.06c.3-.71.45-2.3.45-4.78v-25.06Z"/>
            </g>
          </g>
          <path class="ml-cls-28" d="M124.06,494.81c-38.87,0-70.38-30.91-70.38-69.05s31.51-69.05,70.38-69.05"/>
        </g>
        <g>
          <line class="ml-cls-5" x1="124.04" y1="332.61" x2="123.65" y2="246.47"/>
          <path class="ml-cls-23" d="M133.58,318.89c-.47-.29-1.08-.15-1.38.31l-8.16,12.94-8.28-12.87c-.3-.46-.92-.6-1.38-.3-.46.3-.6.92-.3,1.38l9.13,14.19c.18.29.5.46.85.46.34,0,.66-.18.84-.47l9-14.27c.1-.17.15-.35.15-.54,0-.33-.17-.65-.47-.84Z"/>
        </g>
        <g>
          <g class="ml-cls-37">
            <ellipse class="ml-cls-21" cx="73.45" cy="363.77" rx="33.58" ry="33.84"/>
          </g>
          <text class="ml-cls-13" transform="translate(67.33 387.82)"><tspan x="0" y="0">A</tspan></text>
          <path class="ml-cls-8" d="M56.47,374.19c0-6.03,8.49-6.03,12.74-10.04,2.12-2.01-4.25-2.01-4.25-12.05,0-6.7,2.83-10.04,8.49-10.04s8.49,3.35,8.49,10.04c0,10.04-6.37,10.04-4.25,12.05,4.25,4.02,12.74,4.02,12.74,10.04"/>
        </g>
        <g>
          <g class="ml-cls-4">
            <ellipse class="ml-cls-21" cx="39.87" cy="410.63" rx="33.23" ry="33.39"/>
          </g>
          <text class="ml-cls-17" transform="translate(33.51 434.36)"><tspan x="0" y="0">B</tspan></text>
          <path class="ml-cls-8" d="M23.07,420.92c0-5.95,8.4-5.95,12.6-9.91,2.1-1.98-4.2-1.98-4.2-11.89,0-6.61,2.8-9.91,8.4-9.91s8.4,3.3,8.4,9.91c0,9.91-6.3,9.91-4.2,11.89,4.2,3.96,12.6,3.96,12.6,9.91"/>
        </g>
      </g>
      <g id="cheat-3">
        <g data-id="change">
          <g>
            <g>
              <line class="ml-cls-5" x1="347.51" y1="397.85" x2="223.94" y2="397.85"/>
              <path class="ml-cls-23" d="M333.84,388.25c-.3.46-.16,1.08.31,1.38l12.91,8.22-12.91,8.22c-.47.3-.6.92-.31,1.38.3.47.92.6,1.38.31l14.23-9.06c.29-.18.46-.5.46-.84s-.17-.66-.46-.84l-14.23-9.06c-.17-.11-.35-.16-.54-.16-.33,0-.65.16-.84.46Z"/>
            </g>
            <text class="ml-cls-19" transform="translate(241.2 387.38)"><tspan x="0" y="0">Cha</tspan><tspan class="ml-cls-10" x="43.69" y="0">n</tspan><tspan class="ml-cls-42" x="58.63" y="0">ge</tspan></text>
          </g>
          <g>
            <g class="ml-cls-29">
              <ellipse class="ml-cls-21" cx="284.71" cy="311.74" rx="46.65" ry="47.23"/>
            </g>
            <text class="ml-cls-18" transform="translate(275.77 345.31) scale(.99 1)"><tspan x="0" y="0">B</tspan></text>
            <path class="ml-cls-8" d="M261.12,326.3c0-8.41,11.8-8.41,17.69-14.02,2.95-2.8-5.9-2.8-5.9-16.82,0-9.35,3.93-14.02,11.8-14.02s11.8,4.67,11.8,14.02c0,14.02-8.85,14.02-5.9,16.82,5.9,5.61,17.69,5.61,17.69,14.02"/>
          </g>  
        </g>
        <g data-id="change1">
          <g class="ml-cls-41">
            <ellipse class="ml-cls-39" cx="416.06" cy="426.84" rx="43.46" ry="43.63"/>
          </g>
          <path class="ml-cls-6" d="M450.63,426.93c0,21.79-15.44,34.63-34.49,34.63s-34.49-15.5-34.49-34.63,15.44-34.63,34.49-34.63,34.49,15.5,34.49,34.63Z"/>
          <g>
            <path class="ml-cls-21" d="M415.2,420.83h-8.65v-1.44c0-1.53-.1-2.54-.3-3.01-.2-.47-.63-.71-1.28-.71-.53,0-.92.21-1.19.61-.26.41-.4,1.02-.4,1.84,0,1.36.27,2.31.81,2.86.53.54,2.08,1.61,4.67,3.18,2.2,1.33,3.69,2.35,4.49,3.06.8.71,1.47,1.71,2.02,3.01.55,1.3.82,2.91.82,4.84,0,3.09-.74,5.52-2.23,7.28s-3.71,2.85-6.68,3.27v3.27h-3.98v-3.37c-2.31-.23-4.33-1.12-6.06-2.67s-2.59-4.27-2.59-8.13v-1.7h8.65v2.13c0,2.34.09,3.79.27,4.35.18.57.61.85,1.29.85.58,0,1.02-.2,1.31-.59s.43-.98.43-1.75c0-1.95-.14-3.34-.41-4.18-.27-.84-1.2-1.75-2.78-2.74-2.64-1.66-4.43-2.88-5.38-3.66-.95-.78-1.77-1.88-2.46-3.3-.69-1.42-1.04-3.02-1.04-4.81,0-2.59.73-4.62,2.19-6.1,1.46-1.47,3.66-2.38,6.58-2.73v-2.77h3.98v2.77c2.67.34,4.67,1.24,5.99,2.7s1.99,3.46,1.99,6.03c0,.36-.03.9-.09,1.63Z"/>
            <path class="ml-cls-21" d="M437.79,410.69v5.56h-10.72v5.91c1.34-1.59,3.07-2.38,5.18-2.38,2.38,0,4.18.67,5.4,2.01s1.83,3.91,1.83,7.72v4.96c0,2.46-.12,4.27-.35,5.43s-.74,2.22-1.51,3.2c-.77.98-1.84,1.73-3.22,2.26-1.38.52-3.06.78-5.04.78-2.23,0-4.19-.39-5.88-1.17-1.7-.78-2.9-1.95-3.62-3.49-.71-1.55-1.07-3.94-1.07-7.18v-1.89h8.65v2.17c0,2.25.08,3.85.24,4.79s.7,1.42,1.63,1.42c.43,0,.77-.13,1.04-.41.26-.27.41-.56.43-.88.02-.31.05-1.68.07-4.1v-6.9c0-1.3-.14-2.19-.41-2.66-.27-.47-.72-.71-1.35-.71-.4,0-.73.12-1.01.37-.27.24-.45.51-.52.79-.08.28-.12.93-.12,1.94h-8.56l.36-17.53h18.55Z"/>
          </g>
        </g>
        <g data-id="change2">
          <g class="ml-cls-9">
            <ellipse class="ml-cls-21" cx="450.51" cy="377.24" rx="33.23" ry="33.39"/>
          </g>
          <text class="ml-cls-17" transform="translate(444.15 400.97)"><tspan x="0" y="0">B</tspan></text>
          <path class="ml-cls-8" d="M433.71,387.53c0-5.95,8.4-5.95,12.6-9.91,2.1-1.98-4.2-1.98-4.2-11.89,0-6.61,2.8-9.91,8.4-9.91s8.4,3.3,8.4,9.91c0,9.91-6.3,9.91-4.2,11.89,4.2,3.96,12.6,3.96,12.6,9.91"/>
        </g>
      </g>
      <g id="link">
        <g>
          <g>
            <line class="ml-cls-5" x1="345.29" y1="430.8" x2="221.72" y2="430.8"/>
            <path class="ml-cls-23" d="M331.62,421.2c-.3.46-.16,1.08.31,1.38l12.91,8.22-12.91,8.22c-.47.3-.6.92-.31,1.38s.92.6,1.38.31l14.23-9.06c.29-.18.46-.5.46-.84s-.17-.66-.46-.84l-14.23-9.06c-.17-.11-.35-.16-.54-.16-.33,0-.65.16-.84.46Z"/>
          </g>
          <text class="ml-cls-24" transform="translate(229.57 464.07)"><tspan x="0" y="0">R</tspan><tspan class="ml-cls-40" x="16.17" y="0">e-</tspan><tspan x="38.98" y="0">obtain</tspan></text>
        </g>
        <g>
          <g class="ml-cls-3">
            <ellipse class="ml-cls-21" cx="483.74" cy="417.05" rx="33.58" ry="33.84"/>
          </g>
          <text class="ml-cls-13" transform="translate(477.62 441.1)"><tspan x="0" y="0">A</tspan></text>
          <path class="ml-cls-8" d="M466.76,427.48c0-6.03,8.49-6.03,12.74-10.04,2.12-2.01-4.25-2.01-4.25-12.05,0-6.7,2.83-10.04,8.49-10.04s8.49,3.35,8.49,10.04c0,10.04-6.37,10.04-4.25,12.05,4.25,4.02,12.74,4.02,12.74,10.04"/>
        </g>
        <g>
          <g class="ml-cls-2">
            <ellipse class="ml-cls-21" cx="286.93" cy="523.01" rx="46.65" ry="47.6"/>
          </g>
          <text class="ml-cls-14" transform="translate(278.43 556.84) scale(.98 1)"><tspan x="0" y="0">A</tspan></text>
          <path class="ml-cls-8" d="M263.34,537.68c0-8.48,11.8-8.48,17.69-14.13,2.95-2.83-5.9-2.83-5.9-16.96,0-9.42,3.93-14.13,11.8-14.13s11.8,4.71,11.8,14.13c0,14.13-8.85,14.13-5.9,16.96,5.9,5.65,17.69,5.65,17.69,14.13"/>
        </g>
      </g>
    </g>
  </g>
</svg>