<?xml version="1.0" encoding="UTF-8"?>
<svg id="Layer_2" data-name="Layer 2" xmlns="http://www.w3.org/2000/svg" xmlns:xlink="http://www.w3.org/1999/xlink" viewBox="0 0 1218.78 520.27">
  <defs>
    <style>
      .coin-cls-1 {
        filter: url(#dropshadow2-8);
      }

      .coin-cls-2 {
        letter-spacing: 0em;
      }

      .coin-cls-3 {
        letter-spacing: -.01em;
      }

      .coin-cls-4 {
        letter-spacing: -.02em;
      }

      .coin-cls-5 {
        filter: url(#dropshadow2-10);
      }

      .coin-cls-6 {
        filter: url(#dropshadow2-9);
      }

      .coin-cls-7 {
        filter: url(#dropshadow2-4);
      }

      .coin-cls-8, .coin-cls-9, .coin-cls-10 {
        stroke: #0042b3;
      }

      .coin-cls-8, .coin-cls-9, .coin-cls-10, .coin-cls-11, .coin-cls-12 {
        stroke-miterlimit: 10;
      }

      .coin-cls-8, .coin-cls-10, .coin-cls-11, .coin-cls-12 {
        stroke-width: 2px;
      }

      .coin-cls-8, .coin-cls-11, .coin-cls-12, .coin-cls-13 {
        fill: none;
      }

      .coin-cls-14 {
        letter-spacing: 0em;
      }

      .coin-cls-15, .coin-cls-16, .coin-cls-17, .coin-cls-9, .coin-cls-18 {
        fill: #0042b3;
      }

      .coin-cls-15, .coin-cls-17, .coin-cls-19 {
        font-family: Montserrat-Bold, Montserrat;
        font-weight: 700;
      }

      .coin-cls-15, .coin-cls-19, .coin-cls-20 {
        font-size: 24.75px;
      }

      .coin-cls-21 {
        filter: url(#dropshadow2-6);
      }

      .coin-cls-22 {
        filter: url(#dropshadow2-18);
      }

      .coin-cls-23 {
        filter: url(#dropshadow2-11);
      }

      .coin-cls-24 {
        filter: url(#dropshadow2-17);
      }

      .coin-cls-25 {
        opacity: .38;
      }

      .coin-cls-25, .coin-cls-26 {
        fill: #fbd63b;
      }

      .coin-cls-27 {
        letter-spacing: 0em;
      }

      .coin-cls-28, .coin-cls-10, .coin-cls-29 {
        fill: #fff;
      }

      .coin-cls-30 {
        letter-spacing: 0em;
      }

      .coin-cls-31 {
        letter-spacing: -.02em;
      }

      .coin-cls-32 {
        letter-spacing: 0em;
      }

      .coin-cls-33 {
        filter: url(#dropshadow2);
      }

      .coin-cls-34 {
        filter: url(#dropshadow);
      }

      .coin-cls-35 {
        filter: url(#dropshadow2-7);
      }

      .coin-cls-36 {
        filter: url(#dropshadow2-2);
      }

      .coin-cls-17 {
        font-size: 29px;
      }

      .coin-cls-37 {
        letter-spacing: -.02em;
      }

      .coin-cls-38 {
        letter-spacing: 0em;
      }

      .coin-cls-39 {
        filter: url(#dropshadow-2);
      }

      .coin-cls-9 {
        stroke-width: .75px;
      }

      .coin-cls-40 {
        letter-spacing: -.02em;
      }

      .coin-cls-41 {
        filter: url(#dropshadow2-12);
      }

      .coin-cls-42 {
        letter-spacing: 0em;
      }

      .coin-cls-43 {
        font-size: 19.83px;
      }

      .coin-cls-43, .coin-cls-29, .coin-cls-20 {
        font-family: Montserrat-Regular, Montserrat;
      }

      .coin-cls-44 {
        letter-spacing: 0em;
      }

      .coin-cls-29 {
        font-size: 21.66px;
      }

      .coin-cls-45 {
        letter-spacing: 0em;
      }

      .coin-cls-46 {
        filter: url(#dropshadow2-3);
      }

      .coin-cls-47 {
        filter: url(#dropshadow2-14);
      }

      .coin-cls-48 {
        filter: url(#dropshadow2-15);
      }

      .coin-cls-49 {
        letter-spacing: 0em;
      }

      .coin-cls-11 {
        stroke: #fff;
      }

      .coin-cls-18 {
        opacity: .2;
      }

      .coin-cls-50 {
        filter: url(#dropshadow2-16);
      }

      .coin-cls-51 {
        letter-spacing: 0em;
      }

      .coin-cls-12 {
        stroke: #fbd63b;
      }

      .coin-cls-52 {
        letter-spacing: 0em;
      }

      .coin-cls-13 {
        stroke: #0042b3;
        stroke-linecap: square;
        stroke-width: 2.3px;
      }

      .coin-cls-53 {
        letter-spacing: -.02em;
      }

      .coin-cls-54 {
        fill: #fbd63b;
      }

      .coin-cls-55 {
        letter-spacing: -.01em;
      }

      .coin-cls-56 {
        letter-spacing: 0em;
      }

      .coin-cls-57 {
        filter: url(#dropshadow2-5);
      }

      .coin-cls-58 {
        filter: url(#dropshadow2-13);
      }

      .coin-cls-59 {
        letter-spacing: 0em;
      }
    </style>
    <filter id="dropshadow2">
      <feGaussianBlur in="SourceAlpha" stdDeviation="2"/>
      <feOffset dx="3" dy="3"/>
      <feComponentTransfer>
        <feFuncA slope="0.5" type="linear"/>
      </feComponentTransfer>
      <feMerge>
        <feMergeNode/>
        <feMergeNode in="SourceGraphic"/>
      </feMerge>
    </filter>
    <filter id="dropshadow2-2" data-name="dropshadow2">
      <feGaussianBlur in="SourceAlpha" stdDeviation="2"/>
      <feOffset dx="3" dy="3"/>
      <feComponentTransfer>
        <feFuncA slope="0.5" type="linear"/>
      </feComponentTransfer>
      <feMerge>
        <feMergeNode/>
        <feMergeNode in="SourceGraphic"/>
      </feMerge>
    </filter>
    <filter id="dropshadow2-3" data-name="dropshadow2">
      <feGaussianBlur in="SourceAlpha" stdDeviation="2"/>
      <feOffset dx="3" dy="3"/>
      <feComponentTransfer>
        <feFuncA slope="0.5" type="linear"/>
      </feComponentTransfer>
      <feMerge>
        <feMergeNode/>
        <feMergeNode in="SourceGraphic"/>
      </feMerge>
    </filter>
    <filter id="dropshadow2-4" data-name="dropshadow2">
      <feGaussianBlur in="SourceAlpha" stdDeviation="2"/>
      <feOffset dx="3" dy="3"/>
      <feComponentTransfer>
        <feFuncA slope="0.5" type="linear"/>
      </feComponentTransfer>
      <feMerge>
        <feMergeNode/>
        <feMergeNode in="SourceGraphic"/>
      </feMerge>
    </filter>
    <filter id="dropshadow2-5" data-name="dropshadow2">
      <feGaussianBlur in="SourceAlpha" stdDeviation="2"/>
      <feOffset dx="3" dy="3"/>
      <feComponentTransfer>
        <feFuncA slope="0.5" type="linear"/>
      </feComponentTransfer>
      <feMerge>
        <feMergeNode/>
        <feMergeNode in="SourceGraphic"/>
      </feMerge>
    </filter>
    <filter id="dropshadow2-6" data-name="dropshadow2">
      <feGaussianBlur in="SourceAlpha" stdDeviation="2"/>
      <feOffset dx="3" dy="3"/>
      <feComponentTransfer>
        <feFuncA slope="0.5" type="linear"/>
      </feComponentTransfer>
      <feMerge>
        <feMergeNode/>
        <feMergeNode in="SourceGraphic"/>
      </feMerge>
    </filter>
    <filter id="dropshadow2-7" data-name="dropshadow2">
      <feGaussianBlur in="SourceAlpha" stdDeviation="2"/>
      <feOffset dx="3" dy="3"/>
      <feComponentTransfer>
        <feFuncA slope="0.5" type="linear"/>
      </feComponentTransfer>
      <feMerge>
        <feMergeNode/>
        <feMergeNode in="SourceGraphic"/>
      </feMerge>
    </filter>
    <filter id="dropshadow">
      <feGaussianBlur in="SourceAlpha" stdDeviation="5"/>
      <feOffset dx="5" dy="5"/>
      <feComponentTransfer>
        <feFuncA slope="0.5" type="linear"/>
      </feComponentTransfer>
      <feMerge>
        <feMergeNode/>
        <feMergeNode in="SourceGraphic"/>
      </feMerge>
    </filter>
    <filter id="dropshadow2-8" data-name="dropshadow2">
      <feGaussianBlur in="SourceAlpha" stdDeviation="2"/>
      <feOffset dx="3" dy="3"/>
      <feComponentTransfer>
        <feFuncA slope="0.5" type="linear"/>
      </feComponentTransfer>
      <feMerge>
        <feMergeNode/>
        <feMergeNode in="SourceGraphic"/>
      </feMerge>
    </filter>
    <filter id="dropshadow2-9" data-name="dropshadow2">
      <feGaussianBlur in="SourceAlpha" stdDeviation="2"/>
      <feOffset dx="3" dy="3"/>
      <feComponentTransfer>
        <feFuncA slope="0.5" type="linear"/>
      </feComponentTransfer>
      <feMerge>
        <feMergeNode/>
        <feMergeNode in="SourceGraphic"/>
      </feMerge>
    </filter>
    <filter id="dropshadow-2" data-name="dropshadow">
      <feGaussianBlur in="SourceAlpha" stdDeviation="5"/>
      <feOffset dx="5" dy="5"/>
      <feComponentTransfer>
        <feFuncA slope="0.5" type="linear"/>
      </feComponentTransfer>
      <feMerge>
        <feMergeNode/>
        <feMergeNode in="SourceGraphic"/>
      </feMerge>
    </filter>
    <filter id="dropshadow2-10" data-name="dropshadow2">
      <feGaussianBlur in="SourceAlpha" stdDeviation="2"/>
      <feOffset dx="3" dy="3"/>
      <feComponentTransfer>
        <feFuncA slope="0.5" type="linear"/>
      </feComponentTransfer>
      <feMerge>
        <feMergeNode/>
        <feMergeNode in="SourceGraphic"/>
      </feMerge>
    </filter>
    <filter id="dropshadow2-11" data-name="dropshadow2">
      <feGaussianBlur in="SourceAlpha" stdDeviation="2"/>
      <feOffset dx="3" dy="3"/>
      <feComponentTransfer>
        <feFuncA slope="0.5" type="linear"/>
      </feComponentTransfer>
      <feMerge>
        <feMergeNode/>
        <feMergeNode in="SourceGraphic"/>
      </feMerge>
    </filter>
    <filter id="dropshadow2-12" data-name="dropshadow2">
      <feGaussianBlur in="SourceAlpha" stdDeviation="2"/>
      <feOffset dx="3" dy="3"/>
      <feComponentTransfer>
        <feFuncA slope="0.5" type="linear"/>
      </feComponentTransfer>
      <feMerge>
        <feMergeNode/>
        <feMergeNode in="SourceGraphic"/>
      </feMerge>
    </filter>
    <filter id="dropshadow2-13" data-name="dropshadow2">
      <feGaussianBlur in="SourceAlpha" stdDeviation="2"/>
      <feOffset dx="3" dy="3"/>
      <feComponentTransfer>
        <feFuncA slope="0.5" type="linear"/>
      </feComponentTransfer>
      <feMerge>
        <feMergeNode/>
        <feMergeNode in="SourceGraphic"/>
      </feMerge>
    </filter>
    <filter id="dropshadow2-14" data-name="dropshadow2">
      <feGaussianBlur in="SourceAlpha" stdDeviation="2"/>
      <feOffset dx="3" dy="3"/>
      <feComponentTransfer>
        <feFuncA slope="0.5" type="linear"/>
      </feComponentTransfer>
      <feMerge>
        <feMergeNode/>
        <feMergeNode in="SourceGraphic"/>
      </feMerge>
    </filter>
    <filter id="dropshadow2-15" data-name="dropshadow2">
      <feGaussianBlur in="SourceAlpha" stdDeviation="2"/>
      <feOffset dx="3" dy="3"/>
      <feComponentTransfer>
        <feFuncA slope="0.5" type="linear"/>
      </feComponentTransfer>
      <feMerge>
        <feMergeNode/>
        <feMergeNode in="SourceGraphic"/>
      </feMerge>
    </filter>
    <filter id="dropshadow2-16" data-name="dropshadow2">
      <feGaussianBlur in="SourceAlpha" stdDeviation="2"/>
      <feOffset dx="3" dy="3"/>
      <feComponentTransfer>
        <feFuncA slope="0.5" type="linear"/>
      </feComponentTransfer>
      <feMerge>
        <feMergeNode/>
        <feMergeNode in="SourceGraphic"/>
      </feMerge>
    </filter>
    <filter id="dropshadow2-17" data-name="dropshadow2">
      <feGaussianBlur in="SourceAlpha" stdDeviation="2"/>
      <feOffset dx="3" dy="3"/>
      <feComponentTransfer>
        <feFuncA slope="0.5" type="linear"/>
      </feComponentTransfer>
      <feMerge>
        <feMergeNode/>
        <feMergeNode in="SourceGraphic"/>
      </feMerge>
    </filter>
    <filter id="dropshadow2-18" data-name="dropshadow2">
      <feGaussianBlur in="SourceAlpha" stdDeviation="2"/>
      <feOffset dx="3" dy="3"/>
      <feComponentTransfer>
        <feFuncA slope="0.5" type="linear"/>
      </feComponentTransfer>
      <feMerge>
        <feMergeNode/>
        <feMergeNode in="SourceGraphic"/>
      </feMerge>
    </filter>
  </defs>
  <g id="Coin">
      <g id="Customer" class="fragment fade">
      <g>
        <g class="coin-cls-34">
          <ellipse class="coin-cls-28" cx="107.69" cy="148.76" rx="88.82" ry="89.02"/>
        </g>
        <text class="coin-cls-43" transform="translate(58.77 200.72)"><tspan class="coin-cls-53" x="0" y="0">C</tspan><tspan x="13.9" y="0">us</tspan><tspan class="coin-cls-37" x="36.95" y="0">t</tspan><tspan class="coin-cls-2" x="44.62" y="0">o</tspan><tspan class="coin-cls-14" x="57.05" y="0">m</tspan><tspan class="coin-cls-52" x="78.13" y="0">er</tspan></text>
        <path class="coin-cls-13" d="M77.5,168.17c0-11.31,15.09-11.31,22.64-18.85,3.77-3.77-7.55-3.77-7.55-22.62,0-12.56,5.03-18.85,15.09-18.85s15.09,6.28,15.09,18.85c0,18.85-11.32,18.85-7.55,22.62,7.55,7.54,22.64,7.54,22.64,18.85"/>
      </g>
      <g>
        <g>
          <rect class="coin-cls-25" y="261.51" width="107.96" height="137.05" rx="19.56" ry="19.56"/>
          <g>
            <g class="coin-cls-1">
              <ellipse class="coin-cls-28" cx="52.62" cy="309.77" rx="32.77" ry="33.44"/>
              <ellipse class="coin-cls-12" cx="52.62" cy="309.77" rx="32.77" ry="33.44"/>
            </g>
            <path class="coin-cls-26" d="M62.87,311.79l3.5,3.75,3.5-3.75,3.5,3.75,4.31-5.77-4.31-5.77h-21.81c-1.94-3.81-5.65-6.35-9.96-6.35-6.25,0-11.31,5.43-11.31,12.12s5.06,12.12,11.31,12.12c4.31,0,8.02-2.54,9.96-6.35h3.5l2.15-2.31,2.15,2.31,3.5-3.75h0ZM36.75,313.24c-1.78,0-3.23-1.56-3.23-3.46s1.45-3.46,3.23-3.46,3.23,1.56,3.23,3.46-1.45,3.46-3.23,3.46h0Z"/>
          </g>
          <text class="coin-cls-19" transform="translate(37.52 378.18) scale(.97 1)"><tspan x="0" y="0">sk</tspan></text>
        </g>
        <g>
          <rect class="coin-cls-25" x="117.66" y="260.82" width="107.96" height="137.05" rx="19.56" ry="19.56"/>
          <g>
            <g class="coin-cls-6">
              <ellipse class="coin-cls-28" cx="169.99" cy="309.77" rx="33.58" ry="33.9"/>
              <ellipse class="coin-cls-12" cx="169.99" cy="309.77" rx="33.58" ry="33.9"/>
            </g>
            <path class="coin-cls-26" d="M171.04,321.14v2.84h-2.08v-2.84c-1.2-.43-2.08-1.61-2.08-3.06,0-1.77,1.41-3.22,3.13-3.22s3.13,1.45,3.13,3.22c0,1.39-.89,2.57-2.08,3.06h0ZM162.18,301.46c0-4.45,3.49-8.04,7.82-8.04s7.82,3.59,7.82,8.04v5.95l-7.82-.59-7.82.59v-5.95h0ZM180.93,307.63v-6.17c0-6.22-4.9-11.26-10.94-11.26s-10.94,5.04-10.94,11.26v6.17l-3.65.27v20.37l14.59,1.07,14.59-1.07v-20.37l-3.65-.27h0Z"/>
          </g>
          <text class="coin-cls-19" transform="translate(156.53 378.18) scale(.97 1)"><tspan x="0" y="0">pk</tspan></text>
        </g>
      </g>
      <text class="coin-cls-20" transform="translate(8.67 435.73) scale(.97 1)"><tspan x="0" y="0">Digital signatu</tspan><tspan class="coin-cls-3" x="182.34" y="0">r</tspan><tspan x="191.95" y="0">es</tspan><tspan class="coin-cls-4" x="55.07" y="29.7">k</tspan><tspan class="coin-cls-44" x="69.43" y="29.7">e</tspan><tspan x="84.13" y="29.7">y </tspan><tspan class="coin-cls-56" x="104.03" y="29.7">p</tspan><tspan class="coin-cls-49" x="120.74" y="29.7">ai</tspan><tspan class="coin-cls-27" x="142" y="29.7">r</tspan><tspan x="151.82" y="29.7">s</tspan></text>
    </g>
    <g id="Coin-2" class="fragment fade" data-name="Coin">
      <rect class="coin-cls-18" x="301.62" y="28.87" width="254.9" height="478" rx="32.55" ry="32.55"/>
      <g class="coin-cls-33">
        <rect class="coin-cls-28" x="319.44" y="186.66" width="220.02" height="301.86" rx="23.42" ry="23.42"/>
        <rect class="coin-cls-8" x="319.44" y="186.66" width="220.02" height="301.86" rx="23.42" ry="23.42"/>
      </g>
      <g>
        <g class="coin-cls-36">
          <ellipse class="coin-cls-54" cx="425.74" cy="108.22" rx="52.4" ry="52.97"/>
        </g>
        <ellipse class="coin-cls-11" cx="425.84" cy="108.33" rx="41.58" ry="42.04"/>
        <path class="coin-cls-28" d="M439.88,97.77h-12.37v-2.07c0-2.21-.14-3.65-.43-4.33-.29-.68-.9-1.02-1.84-1.02-.76,0-1.32.29-1.7.88-.38.59-.57,1.47-.57,2.65,0,1.96.39,3.33,1.16,4.12.75.78,2.98,2.31,6.67,4.58,3.14,1.92,5.29,3.39,6.43,4.41,1.14,1.02,2.11,2.46,2.89,4.33s1.18,4.19,1.18,6.98c0,4.46-1.06,7.95-3.18,10.49-2.12,2.54-5.31,4.11-9.55,4.7v4.7h-5.69v-4.86c-3.31-.33-6.19-1.61-8.66-3.85-2.47-2.24-3.7-6.14-3.7-11.71v-2.44h12.37v3.06c0,3.36.13,5.45.38,6.27.25.82.87,1.22,1.85,1.22.84,0,1.46-.28,1.87-.85s.61-1.41.61-2.52c0-2.81-.19-4.81-.58-6.02-.39-1.21-1.71-2.52-3.98-3.95-3.78-2.39-6.34-4.15-7.7-5.28-1.36-1.12-2.53-2.71-3.52-4.75-.99-2.04-1.48-4.35-1.48-6.93,0-3.73,1.05-6.66,3.14-8.79,2.09-2.12,5.23-3.43,9.41-3.93v-3.99h5.69v3.99c3.82.5,6.67,1.79,8.57,3.88s2.85,4.99,2.85,8.68c0,.52-.04,1.3-.12,2.35Z"/>
      </g>
      <g>
        <g class="coin-cls-46">
          <ellipse class="coin-cls-28" cx="377.6" cy="244.34" rx="32.77" ry="33.16"/>
          <ellipse class="coin-cls-12" cx="377.6" cy="244.34" rx="32.77" ry="33.16"/>
        </g>
        <path class="coin-cls-26" d="M387.84,246.34l3.5,3.72,3.5-3.72,3.5,3.72,4.31-5.73-4.31-5.73h-21.81c-1.94-3.78-5.65-6.3-9.96-6.3-6.25,0-11.31,5.38-11.31,12.02s5.06,12.02,11.31,12.02c4.31,0,8.02-2.52,9.96-6.3h3.5l2.15-2.29,2.15,2.29,3.5-3.72h0ZM361.72,247.77c-1.78,0-3.23-1.55-3.23-3.44s1.45-3.44,3.23-3.44,3.23,1.55,3.23,3.44-1.45,3.44-3.23,3.44h0Z"/>
      </g>
      <g>
        <g class="coin-cls-7">
          <ellipse class="coin-cls-28" cx="473.28" cy="244.85" rx="33.58" ry="33.62"/>
          <ellipse class="coin-cls-12" cx="473.28" cy="244.85" rx="33.58" ry="33.62"/>
        </g>
        <path class="coin-cls-26" d="M474.32,256.12v2.82h-2.08v-2.82c-1.77-.63-2.85-2.87-1.43-5.19,2.59-2.28,5.6-.4,5.6,2.16,0,1.38-.89,2.55-2.08,3.03h0ZM465.46,236.61c0-6.96,8.69-11.81,15.63-3.89v9.79s-7.82-.58-7.82-.58l-7.82.58v-5.9h0ZM484.22,242.72v-6.11c0-6.17-4.9-11.17-10.94-11.17s-10.94,5-10.94,11.17v6.11l-3.65.27v20.2l14.59,1.06,14.59-1.06v-20.2l-3.65-.27h0Z"/>
      </g>
      <g>
        <g class="coin-cls-57">
          <ellipse class="coin-cls-28" cx="423.93" cy="439.62" rx="34.76" ry="34.34"/>
          <ellipse class="coin-cls-8" cx="423.93" cy="439.62" rx="34.76" ry="34.34"/>
        </g>
        <path class="coin-cls-16" d="M424.7,461.02v2.06h-1.53v-2.06c-1.3-.46-2.1-2.1-1.05-3.81,1.91-1.67,4.12-.29,4.12,1.59,0,1.01-.65,1.87-1.53,2.22h0ZM418.18,446.73c0-5.1,6.39-8.65,11.51-2.85v7.17s-5.75-.43-5.75-.43l-5.75.43v-4.32h0ZM431.99,451.2v-4.48c0-4.52-3.6-8.18-8.05-8.18s-8.05,3.66-8.05,8.18v4.48l-2.68.19v14.8l10.74.78,10.74-.78v-14.8l-2.68-.19h0Z"/>
        <path class="coin-cls-16" d="M431.03,417.95h-5.69v-.92c0-.98-.07-1.62-.2-1.92-.13-.3-.41-.45-.85-.45-.35,0-.61.13-.78.39-.17.26-.26.65-.26,1.18,0,.87.18,1.48.54,1.83.35.35,1.37,1.03,3.07,2.03,1.45.85,2.43,1.51,2.96,1.96.53.45.97,1.1,1.33,1.92.36.83.54,1.86.54,3.1,0,1.98-.49,3.53-1.47,4.66-.98,1.13-2.44,1.82-4.4,2.09v2.09h-2.62v-2.16c-1.52-.15-2.85-.72-3.99-1.71-1.14-.99-1.71-2.73-1.71-5.2v-1.09h5.69v1.36c0,1.49.06,2.42.18,2.78.12.36.4.54.85.54.38,0,.67-.13.86-.38s.28-.63.28-1.12c0-1.25-.09-2.14-.27-2.67-.18-.54-.79-1.12-1.83-1.75-1.74-1.06-2.92-1.84-3.54-2.34-.62-.5-1.16-1.2-1.62-2.11-.46-.91-.68-1.93-.68-3.08,0-1.66.48-2.96,1.44-3.9.96-.94,2.41-1.53,4.33-1.75v-1.77h2.62v1.77c1.76.22,3.07.79,3.95,1.72.87.93,1.31,2.22,1.31,3.86,0,.23-.02.58-.06,1.04Z"/>
      </g>
      <g>
        <g>
          <g class="coin-cls-21">
            <rect class="coin-cls-28" x="347.8" y="299.78" width="155.88" height="86.57" rx="14.96" ry="14.96"/>
            <rect class="coin-cls-8" x="347.8" y="299.78" width="155.88" height="86.57" rx="14.96" ry="14.96"/>
          </g>
          <path class="coin-cls-9" d="M425.74,386.45h-63.05c-11.56-1.06-14.89-6.81-14.89-15.2v-56.17c0-11.81,6.66-15.2,14.89-15.2h63.05"/>
        </g>
        <g>
          <ellipse class="coin-cls-10" cx="385.31" cy="356.51" rx="23.59" ry="23.09"/>
          <path class="coin-cls-16" d="M390.88,364.64l2.04,2.13,2.04-2.13,2.04,2.13,2.51-3.27-2.51-3.27h-12.7c-1.13-2.16-3.29-3.6-5.8-3.6-3.64,0-6.58,3.07-6.58,6.87s2.95,6.87,6.58,6.87c2.51,0,4.67-1.44,5.8-3.6h2.04l1.25-1.31,1.25,1.31,2.04-2.13h0ZM375.67,365.46c-1.03,0-1.88-.88-1.88-1.96s.85-1.96,1.88-1.96,1.88.88,1.88,1.96-.85,1.96-1.88,1.96h0Z"/>
          <path class="coin-cls-16" d="M390.13,342.52h-3.86v-.62c0-.66-.04-1.09-.13-1.29-.09-.2-.28-.31-.57-.31-.24,0-.41.09-.53.26-.12.18-.18.44-.18.79,0,.59.12,1,.36,1.23.24.23.93.69,2.08,1.37.98.57,1.65,1.01,2.01,1.32.36.3.66.74.9,1.29s.37,1.25.37,2.08c0,1.33-.33,2.38-.99,3.13-.66.76-1.66,1.23-2.98,1.41v1.41h-1.78v-1.45c-1.03-.1-1.94-.48-2.71-1.15-.77-.67-1.16-1.83-1.16-3.5v-.73h3.86v.92c0,1,.04,1.63.12,1.87.08.24.27.37.58.37.26,0,.46-.08.58-.25.13-.17.19-.42.19-.75,0-.84-.06-1.44-.18-1.8s-.54-.75-1.24-1.18c-1.18-.71-1.98-1.24-2.4-1.58-.42-.34-.79-.81-1.1-1.42-.31-.61-.46-1.3-.46-2.07,0-1.12.33-1.99.98-2.63.65-.63,1.63-1.03,2.94-1.17v-1.19h1.78v1.19c1.19.15,2.08.54,2.68,1.16.59.63.89,1.49.89,2.59,0,.15-.01.39-.04.7Z"/>
        </g>
        <g>
          <path class="coin-cls-28" d="M373.91,322.16c-1.14-.34-2.05-.79-2.74-1.33l1.21-2.78c.66.5,1.44.9,2.35,1.21.91.3,1.82.46,2.73.46,1.01,0,1.76-.16,2.24-.47.48-.31.73-.73.73-1.24,0-.38-.14-.7-.43-.95-.29-.25-.65-.45-1.1-.6s-1.05-.32-1.81-.5c-1.17-.29-2.13-.58-2.88-.87-.75-.29-1.39-.75-1.92-1.39s-.8-1.49-.8-2.55c0-.93.24-1.77.73-2.52s1.21-1.35,2.19-1.79c.98-.44,2.17-.66,3.57-.66.98,0,1.94.12,2.88.37s1.76.59,2.46,1.05l-1.1,2.81c-1.42-.84-2.85-1.25-4.27-1.25-1,0-1.73.17-2.21.5-.48.33-.71.78-.71,1.32s.27.95.82,1.22c.55.27,1.39.53,2.52.79,1.17.29,2.13.58,2.88.87.75.29,1.39.75,1.92,1.37.54.62.8,1.47.8,2.53,0,.91-.25,1.74-.74,2.5-.49.75-1.23,1.35-2.21,1.79s-2.18.66-3.59.66c-1.22,0-2.39-.17-3.53-.51Z"/>
          <path class="coin-cls-28" d="M386.35,307.85c-.4-.38-.59-.85-.59-1.41s.2-1.03.59-1.41.91-.57,1.54-.57,1.14.18,1.54.55c.4.37.59.82.59,1.37,0,.59-.2,1.08-.59,1.47s-.91.58-1.54.58-1.14-.19-1.54-.57ZM386.17,310.13h3.43v12.27h-3.43v-12.27Z"/>
          <path class="coin-cls-28" d="M405,310.13v10.22c0,2.25-.56,3.92-1.69,5.02-1.13,1.09-2.78,1.64-4.95,1.64-1.14,0-2.23-.14-3.26-.43-1.03-.29-1.88-.71-2.55-1.25l1.36-2.55c.5.42,1.13.76,1.89,1.01s1.52.38,2.29.38c1.19,0,2.06-.28,2.63-.83.56-.56.85-1.39.85-2.52v-.52c-.89,1.02-2.14,1.53-3.74,1.53-1.09,0-2.08-.25-2.98-.74s-1.62-1.19-2.15-2.09c-.53-.9-.79-1.93-.79-3.1s.26-2.2.79-3.1c.53-.9,1.24-1.59,2.15-2.09s1.9-.74,2.98-.74c1.72,0,3.02.59,3.92,1.76v-1.57h3.26ZM400.74,318.05c.58-.55.87-1.28.87-2.18s-.29-1.62-.87-2.18c-.58-.55-1.32-.83-2.23-.83s-1.66.28-2.24.83-.88,1.28-.88,2.18.29,1.62.88,2.18c.59.56,1.33.83,2.24.83s1.65-.28,2.23-.83Z"/>
        </g>
        <g>
          <g class="coin-cls-35">
            <ellipse class="coin-cls-28" cx="464.25" cy="341.59" rx="25.47" ry="25.85"/>
            <ellipse class="coin-cls-12" cx="464.25" cy="341.59" rx="25.47" ry="25.85"/>
          </g>
          <path class="coin-cls-26" d="M465.04,350.26v2.17h-1.58v-2.17c-1.34-.48-2.16-2.21-1.08-3.99,1.97-1.75,4.25-.31,4.25,1.66,0,1.06-.67,1.96-1.58,2.33h0ZM458.33,335.25c0-5.35,6.59-9.08,11.86-2.99v7.53s-5.93-.45-5.93-.45l-5.93.45v-4.54h0ZM472.55,339.95v-4.7c0-4.74-3.71-8.59-8.3-8.59s-8.3,3.84-8.3,8.59v4.7l-2.77.2v15.54l11.07.82,11.07-.82v-15.54l-2.77-.2h0Z"/>
        </g>
      </g>
    </g>
    <g id="Exchange" class="fragment fade">
      <g>
        <g class="coin-cls-39">
          <circle class="coin-cls-16" cx="760.06" cy="148.74" r="94.27"/>
        </g>
        <text class="coin-cls-29" transform="translate(708.92 209.74) scale(.97 1)"><tspan class="coin-cls-40" x="0" y="0">E</tspan><tspan class="coin-cls-31" x="14.16" y="0">x</tspan><tspan class="coin-cls-32" x="25.32" y="0">c</tspan><tspan class="coin-cls-30" x="37.34" y="0">ha</tspan><tspan class="coin-cls-38" x="64.78" y="0">n</tspan><tspan x="79.48" y="0">ge</tspan></text>
        <g>
          <path class="coin-cls-28" d="M724.95,137.8c.45.19.97.19,1.41-.04l13.98-6.85c.9-.46,1.27-1.62.84-2.58-.41-.93-1.43-1.35-2.31-.93l-9.79,4.8c4.67-15.06,17.69-25.13,32.67-25.13s29.43,11.3,33.39,27.48c.25,1.02,1.24,1.64,2.18,1.37.95-.27,1.52-1.33,1.27-2.35-4.37-17.86-19.51-30.35-36.84-30.35s-30.9,11.11-36.09,27.73l-4.12-11.09c-.3-1-1.32-1.56-2.26-1.23-.93.33-1.45,1.43-1.15,2.43.02.08.05.15.09.23l5.71,15.43c.18.48.54.89,1,1.08h0Z"/>
          <path class="coin-cls-28" d="M803.96,166.26s-.04-.08-.04-.12l-5.71-15.43c-.18-.48-.54-.89-1-1.08-.45-.19-.97-.17-1.41.04l-13.98,6.85c-.91.4-1.34,1.54-.97,2.53.38.98,1.43,1.45,2.35,1.04.04-.02.07-.04.11-.06l9.79-4.8c-4.71,15.06-17.74,25.13-32.71,25.13-15.7,0-29.43-11.3-33.39-27.48-.25-1.02-1.24-1.64-2.18-1.37-.95.27-1.52,1.33-1.27,2.35,4.35,17.88,19.51,30.35,36.84,30.35s30.88-11.11,36.09-27.73l4.12,11.09c.34,1,1.36,1.52,2.29,1.16.93-.37,1.41-1.47,1.07-2.47h0Z"/>
        </g>
      </g>
      <g>
        <g>
          <rect class="coin-cls-18" x="647" y="264.3" width="107.96" height="137.05" rx="19.56" ry="19.56"/>
          <text class="coin-cls-19" transform="translate(686.98 383.71) scale(.97 1)"><tspan x="0" y="0">sk</tspan></text>
          <g>
            <g class="coin-cls-5">
              <circle class="coin-cls-28" cx="702.59" cy="318.17" r="35.93"/>
              <circle class="coin-cls-8" cx="702.59" cy="318.17" r="35.93"/>
            </g>
            <path class="coin-cls-16" d="M709.08,330.81l2.97,3.31,2.97-3.31,2.97,3.31,3.65-5.09-3.65-5.09h-18.48c-1.64-3.36-4.79-5.59-8.44-5.59-5.29,0-9.58,4.78-9.58,10.68s4.29,10.68,9.58,10.68c3.65,0,6.8-2.24,8.44-5.59h2.97l1.82-2.03,1.82,2.03,2.97-3.31h0ZM686.96,332.09c-1.51,0-2.74-1.37-2.74-3.05s1.23-3.05,2.74-3.05,2.74,1.37,2.74,3.05-1.23,3.05-2.74,3.05h0Z"/>
            <path class="coin-cls-16" d="M707.99,296.41h-5.62v-.96c0-1.03-.06-1.7-.19-2.01s-.41-.47-.83-.47c-.34,0-.6.14-.77.41-.17.27-.26.68-.26,1.23,0,.91.18,1.55.53,1.91.34.36,1.35,1.07,3.03,2.13,1.43.89,2.4,1.58,2.92,2.05s.96,1.15,1.31,2.01c.36.87.54,1.95.54,3.24,0,2.07-.48,3.7-1.45,4.88-.96,1.18-2.41,1.91-4.34,2.19v2.19h-2.59v-2.26c-1.5-.15-2.82-.75-3.94-1.79-1.12-1.04-1.68-2.86-1.68-5.44v-1.14h5.62v1.42c0,1.56.06,2.53.17,2.91.12.38.4.57.84.57.38,0,.66-.13.85-.4s.28-.65.28-1.17c0-1.3-.09-2.24-.26-2.8-.18-.56-.78-1.17-1.81-1.83-1.72-1.11-2.88-1.93-3.5-2.45-.62-.52-1.15-1.26-1.6-2.21-.45-.95-.67-2.02-.67-3.22,0-1.74.48-3.1,1.43-4.08.95-.99,2.38-1.6,4.28-1.83v-1.86h2.59v1.86c1.73.23,3.03.83,3.9,1.8.86.97,1.29,2.32,1.29,4.03,0,.24-.02.6-.06,1.09Z"/>
          </g>
        </g>
        <g>
          <rect class="coin-cls-18" x="761.76" y="264.65" width="107.96" height="137.05" rx="19.56" ry="19.56"/>
          <g>
            <g class="coin-cls-23">
              <ellipse class="coin-cls-28" cx="814.11" cy="319.26" rx="35.88" ry="36.61"/>
              <ellipse class="coin-cls-8" cx="814.11" cy="319.26" rx="35.88" ry="36.61"/>
            </g>
            <path class="coin-cls-16" d="M814.9,342.08v2.2h-1.58v-2.2c-1.34-.49-2.17-2.24-1.09-4.06,1.97-1.78,4.25-.31,4.25,1.69,0,1.08-.67,1.99-1.58,2.37h0ZM808.17,326.84c0-5.44,6.6-9.22,11.88-3.04v7.65s-5.94-.46-5.94-.46l-5.94.46v-4.61h0ZM822.42,331.61v-4.78c0-4.82-3.72-8.72-8.31-8.72s-8.31,3.9-8.31,8.72v4.78l-2.77.21v15.78l11.09.83,11.09-.83v-15.78l-2.77-.21h0Z"/>
            <path class="coin-cls-16" d="M821.44,296.16h-5.88v-.98c0-1.04-.07-1.73-.2-2.05s-.43-.48-.87-.48c-.36,0-.63.14-.81.42-.18.28-.27.7-.27,1.25,0,.93.18,1.58.55,1.95.36.37,1.42,1.09,3.17,2.17,1.49.91,2.51,1.61,3.05,2.09.54.48,1,1.17,1.37,2.05.37.88.56,1.99.56,3.31,0,2.11-.5,3.77-1.51,4.97-1.01,1.2-2.52,1.94-4.54,2.23v2.23h-2.71v-2.3c-1.57-.16-2.94-.76-4.12-1.83-1.17-1.06-1.76-2.91-1.76-5.55v-1.16h5.88v1.45c0,1.59.06,2.58.18,2.97.12.39.41.58.88.58.4,0,.69-.13.89-.4.19-.27.29-.67.29-1.19,0-1.33-.09-2.28-.28-2.85-.18-.57-.81-1.19-1.89-1.87-1.79-1.13-3.01-1.97-3.66-2.5-.65-.53-1.2-1.28-1.67-2.25-.47-.97-.71-2.06-.71-3.28,0-1.77.5-3.16,1.49-4.16.99-1.01,2.49-1.63,4.47-1.86v-1.89h2.71v1.89c1.81.23,3.17.85,4.07,1.84.9.99,1.35,2.36,1.35,4.11,0,.24-.02.62-.06,1.11Z"/>
          </g>
          <text class="coin-cls-19" transform="translate(800.22 386.13) scale(.97 1)"><tspan x="0" y="0">pk</tspan></text>
        </g>
      </g>
      <text class="coin-cls-20" transform="translate(660.18 436.72) scale(.97 1)"><tspan x="0" y="0">Bli</tspan><tspan class="coin-cls-42" x="31.98" y="0">n</tspan><tspan x="48.79" y="0">d signatu</tspan><tspan class="coin-cls-3" x="165.86" y="0">r</tspan><tspan class="coin-cls-45" x="175.46" y="0">es</tspan><tspan class="coin-cls-4" x="46.83" y="29.7">k</tspan><tspan class="coin-cls-55" x="61.19" y="29.7">e</tspan><tspan x="75.89" y="29.7">y </tspan><tspan class="coin-cls-59" x="95.79" y="29.7">p</tspan><tspan class="coin-cls-45" x="112.5" y="29.7">ai</tspan><tspan class="coin-cls-27" x="133.76" y="29.7">r</tspan><tspan class="coin-cls-45" x="143.58" y="29.7">s</tspan></text>
    </g>
    <g id="Denominations" class="fragment fade">
      <g class="coin-cls-41">
        <rect class="coin-cls-28" x="963.15" y="43.26" width="231.66" height="420.61" rx="23.42" ry="23.42"/>
        <rect class="coin-cls-8" x="963.15" y="43.26" width="231.66" height="420.61" rx="23.42" ry="23.42"/>
      </g>
      <g>
        <g>
          <g class="coin-cls-58">
            <circle class="coin-cls-28" cx="1128.85" cy="394.43" r="37.31"/>
            <circle class="coin-cls-8" cx="1128.85" cy="394.43" r="37.31"/>
          </g>
          <path class="coin-cls-16" d="M1129.67,418.92v2.36h-1.65v-2.36c-1.39-.53-2.25-2.4-1.13-4.36,2.05-1.91,4.42-.33,4.42,1.81,0,1.16-.7,2.14-1.65,2.54h0ZM1122.67,402.56c0-5.84,6.86-9.9,12.35-3.26v8.21s-6.17-.49-6.17-.49l-6.17.49v-4.95h0ZM1137.49,407.69v-5.13c0-5.17-3.87-9.36-8.64-9.36s-8.64,4.19-8.64,9.36v5.13l-2.88.22v16.94l11.53.89,11.53-.89v-16.94l-2.88-.22h0Z"/>
          <g>
            <path class="coin-cls-16" d="M1120.34,372.78h-6.11v-1.05c0-1.12-.07-1.86-.21-2.2-.14-.35-.44-.52-.91-.52-.37,0-.65.15-.84.45s-.28.75-.28,1.35c0,1,.19,1.69.58,2.09.37.4,1.47,1.17,3.3,2.33,1.55.98,2.61,1.72,3.18,2.24.56.52,1.04,1.25,1.43,2.2.39.95.58,2.13.58,3.55,0,2.27-.52,4.04-1.57,5.33-1.05,1.29-2.62,2.09-4.72,2.39v2.39h-2.81v-2.47c-1.63-.17-3.06-.82-4.28-1.96-1.22-1.14-1.83-3.12-1.83-5.96v-1.24h6.11v1.56c0,1.71.06,2.77.19,3.19.13.41.43.62.92.62.41,0,.72-.14.92-.43.2-.29.3-.72.3-1.28,0-1.43-.1-2.45-.29-3.06s-.85-1.28-1.97-2.01c-1.87-1.22-3.13-2.11-3.8-2.68-.67-.57-1.25-1.38-1.74-2.42-.49-1.04-.73-2.21-.73-3.52,0-1.9.52-3.39,1.55-4.47,1.03-1.08,2.58-1.75,4.65-2v-2.03h2.81v2.03c1.89.25,3.3.91,4.23,1.97.94,1.06,1.41,2.54,1.41,4.41,0,.26-.02.66-.06,1.2Z"/>
            <path class="coin-cls-16" d="M1134.45,376.4c.93.33,1.62.86,2.07,1.6.45.74.68,2.47.68,5.2,0,2.03-.22,3.6-.67,4.71-.44,1.12-1.21,1.97-2.3,2.55-1.09.58-2.49.87-4.19.87-1.94,0-3.46-.34-4.56-1.02-1.1-.68-1.83-1.5-2.18-2.49-.35-.98-.52-2.68-.52-5.11v-2.01h6.11v4.14c0,1.1.06,1.8.19,2.1s.41.45.84.45c.47,0,.79-.19.94-.57.15-.38.23-1.36.23-2.96v-1.76c0-.98-.11-1.69-.32-2.14-.21-.45-.52-.75-.94-.89-.41-.14-1.21-.22-2.4-.24v-3.7c1.45,0,2.35-.06,2.69-.17s.59-.37.74-.76c.15-.39.23-1,.23-1.83v-1.42c0-.89-.09-1.48-.26-1.76-.18-.28-.45-.43-.82-.43-.42,0-.71.15-.87.45s-.23.94-.23,1.91v2.09h-6.11v-2.17c0-2.43.53-4.08,1.6-4.93,1.07-.86,2.77-1.28,5.1-1.28,2.91,0,4.89.59,5.93,1.78,1.04,1.18,1.56,2.83,1.56,4.94,0,1.43-.19,2.46-.56,3.09-.37.63-1.03,1.21-1.97,1.74Z"/>
            <path class="coin-cls-16" d="M1152.57,386.49v4.34h-13.45v-3.63c3.99-6.78,6.35-10.97,7.1-12.58s1.13-2.87,1.13-3.77c0-.69-.11-1.21-.34-1.55-.23-.34-.57-.51-1.04-.51s-.81.19-1.04.57c-.23.38-.34,1.13-.34,2.25v2.42h-5.47v-.93c0-1.43.07-2.55.21-3.38.14-.82.49-1.63,1.04-2.43.55-.8,1.28-1.4,2.16-1.81.89-.41,1.95-.61,3.19-.61,2.43,0,4.27.63,5.51,1.88,1.25,1.25,1.87,2.84,1.87,4.76,0,1.46-.35,3-1.05,4.63-.7,1.63-2.77,5.08-6.19,10.35h6.7Z"/>
          </g>
        </g>
        <g>
          <g class="coin-cls-47">
            <ellipse class="coin-cls-28" cx="1029.77" cy="394.22" rx="38.69" ry="38.05"/>
            <ellipse class="coin-cls-8" cx="1029.77" cy="394.22" rx="38.69" ry="38.05"/>
          </g>
          <path class="coin-cls-16" d="M1040.52,411.74l3.16,3.5,3.16-3.5,3.16,3.5,3.89-5.39-3.89-5.39h-19.68c-1.75-3.56-5.1-5.93-8.99-5.93-5.64,0-10.21,5.06-10.21,11.31s4.57,11.31,10.21,11.31c3.89,0,7.24-2.37,8.99-5.93h3.16l1.94-2.16,1.94,2.16,3.16-3.5h0ZM1016.95,413.08c-1.6,0-2.92-1.45-2.92-3.23s1.31-3.23,2.92-3.23,2.92,1.45,2.92,3.23-1.31,3.23-2.92,3.23h0Z"/>
          <g>
            <path class="coin-cls-16" d="M1023,373.23h-5.99v-1.02c0-1.09-.07-1.8-.21-2.13s-.43-.5-.89-.5c-.37,0-.64.14-.82.43-.18.29-.27.72-.27,1.3,0,.97.19,1.64.56,2.03.37.39,1.44,1.14,3.23,2.25,1.52.94,2.56,1.67,3.11,2.17s1.02,1.21,1.4,2.13c.38.92.57,2.06.57,3.44,0,2.19-.51,3.92-1.54,5.16-1.03,1.25-2.57,2.02-4.62,2.32v2.32h-2.76v-2.39c-1.6-.16-3-.79-4.2-1.9-1.2-1.1-1.79-3.02-1.79-5.77v-1.2h5.99v1.51c0,1.66.06,2.68.18,3.08.12.4.42.6.9.6.4,0,.71-.14.9-.42.2-.28.3-.69.3-1.24,0-1.38-.09-2.37-.28-2.96-.19-.59-.83-1.24-1.93-1.94-1.83-1.18-3.07-2.04-3.73-2.6-.66-.55-1.23-1.33-1.7-2.34-.48-1.01-.72-2.14-.72-3.41,0-1.84.51-3.28,1.52-4.33s2.53-1.69,4.56-1.93v-1.96h2.76v1.96c1.85.24,3.23.88,4.15,1.91.92,1.03,1.38,2.46,1.38,4.27,0,.25-.02.64-.06,1.16Z"/>
            <path class="coin-cls-16" d="M1036.83,376.73c.91.32,1.59.83,2.03,1.55.45.72.67,2.4.67,5.04,0,1.96-.22,3.48-.65,4.57-.44,1.08-1.19,1.9-2.25,2.47-1.07.56-2.44.85-4.11.85-1.9,0-3.39-.33-4.47-.98s-1.79-1.46-2.13-2.41c-.34-.95-.51-2.6-.51-4.94v-1.95h5.99v4.01c0,1.07.06,1.74.18,2.03.12.29.4.43.82.43.46,0,.77-.18.92-.55.15-.37.22-1.32.22-2.86v-1.71c0-.94-.1-1.64-.31-2.07-.21-.44-.51-.72-.92-.86-.41-.14-1.19-.22-2.36-.24v-3.58c1.42,0,2.3-.06,2.64-.17.34-.11.58-.36.73-.73.15-.38.22-.96.22-1.77v-1.37c0-.86-.09-1.43-.26-1.71s-.44-.41-.81-.41c-.42,0-.7.14-.85.43-.15.29-.23.91-.23,1.85v2.03h-5.99v-2.1c0-2.36.52-3.95,1.57-4.78,1.05-.83,2.71-1.24,5-1.24,2.86,0,4.79.57,5.81,1.72,1.02,1.15,1.53,2.74,1.53,4.78,0,1.38-.18,2.38-.55,2.99-.37.61-1.01,1.17-1.93,1.68Z"/>
            <path class="coin-cls-16" d="M1054.59,386.5v4.21h-13.18v-3.52c3.91-6.56,6.23-10.62,6.96-12.18.74-1.56,1.1-2.77,1.1-3.65,0-.67-.11-1.17-.33-1.5s-.56-.5-1.02-.5-.79.18-1.02.55c-.22.37-.33,1.09-.33,2.18v2.35h-5.37v-.9c0-1.38.07-2.47.21-3.27s.48-1.58,1.02-2.35c.54-.77,1.25-1.36,2.12-1.75.87-.4,1.91-.59,3.13-.59,2.38,0,4.18.61,5.4,1.82,1.22,1.21,1.83,2.75,1.83,4.61,0,1.41-.34,2.91-1.03,4.48-.69,1.57-2.71,4.92-6.07,10.02h6.57Z"/>
          </g>
        </g>
      </g>
      <g>
        <g>
          <g class="coin-cls-48">
            <circle class="coin-cls-28" cx="1124.84" cy="144.35" r="37.78"/>
            <circle class="coin-cls-8" cx="1124.84" cy="144.35" r="37.78"/>
          </g>
          <path class="coin-cls-16" d="M1126.74,167.89v2.27h-1.62v-2.27c-1.37-.5-2.22-2.31-1.11-4.19,2.02-1.84,4.35-.32,4.35,1.74,0,1.11-.69,2.06-1.62,2.44h0ZM1119.86,152.17c0-5.61,6.75-9.52,12.15-3.13v7.89s-6.07-.47-6.07-.47l-6.07.47v-4.76h0ZM1134.44,157.09v-4.93c0-4.97-3.81-9-8.5-9s-8.5,4.03-8.5,9v4.93l-2.83.21v16.28l11.34.86,11.34-.86v-16.28l-2.83-.21h0Z"/>
          <g>
            <path class="coin-cls-16" d="M1126.69,121.57h-6.01v-1.01c0-1.08-.07-1.79-.21-2.12-.14-.33-.44-.5-.89-.5-.37,0-.64.14-.83.43s-.28.72-.28,1.29c0,.96.19,1.63.57,2.01.37.38,1.45,1.13,3.24,2.24,1.53.94,2.57,1.66,3.12,2.16.56.5,1.02,1.21,1.41,2.12.38.91.57,2.05.57,3.41,0,2.18-.52,3.89-1.55,5.13s-2.58,2.01-4.64,2.3v2.3h-2.77v-2.38c-1.61-.16-3.01-.79-4.21-1.88-1.2-1.09-1.8-3-1.8-5.73v-1.2h6.01v1.5c0,1.64.06,2.66.19,3.06s.42.6.9.6c.41,0,.71-.14.91-.42.2-.28.3-.69.3-1.23,0-1.37-.09-2.35-.28-2.94s-.83-1.23-1.93-1.93c-1.83-1.17-3.08-2.03-3.74-2.58-.66-.55-1.23-1.32-1.71-2.32-.48-1-.72-2.13-.72-3.39,0-1.83.51-3.26,1.52-4.3,1.02-1.04,2.54-1.68,4.57-1.92v-1.95h2.77v1.95c1.85.24,3.24.88,4.17,1.9.92,1.02,1.38,2.44,1.38,4.24,0,.25-.02.63-.06,1.15Z"/>
            <path class="coin-cls-16" d="M1138.54,114.43v24.49h-6.01v-13.13c0-1.9-.04-3.04-.13-3.42-.09-.38-.33-.67-.74-.87-.4-.2-1.3-.29-2.68-.29h-.59v-2.85c2.91-.64,5.11-1.94,6.62-3.92h3.54Z"/>
          </g>
        </g>
        <g>
          <g class="coin-cls-50">
            <circle class="coin-cls-28" cx="1028.1" cy="144.62" r="38.05"/>
            <circle class="coin-cls-8" cx="1028.1" cy="144.62" r="38.05"/>
          </g>
          <path class="coin-cls-16" d="M1038.22,162.13l3.16,3.5,3.16-3.5,3.16,3.5,3.89-5.39-3.89-5.39h-19.68c-1.75-3.56-5.1-5.93-8.99-5.93-5.64,0-10.21,5.06-10.21,11.31s4.57,11.31,10.21,11.31c3.89,0,7.24-2.37,8.99-5.93h3.16l1.94-2.16,1.94,2.16,3.16-3.5h0ZM1014.65,163.48c-1.6,0-2.92-1.45-2.92-3.23s1.31-3.23,2.92-3.23,2.92,1.45,2.92,3.23-1.31,3.23-2.92,3.23h0Z"/>
          <g>
            <path class="coin-cls-16" d="M1030.92,122.6h-5.99v-1.02c0-1.09-.07-1.8-.21-2.13s-.43-.5-.89-.5c-.37,0-.64.14-.82.43-.18.29-.27.72-.27,1.3,0,.97.19,1.64.56,2.03.37.39,1.44,1.14,3.23,2.25,1.52.94,2.56,1.67,3.11,2.17s1.02,1.21,1.4,2.13c.38.92.57,2.06.57,3.44,0,2.19-.51,3.92-1.54,5.16-1.03,1.25-2.57,2.02-4.62,2.32v2.32h-2.76v-2.39c-1.6-.16-3-.79-4.2-1.9-1.2-1.1-1.79-3.02-1.79-5.77v-1.2h5.99v1.51c0,1.66.06,2.68.18,3.08.12.4.42.6.9.6.4,0,.71-.14.9-.42.2-.28.3-.69.3-1.24,0-1.38-.09-2.37-.28-2.96-.19-.59-.83-1.24-1.93-1.94-1.83-1.18-3.07-2.04-3.73-2.6-.66-.55-1.23-1.33-1.7-2.34-.48-1.01-.72-2.14-.72-3.41,0-1.84.51-3.28,1.52-4.33s2.53-1.69,4.56-1.93v-1.96h2.76v1.96c1.85.24,3.23.88,4.15,1.91.92,1.03,1.38,2.46,1.38,4.27,0,.25-.02.64-.06,1.16Z"/>
            <path class="coin-cls-16" d="M1042.74,115.41v24.66h-5.99v-13.22c0-1.91-.04-3.06-.13-3.44s-.33-.68-.73-.88-1.29-.3-2.68-.3h-.59v-2.88c2.9-.64,5.09-1.96,6.6-3.95h3.53Z"/>
          </g>
        </g>
      </g>
      <g>
        <g>
          <g class="coin-cls-24">
            <ellipse class="coin-cls-28" cx="1128.23" cy="241.64" rx="36.69" ry="37.78"/>
            <ellipse class="coin-cls-8" cx="1128.23" cy="241.64" rx="36.69" ry="37.78"/>
          </g>
          <path class="coin-cls-16" d="M1129.04,265.19v2.27h-1.62v-2.27c-1.37-.5-2.22-2.31-1.11-4.19,2.02-1.84,4.35-.32,4.35,1.74,0,1.11-.69,2.06-1.62,2.44h0ZM1122.16,249.46c0-5.61,6.75-9.52,12.15-3.13v7.89s-6.07-.47-6.07-.47l-6.07.47v-4.76h0ZM1136.74,254.39v-4.93c0-4.97-3.81-9-8.5-9s-8.5,4.03-8.5,9v4.93l-2.83.21v16.28l11.34.86,11.34-.86v-16.28l-2.83-.21h0Z"/>
          <g>
            <path class="coin-cls-16" d="M1128.99,218.86h-6.01v-1.01c0-1.08-.07-1.79-.21-2.12-.14-.33-.44-.5-.89-.5-.37,0-.64.14-.83.43s-.28.72-.28,1.29c0,.96.19,1.63.57,2.01.37.38,1.45,1.13,3.24,2.24,1.53.94,2.57,1.66,3.12,2.16.56.5,1.02,1.21,1.41,2.12.38.91.57,2.05.57,3.41,0,2.18-.52,3.89-1.55,5.13s-2.58,2.01-4.64,2.3v2.3h-2.77v-2.38c-1.61-.16-3.01-.79-4.21-1.88-1.2-1.09-1.8-3-1.8-5.73v-1.2h6.01v1.5c0,1.64.06,2.66.19,3.06s.42.6.9.6c.41,0,.71-.14.91-.42.2-.28.3-.69.3-1.23,0-1.37-.09-2.35-.28-2.94s-.83-1.23-1.93-1.93c-1.83-1.17-3.08-2.03-3.74-2.58-.66-.55-1.23-1.32-1.71-2.32-.48-1-.72-2.13-.72-3.39,0-1.83.51-3.26,1.52-4.3,1.02-1.04,2.54-1.68,4.57-1.92v-1.95h2.77v1.95c1.85.24,3.24.88,4.17,1.9.92,1.02,1.38,2.44,1.38,4.24,0,.25-.02.63-.06,1.15Z"/>
            <path class="coin-cls-16" d="M1144.53,232.04v4.17h-13.22v-3.49c3.92-6.51,6.25-10.54,6.99-12.09.74-1.55,1.11-2.75,1.11-3.62,0-.67-.11-1.16-.33-1.49-.22-.33-.56-.49-1.02-.49s-.8.18-1.02.54c-.22.36-.34,1.08-.34,2.16v2.33h-5.38v-.89c0-1.37.07-2.45.21-3.25.14-.79.48-1.57,1.03-2.34.54-.77,1.25-1.35,2.13-1.74.87-.39,1.92-.59,3.14-.59,2.39,0,4.2.6,5.42,1.81s1.84,2.73,1.84,4.58c0,1.4-.34,2.88-1.03,4.45-.69,1.56-2.72,4.88-6.09,9.95h6.59Z"/>
          </g>
        </g>
        <g>
          <g class="coin-cls-22">
            <circle class="coin-cls-28" cx="1030.41" cy="241.91" r="38.05"/>
            <circle class="coin-cls-8" cx="1030.41" cy="241.91" r="38.05"/>
          </g>
          <path class="coin-cls-16" d="M1040.52,259.43l3.16,3.5,3.16-3.5,3.16,3.5,3.89-5.39-3.89-5.39h-19.68c-1.75-3.56-5.1-5.93-8.99-5.93-5.64,0-10.21,5.06-10.21,11.31s4.57,11.31,10.21,11.31c3.89,0,7.24-2.37,8.99-5.93h3.16l1.94-2.16,1.94,2.16,3.16-3.5h0ZM1016.95,260.77c-1.6,0-2.92-1.45-2.92-3.23s1.31-3.23,2.92-3.23,2.92,1.45,2.92,3.23-1.31,3.23-2.92,3.23h0Z"/>
          <g>
            <path class="coin-cls-16" d="M1030.23,219.89h-5.99v-1.02c0-1.09-.07-1.8-.21-2.13s-.43-.5-.89-.5c-.37,0-.64.14-.82.43-.18.29-.27.72-.27,1.3,0,.97.19,1.64.56,2.03.37.39,1.44,1.14,3.23,2.25,1.52.94,2.56,1.67,3.11,2.17s1.02,1.21,1.4,2.13c.38.92.57,2.06.57,3.44,0,2.19-.51,3.92-1.54,5.16-1.03,1.25-2.57,2.02-4.62,2.32v2.32h-2.76v-2.39c-1.6-.16-3-.79-4.2-1.9-1.2-1.1-1.79-3.02-1.79-5.77v-1.2h5.99v1.51c0,1.66.06,2.68.18,3.08.12.4.42.6.9.6.4,0,.71-.14.9-.42.2-.28.3-.69.3-1.24,0-1.38-.09-2.37-.28-2.96-.19-.59-.83-1.24-1.93-1.94-1.83-1.18-3.07-2.04-3.73-2.6-.66-.55-1.23-1.33-1.7-2.34-.48-1.01-.72-2.14-.72-3.41,0-1.84.51-3.28,1.52-4.33s2.53-1.69,4.56-1.93v-1.96h2.76v1.96c1.85.24,3.23.88,4.15,1.91.92,1.03,1.38,2.46,1.38,4.27,0,.25-.02.64-.06,1.16Z"/>
            <path class="coin-cls-16" d="M1045.72,233.16v4.21h-13.18v-3.52c3.91-6.56,6.23-10.62,6.96-12.18.74-1.56,1.1-2.77,1.1-3.65,0-.67-.11-1.17-.33-1.5s-.56-.5-1.02-.5-.79.18-1.02.55c-.22.37-.33,1.09-.33,2.18v2.35h-5.37v-.9c0-1.38.07-2.47.21-3.27s.48-1.58,1.02-2.35c.54-.77,1.25-1.36,2.12-1.75.87-.4,1.91-.59,3.13-.59,2.38,0,4.18.61,5.4,1.82,1.22,1.21,1.83,2.75,1.83,4.61,0,1.41-.34,2.91-1.03,4.48-.69,1.57-2.71,4.92-6.07,10.02h6.57Z"/>
          </g>
        </g>
      </g>
      <text class="coin-cls-17" transform="translate(1121.2077 306.3854) rotate(90) scale(1.0313 1)"><tspan x="0" y="0">...</tspan></text>
      <text class="coin-cls-17" transform="translate(1030.6843 307.4313) rotate(90) scale(1.0313 1)"><tspan x="0" y="0">...</tspan></text>
      <text class="coin-cls-15" transform="translate(984.41 81.4) scale(.97 1)"><tspan x="0" y="0">De</tspan><tspan class="coin-cls-51" x="36.06" y="0">n</tspan><tspan x="53.31" y="0">ominations</tspan></text>
    </g>
    </g>
</svg>