<?xml version="1.0" encoding="UTF-8"?>
<svg id="Layer_2" data-name="Layer 2" xmlns="http://www.w3.org/2000/svg" xmlns:xlink="http://www.w3.org/1999/xlink" viewBox="0 0 1181.75 624.36">
  <defs>
    <style>
      .pay-cls-1 {
        filter: url(#dropshadow-5);
      }

      .pay-cls-2, .pay-cls-3, .pay-cls-4, .pay-cls-5 {
        font-family: Montserrat-Regular, Montserrat;
      }

      .pay-cls-6 {
        filter: url(#dropshadow2-4);
      }

      .pay-cls-7 {
        stroke: #0042b3;
      }

      .pay-cls-7, .pay-cls-8, .pay-cls-9, .pay-cls-10 {
        stroke-miterlimit: 10;
        stroke-width: 2px;
      }

      .pay-cls-7, .pay-cls-8, .pay-cls-9, .pay-cls-10, .pay-cls-11 {
        fill: none;
      }

      .pay-cls-12 {
        letter-spacing: -.02em;
      }

      .pay-cls-13 {
        letter-spacing: 0em;
      }

      .pay-cls-14 {
        letter-spacing: -.02em;
      }

      .pay-cls-15 {
        fill: #fbd63b;
      }

      .pay-cls-16 {
        fill: #0042b3;
      }

      .pay-cls-17 {
        fill: #fff;
      }

      .pay-cls-18 {
        letter-spacing: 0em;
      }

      .pay-cls-19 {
        letter-spacing: 0em;
      }

      .pay-cls-3 {
        font-size: 15.46px;
      }

      .pay-cls-4 {
        font-size: 19.65px;
      }

      .pay-cls-20 {
        filter: url(#dropshadow-4);
      }

      .pay-cls-21 {
        filter: url(#dropshadow2);
      }

      .pay-cls-22, .pay-cls-23, .pay-cls-24, .pay-cls-25 {
        fill: #0042b3;
      }

      .pay-cls-26 {
        letter-spacing: 0em;
      }

      .pay-cls-27 {
        filter: url(#dropshadow-3);
      }

      .pay-cls-28 {
        filter: url(#dropshadow);
      }

      .pay-cls-23, .pay-cls-25 {
        font-size: 24px;
      }

      .pay-cls-29 {
        opacity: .36;
      }

      .pay-cls-30 {
        filter: url(#dropshadow2-2);
      }

      .pay-cls-31 {
        letter-spacing: 0em;
      }

      .pay-cls-32 {
        filter: url(#dropshadow-2);
      }

      .pay-cls-5 {
        font-size: 21.25px;
      }

      .pay-cls-33 {
        letter-spacing: 0em;
      }

      .pay-cls-34 {
        letter-spacing: -.01em;
      }

      .pay-cls-35 {
        letter-spacing: 0em;
      }

      .pay-cls-36 {
        filter: url(#dropshadow2-3);
      }

      .pay-cls-37 {
        letter-spacing: -.01em;
      }

      .pay-cls-8 {
        stroke: #fff;
      }

      .pay-cls-24 {
        opacity: .2;
      }

      .pay-cls-38 {
        letter-spacing: 0em;
      }

      .pay-cls-39 {
        letter-spacing: 0em;
      }

      .pay-cls-40, .pay-cls-25 {
        font-family: Montserrat-Bold, Montserrat;
        font-weight: 700;
      }

      .pay-cls-41 {
        letter-spacing: 0em;
      }

      .pay-cls-9, .pay-cls-11 {
        stroke: #0042b3;
      }

      .pay-cls-42 {
        letter-spacing: 0em;
      }

      .pay-cls-10 {
        stroke: #fbd63b;
      }

      .pay-cls-11 {
        stroke-linecap: square;
        stroke-width: 2.3px;
      }

      .pay-cls-43 {
        fill: #fbd63b;
      }

      .pay-cls-44 {
        filter: url(#dropshadow-6);
      }

      .pay-cls-45 {
        letter-spacing: -.02em;
      }

      .pay-cls-46 {
        filter: url(#dropshadow2-5);
      }
    </style>
    <filter id="dropshadow">
      <feGaussianBlur in="SourceAlpha" stdDeviation="5"/>
      <feOffset dx="5" dy="5"/>
      <feComponentTransfer>
        <feFuncA slope="0.5" type="linear"/>
      </feComponentTransfer>
      <feMerge>
        <feMergeNode/>
        <feMergeNode in="SourceGraphic"/>
      </feMerge>
    </filter>
    <filter id="dropshadow2">
      <feGaussianBlur in="SourceAlpha" stdDeviation="2"/>
      <feOffset dx="3" dy="3"/>
      <feComponentTransfer>
        <feFuncA slope="0.5" type="linear"/>
      </feComponentTransfer>
      <feMerge>
        <feMergeNode/>
        <feMergeNode in="SourceGraphic"/>
      </feMerge>
    </filter>
    <filter id="dropshadow2-2" data-name="dropshadow2">
      <feGaussianBlur in="SourceAlpha" stdDeviation="2"/>
      <feOffset dx="3" dy="3"/>
      <feComponentTransfer>
        <feFuncA slope="0.5" type="linear"/>
      </feComponentTransfer>
      <feMerge>
        <feMergeNode/>
        <feMergeNode in="SourceGraphic"/>
      </feMerge>
    </filter>
    <filter id="dropshadow2-3" data-name="dropshadow2">
      <feGaussianBlur in="SourceAlpha" stdDeviation="2"/>
      <feOffset dx="3" dy="3"/>
      <feComponentTransfer>
        <feFuncA slope="0.5" type="linear"/>
      </feComponentTransfer>
      <feMerge>
        <feMergeNode/>
        <feMergeNode in="SourceGraphic"/>
      </feMerge>
    </filter>
    <filter id="dropshadow-2" data-name="dropshadow">
      <feGaussianBlur in="SourceAlpha" stdDeviation="5"/>
      <feOffset dx="5" dy="5"/>
      <feComponentTransfer>
        <feFuncA slope="0.5" type="linear"/>
      </feComponentTransfer>
      <feMerge>
        <feMergeNode/>
        <feMergeNode in="SourceGraphic"/>
      </feMerge>
    </filter>
    <filter id="dropshadow2-4" data-name="dropshadow2">
      <feGaussianBlur in="SourceAlpha" stdDeviation="2"/>
      <feOffset dx="3" dy="3"/>
      <feComponentTransfer>
        <feFuncA slope="0.5" type="linear"/>
      </feComponentTransfer>
      <feMerge>
        <feMergeNode/>
        <feMergeNode in="SourceGraphic"/>
      </feMerge>
    </filter>
    <filter id="dropshadow-3" data-name="dropshadow">
      <feGaussianBlur in="SourceAlpha" stdDeviation="5"/>
      <feOffset dx="5" dy="5"/>
      <feComponentTransfer>
        <feFuncA slope="0.5" type="linear"/>
      </feComponentTransfer>
      <feMerge>
        <feMergeNode/>
        <feMergeNode in="SourceGraphic"/>
      </feMerge>
    </filter>
    <filter id="dropshadow-4" data-name="dropshadow">
      <feGaussianBlur in="SourceAlpha" stdDeviation="5"/>
      <feOffset dx="5" dy="5"/>
      <feComponentTransfer>
        <feFuncA slope="0.5" type="linear"/>
      </feComponentTransfer>
      <feMerge>
        <feMergeNode/>
        <feMergeNode in="SourceGraphic"/>
      </feMerge>
    </filter>
    <filter id="dropshadow-5" data-name="dropshadow">
      <feGaussianBlur in="SourceAlpha" stdDeviation="5"/>
      <feOffset dx="5" dy="5"/>
      <feComponentTransfer>
        <feFuncA slope="0.5" type="linear"/>
      </feComponentTransfer>
      <feMerge>
        <feMergeNode/>
        <feMergeNode in="SourceGraphic"/>
      </feMerge>
    </filter>
    <filter id="dropshadow-6" data-name="dropshadow">
      <feGaussianBlur in="SourceAlpha" stdDeviation="5"/>
      <feOffset dx="5" dy="5"/>
      <feComponentTransfer>
        <feFuncA slope="0.5" type="linear"/>
      </feComponentTransfer>
      <feMerge>
        <feMergeNode/>
        <feMergeNode in="SourceGraphic"/>
      </feMerge>
    </filter>
    <filter id="dropshadow2-5" data-name="dropshadow2">
      <feGaussianBlur in="SourceAlpha" stdDeviation="2"/>
      <feOffset dx="3" dy="3"/>
      <feComponentTransfer>
        <feFuncA slope="0.5" type="linear"/>
      </feComponentTransfer>
      <feMerge>
        <feMergeNode/>
        <feMergeNode in="SourceGraphic"/>
      </feMerge>
    </filter>
  </defs>
  <g id="Spend">
    <g id="purchase">
      <g id="pay" class="fragment fade">
        <rect class="pay-cls-24" x="611.23" y="121.64" width="570.52" height="502.72" rx="51.3" ry="51.3"/>
        <g>
          <g class="pay-cls-28">
            <ellipse class="pay-cls-17" cx="1055.58" cy="241.53" rx="69.21" ry="69.41"/>
          </g>
          <text class="pay-cls-3" transform="translate(1019.5807 285.7966)"><tspan x="0" y="0">Me</tspan><tspan class="pay-cls-34" x="24.1" y="0">r</tspan><tspan class="pay-cls-13" x="30.1" y="0">c</tspan><tspan x="38.68" y="0">hant</tspan></text>
          <g>
            <path class="pay-cls-22" d="M1040.79,213.67c0,.49-.4.9-.9.9s-.9-.4-.9-.9.4-.9.9-.9.9.4.9.9h0Z"/>
            <path class="pay-cls-22" d="M1038.09,216.36c0,.49-.4.9-.9.9s-.9-.4-.9-.9.4-.9.9-.9.9.4.9.9h0Z"/>
            <path class="pay-cls-22" d="M1059.68,216.36c0,.49-.4.9-.9.9s-.9-.4-.9-.9.4-.9.9-.9.9.4.9.9h0Z"/>
            <path class="pay-cls-22" d="M1062.38,213.67c0,.49-.4.9-.9.9s-.9-.4-.9-.9.4-.9.9-.9.9.4.9.9h0Z"/>
            <path class="pay-cls-22" d="M1065.08,216.36c0,.49-.4.9-.9.9s-.9-.4-.9-.9.4-.9.9-.9.9.4.9.9h0Z"/>
            <path class="pay-cls-22" d="M1054.28,221.73c0,.49-.4.9-.9.9s-.9-.4-.9-.9.4-.9.9-.9.9.4.9.9h0Z"/>
            <path class="pay-cls-22" d="M1048.88,221.73c0,.49-.4.9-.9.9s-.9-.4-.9-.9.4-.9.9-.9.9.4.9.9h0Z"/>
            <path class="pay-cls-22" d="M1075.88,221.73c0,.49-.4.9-.9.9s-.9-.4-.9-.9.4-.9.9-.9.9.4.9.9h0Z"/>
            <path class="pay-cls-22" d="M1051.58,224.41c0,.49-.4.9-.9.9s-.9-.4-.9-.9.4-.9.9-.9.9.4.9.9h0Z"/>
            <path class="pay-cls-22" d="M1054.28,227.1c0,.49-.4.9-.9.9s-.9-.4-.9-.9.4-.9.9-.9.9.4.9.9h0Z"/>
            <path class="pay-cls-22" d="M1046.18,224.41c0,.49-.4.9-.9.9s-.9-.4-.9-.9.4-.9.9-.9.9.4.9.9h0Z"/>
            <path class="pay-cls-22" d="M1048.88,227.1c0,.49-.4.9-.9.9s-.9-.4-.9-.9.4-.9.9-.9.9.4.9.9h0Z"/>
            <path class="pay-cls-22" d="M1078.58,224.41c0,.49-.4.9-.9.9s-.9-.4-.9-.9.4-.9.9-.9.9.4.9.9h0Z"/>
            <path class="pay-cls-22" d="M1073.18,224.41c0,.49-.4.9-.9.9s-.9-.4-.9-.9.4-.9.9-.9.9.4.9.9h0Z"/>
            <path class="pay-cls-22" d="M1075.88,227.1c0,.49-.4.9-.9.9s-.9-.4-.9-.9.4-.9.9-.9.9.4.9.9h0Z"/>
            <path class="pay-cls-22" d="M1082.17,219.17c0-.14-.03-.27-.08-.39,0-.09-.02-.17-.04-.26l-3.71-8.05c-.6-1.3-1.92-2.14-3.36-2.14h-37.8c-1.44,0-2.76.84-3.36,2.14l-3.66,7.9-.05.13c-.04.12-.04.25-.03.37-.06.14-.09.29-.09.45v6.01c0,1.25.33,2.43.9,3.46v6.58c-.41.45-.72,1.01-.84,1.64-.1.53-.07,1.1.09,1.64.09.29.02.65-.19.95-.94,1.39-1.13,3.32-.48,4.81.1.23.22.44.37.63.21.28.28.65.2.99-.05.18-.08.37-.1.56-.07.8.09,1.58.22,2.21.14.66.35,1.65,1.09,2.29.4.34.88.52,1.42.55v3.25h-2.64l-.46.02-.55.68,1.08,6.47h51.15v-33.24c.57-1.03.9-2.2.9-3.46v-6.17h0ZM1079.69,227.95c-.03.05-.06.1-.1.16-.12.2-.25.38-.39.56,0,0,0,0,0,0-.14.17-.29.34-.44.49-.03.03-.07.06-.1.09-.05.05-.11.09-.16.14-.14-.3-.45-.52-.81-.52-.5,0-.9.4-.9.9,0,.21.08.39.2.54-.05.02-.1.04-.15.05-.12.04-.23.08-.35.12-.08.02-.17.04-.25.06-.13.03-.26.06-.4.08-.07.01-.14.02-.21.03-.21.03-.42.04-.64.04-.71,0-1.38-.14-2-.39.12-.15.2-.33.2-.54,0-.49-.4-.9-.9-.9-.36,0-.67.22-.81.52-.53-.46-.98-1.02-1.3-1.65.19-.16.31-.4.31-.67,0-.47-.36-.84-.82-.88-.05-.29-.08-.58-.08-.88v-2.72c.5,0,.9-.4.9-.9s-.4-.9-.9-.9v-.86h10.8v.86c-.5,0-.9.4-.9.9s.4.9.9.9v2.72c0,.3-.03.59-.08.88-.46.04-.82.41-.82.88,0,.27.12.5.31.67-.02.04-.04.09-.06.13l-.03.06h0ZM1050.68,228.89c-.5,0-.9.4-.9.9,0,.45.33.8.76.87-.25.03-.5.06-.76.06-2.98,0-5.4-2.41-5.4-5.37v-5.37h10.8v5.37c0,2.49-1.72,4.59-4.03,5.19.26-.16.43-.43.43-.75,0-.5-.4-.9-.9-.9h0ZM1036.55,230.67c-.07,0-.14-.02-.21-.03-.13-.02-.27-.05-.4-.08-.08-.02-.17-.04-.25-.06-.12-.03-.24-.08-.35-.12-.08-.03-.16-.05-.24-.09-.17-.07-.34-.15-.5-.24-.08-.04-.16-.1-.24-.15-.1-.06-.19-.12-.29-.19-.07-.05-.14-.1-.21-.16-.12-.09-.24-.19-.35-.3-.03-.03-.07-.06-.1-.09-.16-.15-.31-.32-.45-.49,0,0,0,0,0,0-.14-.18-.27-.37-.39-.56-.03-.05-.07-.1-.1-.16l-.03-.06c-.42-.76-.65-1.63-.65-2.55v-5.37h10.8v5.37c0,2.96-2.42,5.37-5.4,5.37-.22,0-.43-.02-.64-.04h0ZM1056.98,219.97h10.8v5.37c0,2.96-2.42,5.37-5.4,5.37s-5.4-2.41-5.4-5.37v-5.37h0ZM1074.98,210.12c.74,0,1.42.43,1.73,1.1l3.21,6.95h-10.49l-.74-4.03-.74-4.03h7.02ZM1056.98,210.12h1.63c-.41.08-.73.43-.73.86,0,.49.4.9.9.9s.9-.4.9-.9c0-.44-.32-.78-.73-.86h5.07c-.41.08-.73.43-.73.86,0,.49.4.9.9.9s.9-.4.9-.9c0-.44-.32-.78-.73-.86h1.78l.49,2.7c-.37.11-.64.44-.64.84,0,.49.4.9.9.9.02,0,.04-.01.06-.01l.66,3.63h-10.62v-8.06h0ZM1046.04,210.12h9.15v8.06h-10.62l.74-4.03.74-4.03h0ZM1033.99,214.4c.14.1.31.17.5.17.5,0,.9-.4.9-.9,0-.41-.29-.75-.67-.85l.74-1.6c.26-.55.77-.93,1.36-1.05-.31.14-.53.45-.53.81,0,.49.4.9.9.9s.9-.4.9-.9c0-.44-.32-.78-.73-.86h5.07c-.41.08-.73.43-.73.86,0,.49.4.9.9.9s.9-.4.9-.9c0-.44-.32-.78-.73-.86h1.45l-.74,4.03-.28,1.55c-.16-.15-.37-.24-.6-.24-.5,0-.9.4-.9.9s.4.9.9.9c.12,0,.23-.03.33-.07l-.18.99h-10.5l1.75-3.78h0ZM1031.94,248.44c-.11-.53-.24-1.14-.19-1.67,0-.1.02-.19.05-.29.21-.85.03-1.79-.5-2.49-.06-.09-.12-.18-.17-.28-.41-.93-.28-2.2.32-3.09.51-.75.66-1.65.42-2.46-.08-.26-.09-.55-.05-.8.06-.34.24-.65.47-.86l.06-.05c.09-.07.16-.12.23-.15l.82-.66c.06-.07.14-.11.23-.15.02,0,.04-.02.06-.02.17-.06.35-.07.5-.07.09,0,.18,0,.24.02.33.05.62.15.87.31l.2.16c.09.08.17.15.24.23.06.08.13.16.18.25.14.27.18.63.11.94-.17.8.03,1.66.56,2.29.11.13.19.3.22.47.02.11.03.23.03.35,0,.37-.1.81-.31,1.33h0c-.17.44-.37.81-.59,1.11-.44.6-.6,1.39-.47,2.19.04.26.12.53.23.78.11.24.17.52.18.8.02.28-.01.56-.09.82-.04.14-.1.28-.16.41-.12.26-.29.5-.49.73,0,0-.02.02-.03.03-.09.1-.19.2-.3.3-.36.32-.73.54-1,.68,0,0,0,0-.01,0-.14.07-.29.13-.44.18-.36.12-.71.15-.92-.02-.28-.24-.41-.88-.5-1.3h0ZM1035.53,260.26h-3.87l-.6-3.58h5.07l-.6,3.58h0ZM1034.49,254.88v-3.64c.05-.02.1-.05.15-.07.5-.26.95-.57,1.35-.92h0s.01-.01.02-.02c.17-.15.33-.31.48-.48.02-.03.04-.05.06-.08.11-.13.22-.27.32-.41.04-.06.08-.13.12-.19.07-.12.14-.24.2-.36.03-.06.07-.13.1-.19.08-.18.16-.37.22-.57.07-.23.12-.47.14-.71.03-.24.03-.49.02-.73-.03-.49-.14-.97-.33-1.41-.19-.44-.18-.91.04-1.21.09-.12.17-.26.25-.4.2-.33.39-.69.56-1.1.41-1.02.53-1.9.37-2.69-.09-.46-.3-.9-.6-1.26-.17-.2-.24-.51-.18-.77.05-.23.06-.47.06-.71,0-.06,0-.12,0-.18-.01-.21-.04-.42-.1-.62,0-.02,0-.05-.01-.07h20.16v18.8h-23.39ZM1063.28,260.26v-24.17h12.6v24.17h-12.6ZM1079.47,260.26h-1.8v-25.96h-16.2v25.96h-24.13l.6-3.58h21.73v-22.38h-23.29c-.49-.34-1.08-.57-1.72-.66-.23-.03-.46-.04-.68-.03-.06,0-.12,0-.17.01-.17.01-.33.04-.49.08-.05.01-.09.02-.14.03-.18.05-.35.12-.51.2v-2.99c.52.41,1.09.75,1.7,1,0,0,0,0,0,0,.2.08.4.16.61.22.04.01.07.02.11.03.18.05.35.1.53.14.05.01.11.02.16.03.17.03.34.06.51.08.06,0,.12.02.18.02.23.02.46.03.69.03.3,0,.6-.03.9-.06.08-.01.17-.03.25-.04.22-.04.44-.08.66-.14.07-.02.15-.04.22-.06.28-.08.55-.17.81-.29.04-.02.08-.04.12-.06.22-.1.44-.21.65-.33.07-.04.14-.09.21-.13.19-.12.37-.25.55-.38.05-.04.1-.07.15-.11.22-.18.43-.36.62-.56.04-.04.08-.09.13-.14.15-.16.3-.33.43-.51.05-.07.1-.13.15-.2.14-.2.27-.4.39-.61.02-.03.04-.06.06-.09.02.03.04.06.06.09.12.21.25.41.39.61.05.07.1.13.15.2.14.18.28.35.43.51.04.05.08.09.13.14.2.2.4.39.62.56.05.04.1.07.15.11.18.14.36.26.55.38.07.04.14.09.21.13.21.12.43.23.65.33.04.02.08.04.12.06.26.11.53.21.81.29.07.02.15.04.22.06.22.06.43.1.66.14.08.01.17.03.25.04.29.04.59.06.89.06s.6-.03.9-.06c.08-.01.17-.03.25-.04.22-.04.44-.08.66-.14.07-.02.15-.04.22-.06.28-.08.55-.17.81-.29.04-.02.08-.04.12-.06.22-.1.44-.21.65-.33.07-.04.14-.09.21-.13.19-.12.37-.25.55-.38.05-.04.1-.07.15-.11.22-.18.43-.36.62-.56.04-.04.08-.09.13-.14.15-.16.3-.33.43-.51.05-.07.1-.13.15-.2.14-.2.27-.4.39-.61.02-.03.04-.06.06-.09.02.03.04.06.06.09.12.21.25.41.39.61.05.07.1.13.15.2.14.18.28.35.43.51.04.05.08.09.13.14.2.2.4.39.62.56.05.04.1.07.15.11.18.14.36.26.55.38.07.04.14.09.21.13.21.12.43.23.65.33.04.02.08.04.12.06.26.11.53.21.81.29.07.02.15.04.22.06.22.06.43.1.66.14.08.01.17.03.25.04.29.04.59.06.89.06s.6-.03.9-.06c.08-.01.17-.03.25-.04.22-.04.44-.08.66-.14.07-.02.15-.04.22-.06.28-.08.55-.17.81-.29.04-.02.08-.04.12-.06.22-.1.44-.21.65-.33.07-.04.14-.09.21-.13.19-.12.37-.25.55-.38.05-.04.1-.07.15-.11.22-.18.43-.36.62-.56.04-.04.08-.09.13-.14.15-.16.3-.33.43-.51.05-.07.1-.13.15-.2.14-.2.27-.4.39-.61.02-.03.04-.06.06-.09.02.03.04.06.06.09.12.21.25.41.39.61.05.07.1.13.15.2.14.18.28.35.43.51.04.05.08.09.13.14.2.2.4.39.62.56.05.04.1.07.15.11.18.14.36.26.55.38.07.04.14.09.21.13.21.12.43.23.65.33.04.02.08.04.12.06.26.11.53.21.81.29.07.02.15.04.22.06.22.06.43.1.66.14.08.01.17.03.25.04.29.04.59.06.89.06.23,0,.46-.01.69-.03.06,0,.12-.02.18-.02.17-.02.34-.05.51-.08.05-.01.11-.02.16-.03.18-.04.36-.09.53-.14.04-.01.07-.02.11-.03.21-.07.41-.14.61-.22,0,0,0,0,0,0,.61-.26,1.18-.59,1.7-1v29.32h0Z"/>
            <path class="pay-cls-22" d="M1073.18,246.83c-.5,0-.9.4-.9.9v2.69c0,.5.4.9.9.9s.9-.4.9-.9v-2.69c0-.5-.4-.9-.9-.9h0Z"/>
            <path class="pay-cls-22" d="M1045.29,243.25c.23,0,.46-.09.64-.26l3.6-3.58c.35-.35.35-.92,0-1.27-.35-.35-.92-.35-1.27,0l-3.6,3.58c-.35.35-.35.92,0,1.27.18.17.41.26.64.26h0Z"/>
            <path class="pay-cls-22" d="M1045.29,252.2c.23,0,.46-.09.64-.26l8.1-8.06c.35-.35.35-.92,0-1.27-.35-.35-.92-.35-1.27,0l-8.1,8.06c-.35.35-.35.92,0,1.27.18.17.41.26.64.26h0Z"/>
            <path class="pay-cls-22" d="M1050.05,242.09c.18.17.41.26.64.26s.46-.09.64-.26l2.7-2.69c.35-.35.35-.92,0-1.27-.35-.35-.92-.35-1.27,0l-2.7,2.69c-.35.35-.35.92,0,1.27h0Z"/>
            <path class="pay-cls-22" d="M1045.29,247.72c.23,0,.46-.09.64-.26l1.8-1.79c.35-.35.35-.92,0-1.27-.35-.35-.92-.35-1.27,0l-1.8,1.79c-.35.35-.35.92,0,1.27.18.17.41.26.64.26h0Z"/>
            <path class="pay-cls-22" d="M1048.25,242.61c-.16.17-.26.4-.26.64s.1.47.26.63c.17.17.39.27.64.27s.47-.1.64-.26c.16-.17.26-.4.26-.64s-.1-.47-.26-.64c-.33-.33-.94-.33-1.28,0h0Z"/>
            <path class="pay-cls-22" d="M1054.54,242.09c.17.16.4.26.64.26s.47-.1.64-.26c.16-.17.26-.4.26-.64s-.1-.47-.26-.64c-.33-.33-.94-.33-1.28,0-.16.17-.26.4-.26.64s.1.47.26.64h0Z"/>
          </g>
        </g>
        <g>
          <g>
            <line class="pay-cls-7" x1="961.04" y1="242.37" x2="840.24" y2="241.38"/>
            <path class="pay-cls-22" d="M947.45,232.66c-.3.46-.17,1.08.3,1.38l12.84,8.32-12.97,8.11c-.47.29-.61.91-.32,1.38s.91.61,1.38.32l14.3-8.95c.29-.18.47-.5.47-.84s-.17-.66-.46-.85l-14.16-9.18c-.17-.11-.35-.16-.53-.16-.33,0-.65.16-.85.46Z"/>
          </g>
          <g>
            <path class="pay-cls-22" d="M902.39,201.57h-10.01v-1.58c0-1.69-.12-2.79-.35-3.31-.23-.52-.73-.78-1.49-.78-.61,0-1.07.22-1.38.67s-.46,1.12-.46,2.02c0,1.5.31,2.54.94,3.14.61.6,2.41,1.76,5.4,3.5,2.54,1.46,4.28,2.59,5.2,3.37.92.78,1.7,1.88,2.34,3.31s.95,3.2.95,5.33c0,3.4-.86,6.07-2.58,8.01-1.72,1.94-4.29,3.13-7.73,3.59v3.59h-4.61v-3.71c-2.67-.25-5.01-1.23-7.01-2.94-2-1.71-3-4.69-3-8.94v-1.87h10.01v2.34c0,2.57.1,4.16.31,4.79.21.62.71.93,1.5.93.68,0,1.18-.22,1.51-.65s.5-1.08.5-1.93c0-2.14-.16-3.67-.47-4.6-.31-.92-1.39-1.93-3.22-3.01-3.05-1.83-5.13-3.17-6.23-4.03-1.1-.86-2.05-2.07-2.85-3.63-.8-1.56-1.2-3.32-1.2-5.29,0-2.85.85-5.09,2.54-6.71s4.23-2.62,7.62-3v-3.05h4.61v3.05c3.09.38,5.4,1.37,6.94,2.97,1.54,1.6,2.3,3.81,2.3,6.63,0,.39-.03.99-.1,1.8Z"/>
            <path class="pay-cls-22" d="M928.55,190.42v6.12h-12.41v6.5c1.55-1.75,3.55-2.62,5.99-2.62,2.76,0,4.84.74,6.25,2.21,1.41,1.47,2.12,4.3,2.12,8.5v5.46c0,2.71-.14,4.7-.41,5.97-.27,1.27-.85,2.44-1.75,3.52-.89,1.08-2.13,1.91-3.73,2.48-1.59.57-3.54.86-5.83.86-2.58,0-4.85-.43-6.81-1.29-1.96-.86-3.36-2.14-4.19-3.84-.83-1.7-1.24-4.33-1.24-7.89v-2.08h10.01v2.39c0,2.47.09,4.23.27,5.27.18,1.04.81,1.56,1.88,1.56.5,0,.9-.15,1.2-.45.3-.3.47-.62.5-.97.02-.35.05-1.85.09-4.51v-7.59c0-1.43-.16-2.41-.47-2.93-.31-.52-.83-.78-1.56-.78-.46,0-.85.13-1.16.4-.31.27-.52.56-.61.86-.09.31-.14,1.02-.14,2.14h-9.91l.42-19.28h21.47Z"/>
          </g>
          <g>
            <text class="pay-cls-23" transform="translate(838.32 20.4)"><tspan class="pay-cls-2"><tspan x="0" y="0">User signs</tspan></tspan><tspan class="pay-cls-40"><tspan class="pay-cls-35" x="-31.52" y="28.8">c</tspan><tspan x="-17.51" y="28.8">ont</tspan><tspan class="pay-cls-42" x="25.24" y="28.8">r</tspan><tspan class="pay-cls-39" x="35.41" y="28.8">a</tspan><tspan class="pay-cls-41" x="50.36" y="28.8">c</tspan><tspan x="64.74" y="28.8">t </tspan><tspan class="pay-cls-14" x="81.97" y="28.8">t</tspan><tspan x="92" y="28.8">e</tspan><tspan class="pay-cls-26" x="107.15" y="28.8">r</tspan><tspan x="117.39" y="28.8">ms</tspan></tspan><tspan class="pay-cls-2"><tspan x="35.12" y="57.6">with</tspan></tspan></text>
            <g>
              <g class="pay-cls-21">
                <rect class="pay-cls-17" x="819.45" y="93.75" width="155.97" height="82.84" rx="14.85" ry="14.85"/>
                <rect class="pay-cls-9" x="819.45" y="93.75" width="155.97" height="82.84" rx="14.85" ry="14.85"/>
              </g>
              <g>
                <g class="pay-cls-30">
                  <ellipse class="pay-cls-17" cx="926.75" cy="135.17" rx="29.31" ry="28.77"/>
                  <ellipse class="pay-cls-10" cx="926.75" cy="135.17" rx="29.31" ry="28.77"/>
                </g>
                <path class="pay-cls-15" d="M935.91,136.9l3.13,3.23,3.13-3.23,3.13,3.23,3.85-4.97-3.85-4.97h-19.51c-1.73-3.28-5.06-5.46-8.91-5.46-5.59,0-10.12,4.67-10.12,10.43s4.53,10.43,10.12,10.43c3.85,0,7.18-2.19,8.91-5.46h3.13l1.93-1.99,1.93,1.99,3.13-3.23h0ZM912.55,138.15c-1.59,0-2.89-1.34-2.89-2.98s1.3-2.98,2.89-2.98,2.89,1.34,2.89,2.98-1.3,2.98-2.89,2.98h0Z"/>
              </g>
              <g>
                <g class="pay-cls-36">
                  <ellipse class="pay-cls-43" cx="858.43" cy="134.33" rx="29.97" ry="29.6"/>
                </g>
                <ellipse class="pay-cls-8" cx="858.57" cy="134.31" rx="26.85" ry="26.58"/>
                <g>
                  <path class="pay-cls-17" d="M851.97,130.66h-5.48v-.9c0-.96-.06-1.58-.19-1.88-.13-.29-.4-.44-.81-.44-.33,0-.59.13-.75.38-.17.25-.25.64-.25,1.15,0,.85.17,1.44.52,1.78.33.34,1.32,1,2.96,1.98,1.39.83,2.34,1.47,2.85,1.91.51.44.93,1.07,1.28,1.88.35.81.52,1.82.52,3.02,0,1.93-.47,3.44-1.41,4.54s-2.35,1.78-4.23,2.04v2.04h-2.52v-2.1c-1.46-.14-2.75-.7-3.84-1.67-1.09-.97-1.64-2.66-1.64-5.07v-1.06h5.48v1.33c0,1.46.06,2.36.17,2.71s.39.53.82.53c.37,0,.65-.12.83-.37.18-.25.27-.61.27-1.09,0-1.21-.09-2.08-.26-2.61-.17-.52-.76-1.09-1.76-1.71-1.67-1.04-2.81-1.8-3.41-2.29-.6-.49-1.12-1.17-1.56-2.06-.44-.88-.66-1.88-.66-3,0-1.62.46-2.88,1.39-3.8s2.32-1.49,4.17-1.7v-1.73h2.52v1.73c1.69.21,2.96.78,3.8,1.68s1.26,2.16,1.26,3.76c0,.22-.02.56-.05,1.02Z"/>
                  <path class="pay-cls-17" d="M862.78,124.34v21.69h-5.48v-11.63c0-1.68-.04-2.69-.12-3.03-.08-.34-.31-.6-.67-.77-.37-.17-1.18-.26-2.45-.26h-.54v-2.53c2.65-.56,4.66-1.72,6.04-3.47h3.23Z"/>
                  <path class="pay-cls-17" d="M877.83,131.68v7.24c0,1.64-.09,2.84-.27,3.59-.18.75-.56,1.45-1.12,2.1-.57.65-1.26,1.12-2.06,1.41-.8.29-1.7.43-2.7.43-1.31,0-2.4-.15-3.27-.45-.87-.3-1.56-.77-2.07-1.4-.52-.63-.88-1.3-1.1-2-.22-.7-.33-1.82-.33-3.34v-7.57c0-1.99.17-3.48.52-4.48.35-.99,1.04-1.79,2.08-2.38,1.04-.6,2.29-.9,3.76-.9,1.2,0,2.28.21,3.23.62.95.42,1.66.92,2.13,1.52.47.6.79,1.27.96,2.02s.25,1.95.25,3.59ZM872.35,129.86c0-1.15-.06-1.87-.17-2.16-.11-.29-.38-.44-.79-.44s-.68.15-.81.46c-.13.31-.2,1.02-.2,2.14v10.58c0,1.26.06,2.02.18,2.28.12.26.39.39.79.39s.67-.15.8-.46c.13-.3.19-.99.19-2.05v-10.75Z"/>
                </g>
              </g>
            </g>
          </g>
        </g>
        <g>
          <g class="pay-cls-32">
            <ellipse class="pay-cls-43" cx="742.48" cy="241.59" rx="70.38" ry="69.05"/>
          </g>
          <ellipse class="pay-cls-8" cx="742.82" cy="241.53" rx="63.05" ry="61.99"/>
          <g>
            <path class="pay-cls-17" d="M727.31,233.03h-12.87v-2.09c0-2.23-.15-3.69-.45-4.38-.3-.69-.93-1.03-1.91-1.03-.79,0-1.38.3-1.77.89-.39.59-.59,1.48-.59,2.67,0,1.98.4,3.37,1.21,4.16.79.79,3.1,2.33,6.94,4.62,3.27,1.94,5.5,3.42,6.69,4.45s2.19,2.49,3.01,4.38c.82,1.89,1.23,4.23,1.23,7.05,0,4.5-1.1,8.03-3.31,10.59-2.21,2.56-5.52,4.15-9.94,4.75v4.75h-5.92v-4.91c-3.44-.33-6.45-1.63-9.02-3.89-2.57-2.26-3.85-6.2-3.85-11.83v-2.47h12.87v3.09c0,3.4.13,5.51.4,6.33.27.82.91,1.23,1.93,1.23.87,0,1.52-.29,1.94-.86.42-.57.64-1.42.64-2.55,0-2.83-.2-4.86-.61-6.08s-1.78-2.55-4.14-3.98c-3.93-2.42-6.6-4.19-8.01-5.33-1.41-1.13-2.63-2.73-3.66-4.8-1.03-2.06-1.54-4.4-1.54-7,0-3.77,1.09-6.73,3.26-8.88,2.18-2.15,5.44-3.47,9.8-3.97v-4.03h5.92v4.03c3.97.5,6.94,1.81,8.92,3.92,1.97,2.12,2.96,5.04,2.96,8.77,0,.52-.04,1.31-.13,2.38Z"/>
            <path class="pay-cls-17" d="M752.7,218.28v50.59h-12.87v-27.12c0-3.92-.09-6.27-.29-7.06-.19-.79-.72-1.39-1.58-1.8s-2.78-.61-5.75-.61h-1.27v-5.9c6.22-1.31,10.95-4.01,14.17-8.1h7.58Z"/>
            <path class="pay-cls-17" d="M788.06,235.4v16.88c0,3.83-.21,6.62-.64,8.38-.43,1.75-1.31,3.39-2.64,4.91-1.34,1.52-2.95,2.62-4.84,3.28-1.89.67-4,1-6.34,1-3.08,0-5.64-.35-7.68-1.05-2.04-.7-3.66-1.79-4.87-3.27-1.21-1.48-2.07-3.04-2.58-4.67-.51-1.63-.76-4.23-.76-7.8v-17.66c0-4.65.41-8.12,1.23-10.44.82-2.31,2.44-4.17,4.87-5.56,2.43-1.4,5.38-2.09,8.84-2.09,2.82,0,5.35.48,7.58,1.45,2.23.97,3.9,2.15,5,3.55,1.1,1.4,1.85,2.97,2.25,4.72.39,1.75.59,4.54.59,8.38ZM775.19,231.15c0-2.69-.13-4.37-.4-5.05-.27-.68-.89-1.02-1.86-1.02s-1.59.36-1.9,1.08c-.31.72-.46,2.38-.46,4.98v24.69c0,2.94.14,4.71.43,5.31.29.6.91.91,1.86.91s1.58-.35,1.88-1.06c.3-.71.45-2.3.45-4.78v-25.06Z"/>
          </g>
        </g>
      </g>
      <g id="part-spent" class="fragment fade">
        <g>
          <g>
            <g class="pay-cls-27">
              <ellipse class="pay-cls-43" cx="742.48" cy="519.68" rx="70.38" ry="69.05"/>
            </g>
            <ellipse class="pay-cls-8" cx="742.82" cy="519.62" rx="63.05" ry="61.99"/>
            <g>
              <path class="pay-cls-17" d="M727.31,511.11h-12.87v-2.09c0-2.23-.15-3.69-.45-4.38-.3-.69-.93-1.03-1.91-1.03-.79,0-1.38.3-1.77.89-.39.59-.59,1.48-.59,2.67,0,1.98.4,3.37,1.21,4.16.79.79,3.1,2.33,6.94,4.62,3.27,1.94,5.5,3.42,6.69,4.45s2.19,2.49,3.01,4.38c.82,1.89,1.23,4.23,1.23,7.05,0,4.5-1.1,8.03-3.31,10.59-2.21,2.56-5.52,4.15-9.94,4.75v4.75h-5.92v-4.91c-3.44-.33-6.45-1.63-9.02-3.89-2.57-2.26-3.85-6.2-3.85-11.83v-2.47h12.87v3.09c0,3.4.13,5.51.4,6.33.27.82.91,1.23,1.93,1.23.87,0,1.52-.29,1.94-.86.42-.57.64-1.42.64-2.55,0-2.83-.2-4.86-.61-6.08s-1.78-2.55-4.14-3.98c-3.93-2.42-6.6-4.19-8.01-5.33-1.41-1.13-2.63-2.73-3.66-4.8-1.03-2.06-1.54-4.4-1.54-7,0-3.77,1.09-6.73,3.26-8.88,2.18-2.15,5.44-3.47,9.8-3.97v-4.03h5.92v4.03c3.97.5,6.94,1.81,8.92,3.92,1.97,2.12,2.96,5.04,2.96,8.77,0,.52-.04,1.31-.13,2.38Z"/>
              <path class="pay-cls-17" d="M752.7,496.36v50.59h-12.87v-27.12c0-3.92-.09-6.27-.29-7.06-.19-.79-.72-1.39-1.58-1.8s-2.78-.61-5.75-.61h-1.27v-5.9c6.22-1.31,10.95-4.01,14.17-8.1h7.58Z"/>
              <path class="pay-cls-17" d="M788.06,513.49v16.88c0,3.83-.21,6.62-.64,8.38-.43,1.75-1.31,3.39-2.64,4.91-1.34,1.52-2.95,2.62-4.84,3.28-1.89.67-4,1-6.34,1-3.08,0-5.64-.35-7.68-1.05-2.04-.7-3.66-1.79-4.87-3.27-1.21-1.48-2.07-3.04-2.58-4.67-.51-1.63-.76-4.23-.76-7.8v-17.66c0-4.65.41-8.12,1.23-10.44.82-2.31,2.44-4.17,4.87-5.56,2.43-1.4,5.38-2.09,8.84-2.09,2.82,0,5.35.48,7.58,1.45,2.23.97,3.9,2.15,5,3.55,1.1,1.4,1.85,2.97,2.25,4.72.39,1.75.59,4.54.59,8.38ZM775.19,509.24c0-2.69-.13-4.37-.4-5.05-.27-.68-.89-1.02-1.86-1.02s-1.59.36-1.9,1.08c-.31.72-.46,2.38-.46,4.98v24.69c0,2.94.14,4.71.43,5.31.29.6.91.91,1.86.91s1.58-.35,1.88-1.06c.3-.71.45-2.3.45-4.78v-25.06Z"/>
            </g>
          </g>
          <path class="pay-cls-29" d="M742.48,588.67c-38.87,0-70.38-30.91-70.38-69.05s31.51-69.05,70.38-69.05"/>
        </g>
        <g>
          <line class="pay-cls-7" x1="742.47" y1="426.47" x2="742.07" y2="340.33"/>
          <path class="pay-cls-22" d="M752.01,412.76c-.47-.29-1.08-.15-1.38.31l-8.16,12.94-8.28-12.87c-.3-.46-.92-.6-1.38-.3-.46.3-.6.92-.3,1.38l9.13,14.19c.18.29.5.46.85.46.34,0,.66-.18.84-.47l9-14.27c.1-.17.15-.35.15-.54,0-.33-.17-.65-.47-.84Z"/>
        </g>
      </g>
      <g id="change" class="fragment fade">
        <g>
          <g class="pay-cls-6">
            <ellipse class="pay-cls-15" cx="1034.49" cy="520.71" rx="43.46" ry="43.63"/>
          </g>
          <path class="pay-cls-8" d="M1069.06,520.79c0,21.79-15.44,34.63-34.49,34.63s-34.49-15.5-34.49-34.63,15.44-34.63,34.49-34.63,34.49,15.5,34.49,34.63Z"/>
          <g>
            <path class="pay-cls-17" d="M1033.63,514.69h-8.65v-1.44c0-1.53-.1-2.54-.3-3.01-.2-.47-.63-.71-1.28-.71-.53,0-.92.2-1.19.61-.26.41-.4,1.02-.4,1.84,0,1.36.27,2.31.81,2.86.53.54,2.08,1.6,4.67,3.18,2.2,1.33,3.69,2.35,4.49,3.06.8.71,1.47,1.71,2.02,3.01.55,1.3.82,2.91.82,4.84,0,3.09-.74,5.52-2.23,7.28s-3.71,2.85-6.68,3.27v3.27h-3.98v-3.37c-2.31-.23-4.33-1.12-6.06-2.67-1.73-1.55-2.59-4.26-2.59-8.13v-1.7h8.65v2.13c0,2.33.09,3.79.27,4.35.18.57.61.85,1.29.85.58,0,1.02-.2,1.31-.59.29-.39.43-.98.43-1.75,0-1.95-.14-3.34-.41-4.18-.27-.84-1.2-1.75-2.78-2.74-2.64-1.66-4.43-2.88-5.38-3.66-.95-.78-1.77-1.88-2.46-3.3-.69-1.42-1.04-3.02-1.04-4.81,0-2.59.73-4.63,2.19-6.1,1.46-1.47,3.66-2.38,6.58-2.73v-2.77h3.98v2.77c2.67.34,4.67,1.24,5.99,2.7,1.33,1.45,1.99,3.46,1.99,6.03,0,.36-.03.9-.09,1.63Z"/>
            <path class="pay-cls-17" d="M1056.22,504.55v5.56h-10.72v5.91c1.34-1.59,3.07-2.38,5.18-2.38,2.38,0,4.18.67,5.4,2.01,1.22,1.34,1.83,3.91,1.83,7.72v4.96c0,2.46-.12,4.27-.35,5.42-.24,1.15-.74,2.22-1.51,3.2-.77.98-1.84,1.73-3.22,2.26-1.38.52-3.06.78-5.04.78-2.23,0-4.19-.39-5.88-1.17s-2.9-1.94-3.62-3.49c-.71-1.55-1.07-3.94-1.07-7.18v-1.89h8.65v2.17c0,2.25.08,3.85.24,4.79s.7,1.42,1.63,1.42c.43,0,.77-.14,1.04-.41.26-.27.41-.57.43-.88.02-.31.05-1.68.07-4.1v-6.9c0-1.3-.14-2.19-.41-2.66-.27-.47-.72-.71-1.35-.71-.4,0-.73.12-1.01.37-.27.24-.45.5-.52.78-.08.28-.12.93-.12,1.94h-8.56l.36-17.53h18.55Z"/>
          </g>
        </g>
        <g>
          <text class="pay-cls-25" transform="translate(852.11 503.82)"><tspan x="0" y="0">Cha</tspan><tspan class="pay-cls-31" x="48.98" y="0">n</tspan><tspan x="65.71" y="0">ge</tspan></text>
          <g>
            <line class="pay-cls-7" x1="961.04" y1="520.1" x2="840.24" y2="519.12"/>
            <path class="pay-cls-22" d="M947.45,510.39c-.3.46-.17,1.08.3,1.38l12.84,8.32-12.97,8.11c-.47.29-.61.91-.32,1.38s.91.61,1.38.32l14.3-8.95c.29-.18.47-.5.47-.84s-.17-.66-.46-.85l-14.16-9.18c-.17-.11-.35-.16-.53-.16-.33,0-.65.16-.85.46Z"/>
          </g>
        </g>
      </g>
    </g>
    <g id="merchant-customer">
      <g>
        <g>
          <g class="pay-cls-20">
            <rect class="pay-cls-17" x="171.26" y="116.06" width="180.57" height="176.63" rx="26.1" ry="26.1"/>
            <rect class="pay-cls-9" x="171.26" y="116.06" width="180.57" height="176.63" rx="26.1" ry="26.1"/>
          </g>
          <path class="pay-cls-16" d="M333.22,174.01l-23.27-21.1c-.64-.59-1.43-1.03-2.23-1.33l-21.67-7.52c-1.12-.44-2.55-.15-3.35.74-4.62,4.43-11.16,7.23-18.33,7.23s-13.71-2.8-18.33-7.23c-.8-.89-2.23-1.03-3.35-.74l-21.67,7.52c-.8.29-1.59.74-2.23,1.33l-23.27,21.1c-1.27,1.33-1.12,3.39.32,4.43l21.35,14.9c1.27.89,3.03.89,4.14-.15l7.97-6.93v71.85h70.12v-71.7l7.97,6.93c1.12,1.03,3.03,1.03,4.14.15l21.35-15.05c1.43-1.03,1.59-3.1.32-4.43h0Z"/>
          <g>
            <path class="pay-cls-17" d="M262.69,199.15h-9.56v-1.59c0-1.7-.11-2.81-.33-3.33s-.69-.79-1.42-.79c-.58,0-1.02.23-1.31.68-.29.45-.44,1.13-.44,2.03,0,1.51.3,2.56.9,3.16.58.6,2.3,1.78,5.16,3.52,2.43,1.48,4.09,2.61,4.97,3.39.88.79,1.63,1.9,2.24,3.33.61,1.44.91,3.22.91,5.37,0,3.43-.82,6.12-2.46,8.07s-4.1,3.16-7.39,3.62v3.62h-4.4v-3.74c-2.56-.25-4.79-1.24-6.7-2.96-1.91-1.72-2.86-4.72-2.86-9.01v-1.88h9.56v2.36c0,2.59.1,4.19.3,4.82.2.63.67.94,1.43.94.65,0,1.13-.22,1.44-.65.32-.44.47-1.08.47-1.94,0-2.16-.15-3.7-.45-4.63-.3-.93-1.33-1.94-3.08-3.03-2.92-1.84-4.9-3.19-5.95-4.06s-1.96-2.08-2.72-3.65c-.77-1.57-1.15-3.35-1.15-5.33,0-2.87.81-5.12,2.43-6.76,1.62-1.63,4.04-2.64,7.28-3.02v-3.07h4.4v3.07c2.95.38,5.16,1.38,6.63,2.99,1.47,1.61,2.2,3.83,2.2,6.67,0,.4-.03,1-.09,1.81Z"/>
            <path class="pay-cls-17" d="M287.69,187.92v6.16h-11.86v6.54c1.48-1.76,3.39-2.64,5.73-2.64,2.64,0,4.63.74,5.98,2.22,1.35,1.48,2.02,4.33,2.02,8.55v5.5c0,2.73-.13,4.73-.39,6.01-.26,1.28-.82,2.46-1.67,3.55-.85,1.09-2.04,1.92-3.56,2.5-1.52.58-3.38.87-5.58.87-2.46,0-4.63-.43-6.51-1.3-1.88-.86-3.21-2.15-4-3.87s-1.18-4.36-1.18-7.95v-2.09h9.56v2.4c0,2.49.09,4.26.26,5.31.17,1.05.77,1.57,1.8,1.57.47,0,.86-.15,1.15-.45.29-.3.45-.63.47-.98.02-.35.05-1.86.08-4.54v-7.64c0-1.44-.15-2.43-.45-2.95-.3-.52-.8-.79-1.49-.79-.44,0-.81.13-1.11.4-.3.27-.49.56-.58.87-.09.31-.13,1.03-.13,2.15h-9.47l.4-19.42h20.53Z"/>
          </g>
        </g>
        <g>
          <g class="pay-cls-1">
            <ellipse class="pay-cls-17" cx="115.57" cy="274.13" rx="96.31" ry="95.4"/>
          </g>
          <text class="pay-cls-5" transform="translate(65.47 334.98)"><tspan x="0" y="0">Me</tspan><tspan class="pay-cls-37" x="33.13" y="0">r</tspan><tspan class="pay-cls-33" x="41.38" y="0">c</tspan><tspan x="53.17" y="0">hant</tspan></text>
          <g>
            <path class="pay-cls-22" d="M94.98,235.84c0,.68-.56,1.23-1.25,1.23s-1.25-.55-1.25-1.23.56-1.23,1.25-1.23,1.25.55,1.25,1.23h0Z"/>
            <path class="pay-cls-22" d="M91.23,239.53c0,.68-.56,1.23-1.25,1.23s-1.25-.55-1.25-1.23.56-1.23,1.25-1.23,1.25.55,1.25,1.23h0Z"/>
            <path class="pay-cls-22" d="M121.28,239.53c0,.68-.56,1.23-1.25,1.23s-1.25-.55-1.25-1.23.56-1.23,1.25-1.23,1.25.55,1.25,1.23h0Z"/>
            <path class="pay-cls-22" d="M125.03,235.84c0,.68-.56,1.23-1.25,1.23s-1.25-.55-1.25-1.23.56-1.23,1.25-1.23,1.25.55,1.25,1.23h0Z"/>
            <path class="pay-cls-22" d="M128.79,239.53c0,.68-.56,1.23-1.25,1.23s-1.25-.55-1.25-1.23.56-1.23,1.25-1.23,1.25.55,1.25,1.23h0Z"/>
            <path class="pay-cls-22" d="M113.76,246.92c0,.68-.56,1.23-1.25,1.23s-1.25-.55-1.25-1.23.56-1.23,1.25-1.23,1.25.55,1.25,1.23h0Z"/>
            <path class="pay-cls-22" d="M106.25,246.92c0,.68-.56,1.23-1.25,1.23s-1.25-.55-1.25-1.23.56-1.23,1.25-1.23,1.25.55,1.25,1.23h0Z"/>
            <path class="pay-cls-22" d="M143.81,246.92c0,.68-.56,1.23-1.25,1.23s-1.25-.55-1.25-1.23.56-1.23,1.25-1.23,1.25.55,1.25,1.23h0Z"/>
            <path class="pay-cls-22" d="M110.01,250.61c0,.68-.56,1.23-1.25,1.23s-1.25-.55-1.25-1.23.56-1.23,1.25-1.23,1.25.55,1.25,1.23h0Z"/>
            <path class="pay-cls-22" d="M113.76,254.3c0,.68-.56,1.23-1.25,1.23s-1.25-.55-1.25-1.23.56-1.23,1.25-1.23,1.25.55,1.25,1.23h0Z"/>
            <path class="pay-cls-22" d="M102.49,250.61c0,.68-.56,1.23-1.25,1.23s-1.25-.55-1.25-1.23.56-1.23,1.25-1.23,1.25.55,1.25,1.23h0Z"/>
            <path class="pay-cls-22" d="M106.25,254.3c0,.68-.56,1.23-1.25,1.23s-1.25-.55-1.25-1.23.56-1.23,1.25-1.23,1.25.55,1.25,1.23h0Z"/>
            <path class="pay-cls-22" d="M147.57,250.61c0,.68-.56,1.23-1.25,1.23s-1.25-.55-1.25-1.23.56-1.23,1.25-1.23,1.25.55,1.25,1.23h0Z"/>
            <path class="pay-cls-22" d="M140.06,250.61c0,.68-.56,1.23-1.25,1.23s-1.25-.55-1.25-1.23.56-1.23,1.25-1.23,1.25.55,1.25,1.23h0Z"/>
            <path class="pay-cls-22" d="M143.81,254.3c0,.68-.56,1.23-1.25,1.23s-1.25-.55-1.25-1.23.56-1.23,1.25-1.23,1.25.55,1.25,1.23h0Z"/>
            <path class="pay-cls-22" d="M152.58,243.4c0-.19-.04-.37-.11-.53,0-.12-.03-.24-.06-.36l-5.16-11.06c-.84-1.79-2.67-2.95-4.68-2.95h-52.6c-2.01,0-3.84,1.16-4.68,2.95l-5.09,10.86-.07.18c-.05.17-.06.34-.05.51-.08.19-.13.4-.13.62v8.26c0,1.72.46,3.34,1.25,4.75v9.04c-.57.62-1,1.39-1.16,2.25-.14.73-.09,1.51.13,2.25.12.4.03.89-.26,1.31-1.31,1.9-1.58,4.56-.66,6.61.14.31.31.6.51.87.29.38.39.89.28,1.36-.07.25-.11.51-.13.77-.1,1.1.13,2.17.31,3.03.19.9.49,2.27,1.52,3.14.55.47,1.23.71,1.97.75v4.46h-3.67l-.63.03-.77.93,1.51,8.89h71.18v-45.69c.8-1.41,1.25-3.03,1.25-4.75v-8.48h0ZM149.12,255.47c-.04.07-.09.14-.13.22-.17.27-.35.53-.54.77,0,0,0,0-.01.01-.19.24-.4.47-.62.68-.05.04-.1.08-.14.13-.07.07-.15.13-.23.19-.2-.42-.63-.71-1.13-.71-.69,0-1.25.55-1.25,1.23,0,.29.12.54.28.74-.07.03-.14.05-.21.08-.16.06-.32.11-.49.16-.12.03-.23.06-.35.09-.18.04-.37.08-.56.11-.1.02-.2.03-.3.04-.29.04-.59.06-.89.06-.98,0-1.92-.19-2.78-.53.17-.21.28-.46.28-.74,0-.68-.56-1.23-1.25-1.23-.5,0-.93.3-1.13.72-.74-.63-1.36-1.4-1.81-2.26.26-.23.44-.55.44-.92,0-.64-.5-1.15-1.14-1.21-.07-.39-.11-.79-.11-1.21v-3.74c.69,0,1.25-.55,1.25-1.23s-.56-1.23-1.25-1.23v-1.19h15.03v1.18c-.69,0-1.25.55-1.25,1.23s.56,1.23,1.25,1.23v3.74c0,.41-.04.81-.11,1.21-.64.06-1.14.57-1.14,1.21,0,.37.17.69.44.92-.03.06-.06.12-.09.18l-.05.08h0ZM108.76,256.76c-.69,0-1.25.55-1.25,1.23,0,.61.47,1.1,1.06,1.19-.35.05-.7.08-1.06.08-4.14,0-7.51-3.31-7.51-7.38v-7.38h15.03v7.38c0,3.43-2.39,6.3-5.61,7.13.36-.22.6-.59.6-1.03,0-.68-.56-1.23-1.25-1.23h0ZM89.09,259.21c-.1-.01-.2-.03-.3-.04-.19-.03-.37-.06-.56-.11-.12-.03-.23-.06-.35-.09-.17-.05-.33-.1-.49-.16-.11-.04-.23-.08-.34-.12-.24-.1-.47-.21-.69-.33-.11-.06-.22-.13-.33-.2-.14-.08-.27-.17-.4-.26-.1-.07-.2-.14-.29-.21-.17-.13-.33-.26-.48-.41-.05-.04-.1-.08-.14-.13-.22-.21-.43-.44-.62-.68,0,0,0,0-.01-.01-.2-.24-.38-.5-.54-.77-.04-.07-.09-.14-.13-.22l-.05-.08c-.58-1.05-.91-2.24-.91-3.51v-7.38h15.03v7.38c0,4.07-3.37,7.38-7.51,7.38-.3,0-.59-.02-.89-.06h0ZM117.52,244.5h15.03v7.38c0,4.07-3.37,7.38-7.51,7.38s-7.51-3.31-7.51-7.38v-7.38h0ZM142.57,230.97c1.03,0,1.98.59,2.41,1.51l4.47,9.56h-14.6l-1.02-5.54-1.02-5.54h9.77ZM117.52,230.97h2.27c-.58.11-1.02.59-1.02,1.18,0,.68.56,1.23,1.25,1.23s1.25-.55,1.25-1.23c0-.6-.44-1.08-1.02-1.18h7.05c-.58.11-1.02.59-1.02,1.18,0,.68.56,1.23,1.25,1.23s1.25-.55,1.25-1.23c0-.6-.44-1.08-1.02-1.18h2.48l.69,3.72c-.51.15-.89.6-.89,1.16,0,.68.56,1.23,1.25,1.23.03,0,.05-.01.08-.02l.92,4.98h-14.78v-11.07h0ZM102.29,230.97h12.73v11.07h-14.78l1.02-5.54,1.02-5.54h0ZM85.52,236.84c.2.14.43.24.7.24.69,0,1.25-.55,1.25-1.23,0-.57-.4-1.03-.94-1.17l1.03-2.2c.36-.76,1.07-1.28,1.89-1.44-.43.2-.73.62-.73,1.11,0,.68.56,1.23,1.25,1.23s1.25-.55,1.25-1.23c0-.6-.44-1.08-1.02-1.18h7.05c-.58.11-1.02.59-1.02,1.18,0,.68.56,1.23,1.25,1.23s1.25-.55,1.25-1.23c0-.6-.44-1.08-1.02-1.18h2.02l-1.02,5.54-.39,2.13c-.22-.2-.51-.33-.84-.33-.69,0-1.25.55-1.25,1.23s.56,1.23,1.25,1.23c.16,0,.32-.04.46-.09l-.25,1.37h-14.61l2.44-5.2h0ZM82.67,283.62c-.16-.73-.34-1.57-.27-2.3.01-.13.03-.27.07-.4.3-1.18.04-2.45-.7-3.42-.09-.12-.17-.25-.23-.39-.57-1.28-.39-3.03.44-4.24.71-1.03.92-2.27.59-3.38-.11-.36-.13-.76-.07-1.1.09-.47.33-.89.66-1.18l.08-.07c.12-.1.23-.16.31-.2l1.13-.91c.09-.09.2-.15.32-.2.03-.01.06-.02.08-.03.23-.08.48-.1.69-.1.13,0,.25.01.33.02.45.06.87.21,1.22.43l.28.22c.13.11.24.21.33.31.09.11.18.22.25.34.19.37.25.86.16,1.3-.24,1.1.05,2.28.77,3.15.15.18.26.41.31.65.03.15.05.31.05.48,0,.51-.14,1.12-.43,1.83h0c-.24.6-.52,1.11-.82,1.52-.61.83-.84,1.92-.65,3,.06.36.17.72.33,1.08.15.33.23.71.26,1.1.02.39-.02.77-.13,1.12-.06.2-.14.38-.22.56-.17.35-.4.69-.69,1.01-.01.01-.03.02-.04.04-.13.14-.27.28-.42.41-.49.44-1.01.75-1.39.94,0,0-.01,0-.02,0-.19.1-.4.18-.61.24-.49.16-.99.21-1.28-.03-.39-.33-.58-1.21-.7-1.79h0ZM87.66,299.87h-5.39l-.83-4.92h7.06l-.83,4.92h0ZM86.22,292.49v-5.01c.07-.03.14-.07.21-.1.7-.36,1.33-.78,1.87-1.26h0s.02-.02.03-.03c.24-.21.47-.43.67-.66.03-.04.06-.07.09-.11.16-.18.31-.37.44-.57.06-.09.12-.18.17-.26.1-.16.19-.32.28-.49.05-.09.09-.17.13-.26.12-.25.22-.51.3-.78.1-.31.16-.64.2-.97.04-.33.05-.67.03-1.01-.04-.67-.19-1.34-.45-1.94-.27-.61-.25-1.26.05-1.66.12-.17.23-.36.35-.55.28-.46.55-.95.78-1.51.57-1.4.73-2.61.51-3.7-.13-.64-.42-1.24-.83-1.73-.23-.28-.33-.7-.26-1.06.07-.32.09-.65.09-.98,0-.08,0-.17-.01-.25-.02-.29-.06-.57-.14-.85,0-.03,0-.06-.02-.09h28.05v25.84h-32.55ZM126.28,299.87v-33.22h17.53v33.22h-17.53ZM148.82,299.87h-2.5v-35.68h-22.54v35.68h-33.58l.84-4.92h30.24v-30.76h-32.42c-.69-.46-1.5-.78-2.39-.91-.33-.05-.64-.05-.95-.04-.08,0-.16.01-.24.02-.24.02-.46.06-.68.11-.06.02-.13.03-.19.04-.25.07-.49.16-.7.28v-4.12c.72.57,1.52,1.03,2.36,1.38,0,0,0,0,.01,0,.28.11.56.22.85.31.05.01.1.03.15.04.24.07.49.13.74.19.08.02.15.03.23.05.24.04.47.08.72.11.08,0,.16.02.25.03.32.03.64.05.96.05.42,0,.84-.03,1.25-.08.12-.01.23-.03.35-.05.31-.05.61-.11.91-.19.1-.03.21-.05.31-.08.38-.11.76-.24,1.12-.39.06-.02.11-.05.16-.08.31-.14.61-.29.9-.46.1-.06.2-.12.3-.18.27-.16.52-.34.77-.53.07-.05.14-.1.21-.15.3-.24.59-.5.87-.77.06-.06.12-.13.18-.19.21-.22.41-.46.6-.7.07-.09.14-.18.21-.28.2-.27.38-.55.55-.84.02-.04.05-.08.08-.12.02.04.05.08.08.12.17.29.35.57.55.84.07.09.14.18.21.28.19.24.39.47.6.7.06.06.12.13.18.19.27.27.56.53.87.77.07.05.14.1.21.15.25.19.5.36.77.53.1.06.2.12.3.18.29.17.59.32.9.46.06.02.11.05.16.08.36.15.74.28,1.12.39.1.03.21.05.31.08.3.08.6.14.91.19.12.02.23.04.35.05.41.05.82.08,1.24.08s.84-.03,1.25-.08c.12-.01.23-.03.35-.05.31-.05.61-.11.91-.19.1-.03.21-.05.31-.08.38-.11.76-.24,1.12-.39.06-.02.11-.05.16-.08.31-.14.61-.29.9-.46.1-.06.2-.12.3-.18.27-.16.52-.34.77-.53.07-.05.14-.1.21-.15.3-.24.59-.5.87-.77.06-.06.12-.13.18-.19.21-.22.41-.46.6-.7.07-.09.14-.18.21-.28.2-.27.38-.55.55-.84.02-.04.05-.08.08-.12.02.04.05.08.08.12.17.29.35.57.55.84.07.09.14.18.21.28.19.24.39.47.6.7.06.06.12.13.18.19.27.27.56.53.87.77.07.05.14.1.21.15.25.19.5.36.77.53.1.06.2.12.3.18.29.17.59.32.9.46.06.02.11.05.16.08.36.15.74.28,1.12.39.1.03.21.05.31.08.3.08.6.14.91.19.12.02.23.04.35.05.41.05.82.08,1.24.08s.84-.03,1.25-.08c.12-.01.23-.03.35-.05.31-.05.61-.11.91-.19.1-.03.21-.05.31-.08.38-.11.76-.24,1.12-.39.06-.02.11-.05.16-.08.31-.14.61-.29.9-.46.1-.06.2-.12.3-.18.27-.16.52-.34.77-.53.07-.05.14-.1.21-.15.3-.24.59-.5.87-.77.06-.06.12-.13.18-.19.21-.22.41-.46.6-.7.07-.09.14-.18.21-.28.2-.27.38-.55.55-.84.02-.04.05-.08.08-.12.02.04.05.08.08.12.17.29.35.57.55.84.07.09.14.18.21.28.19.24.39.47.6.7.06.06.12.13.18.19.27.27.56.53.87.77.07.05.14.1.21.15.25.19.5.36.77.53.1.06.2.12.3.18.29.17.59.32.9.46.06.02.11.05.16.08.36.15.74.28,1.12.39.1.03.21.05.31.08.3.08.6.14.91.19.12.02.23.04.35.05.41.05.82.08,1.24.08.32,0,.64-.02.96-.05.08,0,.16-.02.25-.03.24-.03.48-.06.72-.11.08-.01.15-.03.23-.05.25-.05.5-.12.74-.19.05-.01.1-.03.15-.04.29-.09.57-.19.85-.31,0,0,0,0,.01,0,.85-.35,1.64-.81,2.36-1.38v40.3h0Z"/>
            <path class="pay-cls-22" d="M140.06,281.41c-.69,0-1.25.55-1.25,1.23v3.69c0,.68.56,1.23,1.25,1.23s1.25-.55,1.25-1.23v-3.69c0-.68-.56-1.23-1.25-1.23h0Z"/>
            <path class="pay-cls-22" d="M101.24,276.49c.32,0,.64-.12.89-.36l5.01-4.92c.49-.48.49-1.26,0-1.74-.49-.48-1.28-.48-1.77,0l-5.01,4.92c-.49.48-.49,1.26,0,1.74.25.24.57.36.89.36h0Z"/>
            <path class="pay-cls-22" d="M101.24,288.8c.32,0,.64-.12.89-.36l11.27-11.07c.49-.48.49-1.26,0-1.74-.49-.48-1.28-.48-1.77,0l-11.27,11.07c-.49.48-.49,1.26,0,1.74.25.24.57.36.89.36h0Z"/>
            <path class="pay-cls-22" d="M107.87,274.9c.25.24.57.36.89.36s.64-.12.89-.36l3.76-3.69c.49-.48.49-1.26,0-1.74-.49-.48-1.28-.48-1.77,0l-3.76,3.69c-.49.48-.49,1.26,0,1.74h0Z"/>
            <path class="pay-cls-22" d="M101.24,282.64c.32,0,.64-.12.89-.36l2.5-2.46c.49-.48.49-1.26,0-1.74-.49-.48-1.28-.48-1.77,0l-2.5,2.46c-.49.48-.49,1.26,0,1.74.25.24.57.36.89.36h0Z"/>
            <path class="pay-cls-22" d="M105.36,275.62c-.23.23-.36.55-.36.87s.14.64.36.86c.24.23.55.37.89.37s.65-.14.89-.36c.23-.23.36-.55.36-.87s-.14-.64-.36-.87c-.46-.46-1.31-.46-1.78,0h0Z"/>
            <path class="pay-cls-22" d="M114.13,274.9c.24.22.56.36.89.36s.65-.14.89-.36c.23-.23.36-.55.36-.87s-.14-.64-.36-.87c-.46-.46-1.31-.46-1.78,0-.23.23-.36.55-.36.87s.14.64.36.87h0Z"/>
          </g>
        </g>
      </g>
      <g>
        <g>
          <g class="pay-cls-44">
            <ellipse class="pay-cls-17" cx="327.27" cy="509.16" rx="90.51" ry="88.23"/>
          </g>
          <text class="pay-cls-4" transform="translate(277.42 560.65) scale(1.03 1)"><tspan class="pay-cls-12" x="0" y="0">C</tspan><tspan x="13.78" y="0">us</tspan><tspan class="pay-cls-45" x="36.62" y="0">t</tspan><tspan class="pay-cls-18" x="44.22" y="0">o</tspan><tspan class="pay-cls-19" x="56.55" y="0">m</tspan><tspan class="pay-cls-38" x="77.44" y="0">er</tspan></text>
          <path class="pay-cls-11" d="M296.51,528.39c0-11.21,15.38-11.21,23.07-18.68,3.85-3.74-7.69-3.74-7.69-22.42,0-12.45,5.13-18.68,15.38-18.68s15.38,6.23,15.38,18.68c0,18.68-11.54,18.68-7.69,22.42,7.69,7.47,23.07,7.47,23.07,18.68"/>
        </g>
        <g>
          <path class="pay-cls-22" d="M464.39,447.71c-3.62,0-6.58-3.11-6.58-6.91s2.96-6.91,6.58-6.91,6.58,3.11,6.58,6.91-2.96,6.91-6.58,6.91h0ZM480.83,423.54h-3.29v-18.99c0-3.8-2.96-6.91-6.58-6.91h-92.09c-1.81,0-3.29-1.55-3.29-3.45s1.48-3.45,3.29-3.45h92.09v-3.45c0-3.8-2.96-6.91-6.58-6.91h-85.51c-7.24,0-13.15,6.22-13.15,13.81v75.97c0,7.6,5.92,13.81,13.15,13.81h92.09c3.62,0,6.58-3.11,6.58-6.91v-18.99h3.29c1.81,0,3.29-1.55,3.29-3.45v-27.62c0-1.9-1.48-3.45-3.29-3.45h0Z"/>
          <g>
            <g class="pay-cls-46">
              <ellipse class="pay-cls-43" cx="453.14" cy="373.96" rx="49.97" ry="48.47"/>
            </g>
            <ellipse class="pay-cls-8" cx="453.37" cy="373.92" rx="44.77" ry="43.52"/>
            <g>
              <path class="pay-cls-17" d="M442.37,367.94h-9.14v-1.47c0-1.56-.11-2.59-.32-3.07-.21-.48-.66-.72-1.36-.72-.56,0-.98.21-1.26.62-.28.42-.42,1.04-.42,1.88,0,1.39.29,2.36.86,2.92.56.56,2.2,1.64,4.93,3.25,2.32,1.36,3.9,2.4,4.75,3.13.84.72,1.56,1.75,2.14,3.07.58,1.32.87,2.97.87,4.95,0,3.16-.78,5.64-2.35,7.44-1.57,1.8-3.92,2.91-7.06,3.33v3.33h-4.21v-3.44c-2.44-.23-4.58-1.14-6.4-2.73-1.82-1.59-2.74-4.35-2.74-8.3v-1.73h9.14v2.17c0,2.38.09,3.87.28,4.44.19.58.64.87,1.37.87.62,0,1.08-.2,1.38-.6.3-.4.45-1,.45-1.79,0-1.99-.14-3.41-.43-4.27-.29-.86-1.27-1.79-2.94-2.8-2.79-1.7-4.69-2.94-5.69-3.74s-1.87-1.92-2.6-3.37c-.73-1.45-1.1-3.09-1.1-4.91,0-2.65.77-4.72,2.32-6.23,1.55-1.51,3.86-2.44,6.95-2.79v-2.83h4.21v2.83c2.82.35,4.93,1.27,6.33,2.75s2.1,3.54,2.1,6.15c0,.37-.03.92-.09,1.67Z"/>
              <path class="pay-cls-17" d="M460.39,357.59v35.51h-9.14v-19.04c0-2.75-.07-4.4-.2-4.96s-.51-.98-1.12-1.26c-.61-.29-1.97-.43-4.08-.43h-.9v-4.14c4.42-.92,7.77-2.82,10.06-5.69h5.38Z"/>
              <path class="pay-cls-17" d="M485.5,369.61v11.85c0,2.69-.15,4.65-.45,5.88s-.93,2.38-1.88,3.44-2.1,1.83-3.44,2.3c-1.34.47-2.84.7-4.5.7-2.19,0-4-.25-5.45-.73-1.45-.49-2.6-1.25-3.46-2.29-.86-1.04-1.47-2.13-1.83-3.28-.36-1.15-.54-2.97-.54-5.47v-12.39c0-3.26.29-5.7.87-7.33.58-1.62,1.73-2.92,3.46-3.91,1.73-.98,3.82-1.47,6.28-1.47,2,0,3.8.34,5.38,1.02,1.58.68,2.77,1.51,3.55,2.49.78.98,1.32,2.08,1.59,3.31.28,1.23.42,3.19.42,5.88ZM476.36,366.63c0-1.89-.09-3.07-.28-3.54-.19-.48-.63-.71-1.32-.71s-1.13.25-1.35.76c-.22.5-.33,1.67-.33,3.5v17.33c0,2.06.1,3.31.3,3.73.2.42.64.64,1.32.64s1.12-.25,1.33-.75c.21-.5.32-1.62.32-3.36v-17.59Z"/>
            </g>
          </g>
          <path class="pay-cls-22" d="M464.39,447.82c-3.62,0-6.58-3.11-6.58-6.91s2.96-6.91,6.58-6.91,6.58,3.11,6.58,6.91-2.96,6.91-6.58,6.91h0ZM365.73,397.53v72.74c0,7.6,5.92,13.81,13.15,13.81h92.09c3.62,0,6.58-3.11,6.58-6.91v-18.99h3.29c1.81,0,3.29-1.55,3.29-3.45v-27.62c0-1.9-1.48-3.45-3.29-3.45h-3.29v-18.99c0-3.8-2.96-6.91-6.58-6.91h-92.09"/>
        </g>
      </g>
    </g>
  </g>
</svg>