<?xml version="1.0" encoding="UTF-8"?>
<svg id="Layer_2" data-name="Layer 2" xmlns="http://www.w3.org/2000/svg" xmlns:xlink="http://www.w3.org/1999/xlink" viewBox="0 0 1111.06 495.02">
  <defs>
    <style>
      .roc-cls-1 {
        filter: url(#dropshadow2-8);
      }

      .roc-cls-2, .roc-cls-3 {
        fill: #39b54a;
      }

      .roc-cls-2, .roc-cls-4 {
        opacity: .2;
      }

      .roc-cls-5 {
        filter: url(#dropshadow2-10);
      }

      .roc-cls-6 {
        filter: url(#dropshadow2-9);
      }

      .roc-cls-7 {
        filter: url(#dropshadow2-4);
      }

      .roc-cls-8, .roc-cls-9, .roc-cls-10, .roc-cls-11, .roc-cls-12, .roc-cls-13, .roc-cls-14 {
        stroke-miterlimit: 10;
      }

      .roc-cls-8, .roc-cls-9, .roc-cls-10, .roc-cls-12, .roc-cls-13, .roc-cls-14 {
        stroke-width: 2px;
      }

      .roc-cls-8, .roc-cls-9, .roc-cls-10, .roc-cls-13, .roc-cls-14, .roc-cls-15 {
        fill: none;
      }

      .roc-cls-8, .roc-cls-11, .roc-cls-12 {
        stroke: #0042b3;
      }

      .roc-cls-16 {
        filter: url(#dropshadow2-6);
      }

      .roc-cls-17 {
        filter: url(#dropshadow2-18);
      }

      .roc-cls-9 {
        stroke: #39b54a;
      }

      .roc-cls-18 {
        filter: url(#dropshadow2-11);
      }

      .roc-cls-19 {
        filter: url(#dropshadow2-17);
      }

      .roc-cls-20 {
        font-size: 10.67px;
      }

      .roc-cls-20, .roc-cls-21, .roc-cls-12 {
        fill: #fff;
      }

      .roc-cls-20, .roc-cls-22 {
        font-family: Montserrat-Regular, Montserrat;
      }

      .roc-cls-23 {
        fill: #fbd63b;
      }

      .roc-cls-24 {
        filter: url(#dropshadow2);
      }

      .roc-cls-25 {
        font-family: Montserrat-Bold, Montserrat;
        font-size: 35px;
        font-weight: 700;
      }

      .roc-cls-25, .roc-cls-26, .roc-cls-11, .roc-cls-4 {
        fill: #0042b3;
      }

      .roc-cls-10 {
        stroke: #65c8d0;
      }

      .roc-cls-27 {
        filter: url(#dropshadow2-7);
      }

      .roc-cls-28 {
        filter: url(#dropshadow2-19);
      }

      .roc-cls-29 {
        filter: url(#dropshadow2-2);
      }

      .roc-cls-11 {
        stroke-width: .75px;
      }

      .roc-cls-22 {
        font-size: 38.63px;
      }

      .roc-cls-30 {
        filter: url(#dropshadow2-12);
      }

      .roc-cls-31 {
        letter-spacing: 0em;
      }

      .roc-cls-32 {
        filter: url(#dropshadow2-3);
      }

      .roc-cls-33 {
        filter: url(#dropshadow2-14);
      }

      .roc-cls-34 {
        filter: url(#dropshadow2-15);
      }

      .roc-cls-13 {
        stroke: #fff;
      }

      .roc-cls-35 {
        filter: url(#dropshadow2-16);
      }

      .roc-cls-36 {
        letter-spacing: 0em;
      }

      .roc-cls-37 {
        fill: #65c8d0;
      }

      .roc-cls-38 {
        letter-spacing: -.02em;
      }

      .roc-cls-14 {
        stroke: #fbd63b;
      }

      .roc-cls-39 {
        filter: url(#dropshadow2-21);
      }

      .roc-cls-15 {
        stroke: #0042b3;
        stroke-linecap: square;
        stroke-width: 2.3px;
      }

      .roc-cls-40 {
        fill: #fbd63b;
      }

      .roc-cls-41 {
        letter-spacing: -.02em;
      }

      .roc-cls-42 {
        filter: url(#dropshadow2-20);
      }

      .roc-cls-43 {
        filter: url(#dropshadow2-5);
      }

      .roc-cls-44 {
        filter: url(#dropshadow2-13);
      }
    </style>
    <filter id="dropshadow2">
      <feGaussianBlur in="SourceAlpha" stdDeviation="2"/>
      <feOffset dx="3" dy="3"/>
      <feComponentTransfer>
        <feFuncA slope="0.5" type="linear"/>
      </feComponentTransfer>
      <feMerge>
        <feMergeNode/>
        <feMergeNode in="SourceGraphic"/>
      </feMerge>
    </filter>
    <filter id="dropshadow2-2" data-name="dropshadow2">
      <feGaussianBlur in="SourceAlpha" stdDeviation="2"/>
      <feOffset dx="3" dy="3"/>
      <feComponentTransfer>
        <feFuncA slope="0.5" type="linear"/>
      </feComponentTransfer>
      <feMerge>
        <feMergeNode/>
        <feMergeNode in="SourceGraphic"/>
      </feMerge>
    </filter>
    <filter id="dropshadow2-3" data-name="dropshadow2">
      <feGaussianBlur in="SourceAlpha" stdDeviation="2"/>
      <feOffset dx="3" dy="3"/>
      <feComponentTransfer>
        <feFuncA slope="0.5" type="linear"/>
      </feComponentTransfer>
      <feMerge>
        <feMergeNode/>
        <feMergeNode in="SourceGraphic"/>
      </feMerge>
    </filter>
    <filter id="dropshadow2-4" data-name="dropshadow2">
      <feGaussianBlur in="SourceAlpha" stdDeviation="2"/>
      <feOffset dx="3" dy="3"/>
      <feComponentTransfer>
        <feFuncA slope="0.5" type="linear"/>
      </feComponentTransfer>
      <feMerge>
        <feMergeNode/>
        <feMergeNode in="SourceGraphic"/>
      </feMerge>
    </filter>
    <filter id="dropshadow2-5" data-name="dropshadow2">
      <feGaussianBlur in="SourceAlpha" stdDeviation="2"/>
      <feOffset dx="3" dy="3"/>
      <feComponentTransfer>
        <feFuncA slope="0.5" type="linear"/>
      </feComponentTransfer>
      <feMerge>
        <feMergeNode/>
        <feMergeNode in="SourceGraphic"/>
      </feMerge>
    </filter>
    <filter id="dropshadow2-6" data-name="dropshadow2">
      <feGaussianBlur in="SourceAlpha" stdDeviation="2"/>
      <feOffset dx="3" dy="3"/>
      <feComponentTransfer>
        <feFuncA slope="0.5" type="linear"/>
      </feComponentTransfer>
      <feMerge>
        <feMergeNode/>
        <feMergeNode in="SourceGraphic"/>
      </feMerge>
    </filter>
    <filter id="dropshadow2-7" data-name="dropshadow2">
      <feGaussianBlur in="SourceAlpha" stdDeviation="2"/>
      <feOffset dx="3" dy="3"/>
      <feComponentTransfer>
        <feFuncA slope="0.5" type="linear"/>
      </feComponentTransfer>
      <feMerge>
        <feMergeNode/>
        <feMergeNode in="SourceGraphic"/>
      </feMerge>
    </filter>
    <filter id="dropshadow2-8" data-name="dropshadow2">
      <feGaussianBlur in="SourceAlpha" stdDeviation="2"/>
      <feOffset dx="3" dy="3"/>
      <feComponentTransfer>
        <feFuncA slope="0.5" type="linear"/>
      </feComponentTransfer>
      <feMerge>
        <feMergeNode/>
        <feMergeNode in="SourceGraphic"/>
      </feMerge>
    </filter>
    <filter id="dropshadow2-9" data-name="dropshadow2">
      <feGaussianBlur in="SourceAlpha" stdDeviation="2"/>
      <feOffset dx="3" dy="3"/>
      <feComponentTransfer>
        <feFuncA slope="0.5" type="linear"/>
      </feComponentTransfer>
      <feMerge>
        <feMergeNode/>
        <feMergeNode in="SourceGraphic"/>
      </feMerge>
    </filter>
    <filter id="dropshadow2-10" data-name="dropshadow2">
      <feGaussianBlur in="SourceAlpha" stdDeviation="2"/>
      <feOffset dx="3" dy="3"/>
      <feComponentTransfer>
        <feFuncA slope="0.5" type="linear"/>
      </feComponentTransfer>
      <feMerge>
        <feMergeNode/>
        <feMergeNode in="SourceGraphic"/>
      </feMerge>
    </filter>
    <filter id="dropshadow2-11" data-name="dropshadow2">
      <feGaussianBlur in="SourceAlpha" stdDeviation="2"/>
      <feOffset dx="3" dy="3"/>
      <feComponentTransfer>
        <feFuncA slope="0.5" type="linear"/>
      </feComponentTransfer>
      <feMerge>
        <feMergeNode/>
        <feMergeNode in="SourceGraphic"/>
      </feMerge>
    </filter>
    <filter id="dropshadow2-12" data-name="dropshadow2">
      <feGaussianBlur in="SourceAlpha" stdDeviation="2"/>
      <feOffset dx="3" dy="3"/>
      <feComponentTransfer>
        <feFuncA slope="0.5" type="linear"/>
      </feComponentTransfer>
      <feMerge>
        <feMergeNode/>
        <feMergeNode in="SourceGraphic"/>
      </feMerge>
    </filter>
    <filter id="dropshadow2-13" data-name="dropshadow2">
      <feGaussianBlur in="SourceAlpha" stdDeviation="2"/>
      <feOffset dx="3" dy="3"/>
      <feComponentTransfer>
        <feFuncA slope="0.5" type="linear"/>
      </feComponentTransfer>
      <feMerge>
        <feMergeNode/>
        <feMergeNode in="SourceGraphic"/>
      </feMerge>
    </filter>
    <filter id="dropshadow2-14" data-name="dropshadow2">
      <feGaussianBlur in="SourceAlpha" stdDeviation="2"/>
      <feOffset dx="3" dy="3"/>
      <feComponentTransfer>
        <feFuncA slope="0.5" type="linear"/>
      </feComponentTransfer>
      <feMerge>
        <feMergeNode/>
        <feMergeNode in="SourceGraphic"/>
      </feMerge>
    </filter>
    <filter id="dropshadow2-15" data-name="dropshadow2">
      <feGaussianBlur in="SourceAlpha" stdDeviation="2"/>
      <feOffset dx="3" dy="3"/>
      <feComponentTransfer>
        <feFuncA slope="0.5" type="linear"/>
      </feComponentTransfer>
      <feMerge>
        <feMergeNode/>
        <feMergeNode in="SourceGraphic"/>
      </feMerge>
    </filter>
    <filter id="dropshadow2-16" data-name="dropshadow2">
      <feGaussianBlur in="SourceAlpha" stdDeviation="2"/>
      <feOffset dx="3" dy="3"/>
      <feComponentTransfer>
        <feFuncA slope="0.5" type="linear"/>
      </feComponentTransfer>
      <feMerge>
        <feMergeNode/>
        <feMergeNode in="SourceGraphic"/>
      </feMerge>
    </filter>
    <filter id="dropshadow2-17" data-name="dropshadow2">
      <feGaussianBlur in="SourceAlpha" stdDeviation="2"/>
      <feOffset dx="3" dy="3"/>
      <feComponentTransfer>
        <feFuncA slope="0.5" type="linear"/>
      </feComponentTransfer>
      <feMerge>
        <feMergeNode/>
        <feMergeNode in="SourceGraphic"/>
      </feMerge>
    </filter>
    <filter id="dropshadow2-18" data-name="dropshadow2">
      <feGaussianBlur in="SourceAlpha" stdDeviation="2"/>
      <feOffset dx="3" dy="3"/>
      <feComponentTransfer>
        <feFuncA slope="0.5" type="linear"/>
      </feComponentTransfer>
      <feMerge>
        <feMergeNode/>
        <feMergeNode in="SourceGraphic"/>
      </feMerge>
    </filter>
    <filter id="dropshadow2-19" data-name="dropshadow2">
      <feGaussianBlur in="SourceAlpha" stdDeviation="2"/>
      <feOffset dx="3" dy="3"/>
      <feComponentTransfer>
        <feFuncA slope="0.5" type="linear"/>
      </feComponentTransfer>
      <feMerge>
        <feMergeNode/>
        <feMergeNode in="SourceGraphic"/>
      </feMerge>
    </filter>
    <filter id="dropshadow2-20" data-name="dropshadow2">
      <feGaussianBlur in="SourceAlpha" stdDeviation="2"/>
      <feOffset dx="3" dy="3"/>
      <feComponentTransfer>
        <feFuncA slope="0.5" type="linear"/>
      </feComponentTransfer>
      <feMerge>
        <feMergeNode/>
        <feMergeNode in="SourceGraphic"/>
      </feMerge>
    </filter>
    <filter id="dropshadow2-21" data-name="dropshadow2">
      <feGaussianBlur in="SourceAlpha" stdDeviation="2"/>
      <feOffset dx="3" dy="3"/>
      <feComponentTransfer>
        <feFuncA slope="0.5" type="linear"/>
      </feComponentTransfer>
      <feMerge>
        <feMergeNode/>
        <feMergeNode in="SourceGraphic"/>
      </feMerge>
    </filter>
  </defs>
  <g id="Re-obtaining_a_coin" data-name="Re-obtaining a coin">
    <g id="blue">
      <rect class="roc-cls-4" x="334.34" width="254.9" height="478" rx="32.55" ry="32.55"/>
      <g class="roc-cls-24">
        <rect class="roc-cls-21" x="352.16" y="157.79" width="220.02" height="301.86" rx="23.42" ry="23.42"/>
        <rect class="roc-cls-8" x="352.16" y="157.79" width="220.02" height="301.86" rx="23.42" ry="23.42"/>
      </g>
      <g>
        <g class="roc-cls-29">
          <ellipse class="roc-cls-40" cx="462.18" cy="78.79" rx="51.65" ry="51"/>
        </g>
        <ellipse class="roc-cls-13" cx="462.42" cy="78.75" rx="46.27" ry="45.78"/>
        <g>
          <path class="roc-cls-21" d="M451.04,72.47h-9.44v-1.55c0-1.65-.11-2.72-.33-3.23-.22-.51-.69-.76-1.4-.76-.58,0-1.01.22-1.3.66s-.43,1.1-.43,1.97c0,1.46.3,2.48.89,3.07.58.58,2.27,1.72,5.1,3.42,2.4,1.43,4.04,2.53,4.91,3.29.87.76,1.61,1.84,2.21,3.23.6,1.39.9,3.13.9,5.21,0,3.32-.81,5.93-2.43,7.82-1.62,1.89-4.05,3.06-7.29,3.51v3.51h-4.35v-3.62c-2.52-.25-4.73-1.2-6.61-2.87-1.89-1.67-2.83-4.58-2.83-8.74v-1.82h9.44v2.29c0,2.51.1,4.07.29,4.67.19.61.67.91,1.42.91.64,0,1.11-.21,1.43-.64.31-.42.47-1.05.47-1.88,0-2.09-.15-3.59-.44-4.49-.3-.9-1.31-1.88-3.04-2.94-2.88-1.79-4.84-3.1-5.88-3.94s-1.93-2.02-2.69-3.54c-.76-1.52-1.13-3.25-1.13-5.17,0-2.78.8-4.97,2.4-6.55,1.6-1.58,3.99-2.56,7.19-2.93v-2.98h4.35v2.98c2.91.37,5.1,1.34,6.54,2.9,1.45,1.56,2.17,3.72,2.17,6.47,0,.39-.03.97-.09,1.75Z"/>
          <path class="roc-cls-21" d="M469.68,61.58v37.37h-9.44v-20.03c0-2.89-.07-4.63-.21-5.22-.14-.59-.53-1.03-1.16-1.33-.63-.3-2.04-.45-4.22-.45h-.93v-4.36c4.56-.97,8.03-2.96,10.4-5.98h5.56Z"/>
          <path class="roc-cls-21" d="M495.62,74.23v12.46c0,2.83-.15,4.89-.47,6.18-.31,1.29-.96,2.5-1.94,3.62-.98,1.12-2.17,1.93-3.55,2.42-1.39.49-2.94.74-4.65.74-2.26,0-4.14-.26-5.63-.77-1.5-.52-2.69-1.32-3.58-2.41-.89-1.09-1.52-2.24-1.89-3.45-.37-1.21-.56-3.13-.56-5.76v-13.04c0-3.43.3-6,.9-7.71.6-1.71,1.79-3.08,3.58-4.11,1.78-1.03,3.95-1.55,6.49-1.55,2.07,0,3.93.36,5.56,1.07,1.64.72,2.86,1.59,3.67,2.62.81,1.03,1.36,2.19,1.65,3.48.29,1.29.43,3.35.43,6.19ZM486.18,71.09c0-1.99-.1-3.23-.29-3.73-.19-.5-.65-.75-1.37-.75s-1.17.27-1.39.8-.34,1.76-.34,3.68v18.23c0,2.17.1,3.48.32,3.92.21.45.67.67,1.37.67s1.16-.26,1.38-.79c.22-.52.33-1.7.33-3.53v-18.51Z"/>
        </g>
      </g>
      <g>
        <g class="roc-cls-32">
          <ellipse class="roc-cls-21" cx="410.32" cy="215.47" rx="32.77" ry="33.16"/>
          <ellipse class="roc-cls-14" cx="410.32" cy="215.47" rx="32.77" ry="33.16"/>
        </g>
        <path class="roc-cls-23" d="M420.56,217.48l3.5,3.72,3.5-3.72,3.5,3.72,4.31-5.73-4.31-5.73h-21.81c-1.94-3.78-5.65-6.3-9.96-6.3-6.25,0-11.31,5.38-11.31,12.02s5.06,12.02,11.31,12.02c4.31,0,8.02-2.52,9.96-6.3h3.5l2.15-2.29,2.15,2.29,3.5-3.72h0ZM394.44,218.91c-1.78,0-3.23-1.55-3.23-3.44s1.45-3.44,3.23-3.44,3.23,1.55,3.23,3.44-1.45,3.44-3.23,3.44h0Z"/>
      </g>
      <g>
        <g class="roc-cls-7">
          <ellipse class="roc-cls-21" cx="506" cy="215.98" rx="33.58" ry="33.62"/>
          <ellipse class="roc-cls-14" cx="506" cy="215.98" rx="33.58" ry="33.62"/>
        </g>
        <path class="roc-cls-23" d="M507.04,227.25v2.82h-2.08v-2.82c-1.77-.63-2.85-2.87-1.43-5.19,2.59-2.28,5.6-.4,5.6,2.16,0,1.38-.89,2.55-2.08,3.03h0ZM498.18,207.74c0-6.96,8.69-11.81,15.63-3.89v9.79s-7.82-.58-7.82-.58l-7.82.58v-5.9h0ZM516.94,213.86v-6.11c0-6.17-4.9-11.17-10.94-11.17s-10.94,5-10.94,11.17v6.11l-3.65.27v20.2l14.59,1.06,14.59-1.06v-20.2l-3.65-.27h0Z"/>
      </g>
      <g>
        <g class="roc-cls-43">
          <ellipse class="roc-cls-21" cx="456.65" cy="410.75" rx="34.76" ry="34.34"/>
          <ellipse class="roc-cls-8" cx="456.65" cy="410.75" rx="34.76" ry="34.34"/>
        </g>
        <path class="roc-cls-26" d="M457.42,432.15v2.06h-1.53v-2.06c-1.3-.46-2.1-2.1-1.05-3.81,1.91-1.67,4.12-.29,4.12,1.59,0,1.01-.65,1.87-1.53,2.22h0ZM450.9,417.86c0-5.1,6.39-8.65,11.51-2.85v7.17s-5.75-.43-5.75-.43l-5.75.43v-4.32h0ZM464.71,422.34v-4.48c0-4.52-3.6-8.18-8.05-8.18s-8.05,3.66-8.05,8.18v4.48l-2.68.19v14.8l10.74.78,10.74-.78v-14.8l-2.68-.19h0Z"/>
        <path class="roc-cls-26" d="M463.75,389.08h-5.69v-.92c0-.98-.07-1.62-.2-1.92-.13-.3-.41-.45-.85-.45-.35,0-.61.13-.78.39-.17.26-.26.65-.26,1.18,0,.87.18,1.48.54,1.83.35.35,1.37,1.03,3.07,2.03,1.45.85,2.43,1.51,2.96,1.96.53.45.97,1.1,1.33,1.92.36.83.54,1.86.54,3.1,0,1.98-.49,3.53-1.47,4.66-.98,1.13-2.44,1.82-4.4,2.09v2.09h-2.62v-2.16c-1.52-.15-2.85-.72-3.99-1.71-1.14-.99-1.71-2.73-1.71-5.2v-1.09h5.69v1.36c0,1.49.06,2.42.18,2.78.12.36.4.54.85.54.38,0,.67-.13.86-.38s.28-.63.28-1.12c0-1.25-.09-2.14-.27-2.67-.18-.54-.79-1.12-1.83-1.75-1.74-1.06-2.92-1.84-3.54-2.34-.62-.5-1.16-1.2-1.62-2.11-.46-.91-.68-1.93-.68-3.08,0-1.66.48-2.96,1.44-3.9.96-.94,2.41-1.53,4.33-1.75v-1.77h2.62v1.77c1.76.22,3.07.79,3.95,1.72.87.93,1.31,2.22,1.31,3.86,0,.23-.02.58-.06,1.04Z"/>
      </g>
      <g>
        <g>
          <g class="roc-cls-16">
            <rect class="roc-cls-21" x="380.52" y="270.91" width="155.88" height="86.57" rx="14.96" ry="14.96"/>
            <rect class="roc-cls-8" x="380.52" y="270.91" width="155.88" height="86.57" rx="14.96" ry="14.96"/>
          </g>
          <path class="roc-cls-11" d="M458.46,357.58h-63.05c-11.56-1.06-14.89-6.81-14.89-15.2v-56.17c0-11.81,6.66-15.2,14.89-15.2h63.05"/>
        </g>
        <g>
          <ellipse class="roc-cls-12" cx="418.03" cy="327.65" rx="23.59" ry="23.09"/>
          <path class="roc-cls-26" d="M423.59,335.77l2.04,2.13,2.04-2.13,2.04,2.13,2.51-3.27-2.51-3.27h-12.7c-1.13-2.16-3.29-3.6-5.8-3.6-3.64,0-6.58,3.07-6.58,6.87s2.95,6.87,6.58,6.87c2.51,0,4.67-1.44,5.8-3.6h2.04l1.25-1.31,1.25,1.31,2.04-2.13h0ZM408.39,336.59c-1.03,0-1.88-.88-1.88-1.96s.85-1.96,1.88-1.96,1.88.88,1.88,1.96-.85,1.96-1.88,1.96h0Z"/>
          <path class="roc-cls-26" d="M422.85,313.66h-3.86v-.62c0-.66-.04-1.09-.13-1.29-.09-.2-.28-.31-.57-.31-.24,0-.41.09-.53.26-.12.18-.18.44-.18.79,0,.59.12,1,.36,1.23.24.23.93.69,2.08,1.37.98.57,1.65,1.01,2.01,1.32.36.3.66.74.9,1.29s.37,1.25.37,2.08c0,1.33-.33,2.38-.99,3.13-.66.76-1.66,1.23-2.98,1.41v1.41h-1.78v-1.45c-1.03-.1-1.94-.48-2.71-1.15-.77-.67-1.16-1.83-1.16-3.5v-.73h3.86v.92c0,1,.04,1.63.12,1.87.08.24.27.37.58.37.26,0,.46-.08.58-.25.13-.17.19-.42.19-.75,0-.84-.06-1.44-.18-1.8s-.54-.75-1.24-1.18c-1.18-.71-1.98-1.24-2.4-1.58-.42-.34-.79-.81-1.1-1.42-.31-.61-.46-1.3-.46-2.07,0-1.12.33-1.99.98-2.63.65-.63,1.63-1.03,2.94-1.17v-1.19h1.78v1.19c1.19.15,2.08.54,2.68,1.16.59.63.89,1.49.89,2.59,0,.15-.01.39-.04.7Z"/>
        </g>
        <g>
          <path class="roc-cls-21" d="M406.63,293.29c-1.14-.34-2.05-.79-2.74-1.33l1.21-2.78c.66.5,1.44.9,2.35,1.21.91.3,1.82.46,2.73.46,1.01,0,1.76-.16,2.24-.47.48-.31.73-.73.73-1.24,0-.38-.14-.7-.43-.95-.29-.25-.65-.45-1.1-.6s-1.05-.32-1.81-.5c-1.17-.29-2.13-.58-2.88-.87-.75-.29-1.39-.75-1.92-1.39s-.8-1.49-.8-2.55c0-.93.24-1.77.73-2.52s1.21-1.35,2.19-1.79c.98-.44,2.17-.66,3.57-.66.98,0,1.94.12,2.88.37s1.76.59,2.46,1.05l-1.1,2.81c-1.42-.84-2.85-1.25-4.27-1.25-1,0-1.73.17-2.21.5-.48.33-.71.78-.71,1.32s.27.95.82,1.22c.55.27,1.39.53,2.52.79,1.17.29,2.13.58,2.88.87.75.29,1.39.75,1.92,1.37.54.62.8,1.47.8,2.53,0,.91-.25,1.74-.74,2.5-.49.75-1.23,1.35-2.21,1.79s-2.18.66-3.59.66c-1.22,0-2.39-.17-3.53-.51Z"/>
          <path class="roc-cls-21" d="M419.07,278.98c-.4-.38-.59-.85-.59-1.41s.2-1.03.59-1.41.91-.57,1.54-.57,1.14.18,1.54.55c.4.37.59.82.59,1.37,0,.59-.2,1.08-.59,1.47s-.91.58-1.54.58-1.14-.19-1.54-.57ZM418.89,281.26h3.43v12.27h-3.43v-12.27Z"/>
          <path class="roc-cls-21" d="M437.72,281.26v10.22c0,2.25-.56,3.92-1.69,5.02-1.13,1.09-2.78,1.64-4.95,1.64-1.14,0-2.23-.14-3.26-.43-1.03-.29-1.88-.71-2.55-1.25l1.36-2.55c.5.42,1.13.76,1.89,1.01s1.52.38,2.29.38c1.19,0,2.06-.28,2.63-.83.56-.56.85-1.39.85-2.52v-.52c-.89,1.02-2.14,1.53-3.74,1.53-1.09,0-2.08-.25-2.98-.74s-1.62-1.19-2.15-2.09c-.53-.9-.79-1.93-.79-3.1s.26-2.2.79-3.1c.53-.9,1.24-1.59,2.15-2.09s1.9-.74,2.98-.74c1.72,0,3.02.59,3.92,1.76v-1.57h3.26ZM433.46,289.19c.58-.55.87-1.28.87-2.18s-.29-1.62-.87-2.18c-.58-.55-1.32-.83-2.23-.83s-1.66.28-2.24.83-.88,1.28-.88,2.18.29,1.62.88,2.18c.59.56,1.33.83,2.24.83s1.65-.28,2.23-.83Z"/>
        </g>
        <g>
          <g class="roc-cls-27">
            <ellipse class="roc-cls-21" cx="496.97" cy="312.72" rx="25.47" ry="25.85"/>
            <ellipse class="roc-cls-14" cx="496.97" cy="312.72" rx="25.47" ry="25.85"/>
          </g>
          <path class="roc-cls-23" d="M497.76,321.39v2.17h-1.58v-2.17c-1.34-.48-2.16-2.21-1.08-3.99,1.97-1.75,4.25-.31,4.25,1.66,0,1.06-.67,1.96-1.58,2.33h0ZM491.04,306.39c0-5.35,6.59-9.08,11.86-2.99v7.53s-5.93-.45-5.93-.45l-5.93.45v-4.54h0ZM505.27,311.09v-4.7c0-4.74-3.71-8.59-8.3-8.59s-8.3,3.84-8.3,8.59v4.7l-2.77.2v15.54l11.07.82,11.07-.82v-15.54l-2.77-.2h0Z"/>
        </g>
      </g>
      <g>
        <g class="roc-cls-1">
          <ellipse class="roc-cls-21" cx="92.43" cy="356.2" rx="77.02" ry="76.02"/>
        </g>
        <text class="roc-cls-22" transform="translate(78.39 410.23) scale(1.01 1)"><tspan x="0" y="0">A</tspan></text>
        <path class="roc-cls-15" d="M53.47,379.63c0-13.54,19.48-13.54,29.21-22.57,4.87-4.51-9.74-4.51-9.74-27.08,0-15.04,6.49-22.57,19.48-22.57s19.48,7.52,19.48,22.57c0,22.57-14.61,22.57-9.74,27.08,9.74,9.03,29.21,9.03,29.21,22.57"/>
      </g>
      <line class="roc-cls-8" x1="316.39" y1="128.96" x2="190.41" y2="128.96"/>
      <line class="roc-cls-8" x1="316.76" y1="356.63" x2="190.78" y2="356.63"/>
      <g>
        <g class="roc-cls-6">
          <ellipse class="roc-cls-21" cx="94.17" cy="128.96" rx="77.02" ry="76.02"/>
        </g>
        <text class="roc-cls-22" transform="translate(79.41 182.99) scale(1.01 1)"><tspan x="0" y="0">B</tspan></text>
        <path class="roc-cls-15" d="M55.22,152.39c0-13.54,19.48-13.54,29.21-22.57,4.87-4.51-9.74-4.51-9.74-27.08,0-15.04,6.49-22.57,19.48-22.57s19.48,7.52,19.48,22.57c0,22.57-14.61,22.57-9.74,27.08,9.74,9.03,29.21,9.03,29.21,22.57"/>
      </g>
    </g>
    <g id="rdb" class="fragment fade">
      <g>
        <line class="roc-cls-8" x1="833.68" y1="128.28" x2="602.11" y2="128.28"/>
        <path class="roc-cls-26" d="M820.01,118.68c-.3.46-.16,1.08.31,1.38l12.91,8.22-12.91,8.22c-.47.3-.6.92-.31,1.38s.92.6,1.38.31l14.23-9.06c.29-.18.46-.5.46-.84s-.17-.66-.46-.84l-14.23-9.06c-.17-.11-.35-.16-.54-.16-.33,0-.65.16-.84.46Z"/>
      </g>
      <g>
        <g class="roc-cls-5">
          <ellipse class="roc-cls-21" cx="666.88" cy="73.01" rx="32.77" ry="33.16"/>
          <ellipse class="roc-cls-10" cx="666.88" cy="73.01" rx="32.77" ry="33.16"/>
        </g>
        <path class="roc-cls-37" d="M677.13,75.01l2.42,2.58c.58.62,1.57.62,2.15,0l1.35-1.43c.58-.62,1.57-.62,2.15,0l1.22,1.3c.63.67,1.71.61,2.26-.12l2.58-3.43c.4-.53.4-1.25,0-1.78l-3.2-4.25c-.28-.37-.72-.59-1.18-.59h-20.21c-.54,0-1.01-.3-1.29-.76-2.03-3.35-5.53-5.54-9.54-5.54-6.25,0-11.31,5.38-11.31,12.02s5.06,12.02,11.31,12.02c4.01,0,7.51-2.19,9.54-5.54.28-.46.75-.76,1.29-.76h1.99c.41,0,.8-.17,1.08-.47l.64-.68c.58-.62,1.57-.62,2.15,0h0c.58.62,1.57.62,2.15,0l2.42-2.58h0ZM651.01,76.44c-1.78,0-3.23-1.55-3.23-3.44s1.45-3.44,3.23-3.44,3.23,1.55,3.23,3.44-1.45,3.44-3.23,3.44h0Z"/>
      </g>
      <g>
        <g class="roc-cls-18">
          <ellipse class="roc-cls-21" cx="774.27" cy="73.46" rx="33.58" ry="33.62"/>
          <ellipse class="roc-cls-14" cx="774.27" cy="73.46" rx="33.58" ry="33.62"/>
        </g>
        <path class="roc-cls-23" d="M775.31,84.73v2.82h-2.08v-2.82c-1.77-.63-2.85-2.87-1.43-5.19,2.59-2.28,5.6-.4,5.6,2.16,0,1.38-.89,2.55-2.08,3.03h0ZM766.45,65.22c0-6.96,8.69-11.81,15.63-3.89v9.79s-7.82-.58-7.82-.58l-7.82.58v-5.9h0ZM785.21,71.34v-6.11c0-6.17-4.9-11.17-10.94-11.17s-10.94,5-10.94,11.17v6.11l-3.65.27v20.2l14.59,1.06,14.59-1.06v-20.2l-3.65-.27h0Z"/>
      </g>
      <text class="roc-cls-25" transform="translate(713.26 92.87)"><tspan x="0" y="0">*</tspan></text>
    </g>
    <g id="green" class="fragment fade">
      <rect class="roc-cls-2" x="850.43" y="3.61" width="254.9" height="478" rx="32.55" ry="32.55"/>
      <g class="roc-cls-30">
        <rect class="roc-cls-21" x="868.26" y="161.4" width="220.02" height="301.86" rx="23.42" ry="23.42"/>
        <rect class="roc-cls-8" x="868.26" y="161.4" width="220.02" height="301.86" rx="23.42" ry="23.42"/>
      </g>
      <g>
        <g class="roc-cls-44">
          <ellipse class="roc-cls-21" cx="926.41" cy="219.09" rx="32.77" ry="33.16"/>
          <ellipse class="roc-cls-9" cx="926.41" cy="219.09" rx="32.77" ry="33.16"/>
        </g>
        <path class="roc-cls-3" d="M936.66,221.09l3.5,3.72,3.5-3.72,3.5,3.72,4.31-5.73-4.31-5.73h-21.81c-1.94-3.78-5.65-6.3-9.96-6.3-6.25,0-11.31,5.38-11.31,12.02s5.06,12.02,11.31,12.02c4.31,0,8.02-2.52,9.96-6.3h3.5l2.15-2.29,2.15,2.29,3.5-3.72h0ZM910.54,222.52c-1.78,0-3.23-1.55-3.23-3.44s1.45-3.44,3.23-3.44,3.23,1.55,3.23,3.44-1.45,3.44-3.23,3.44h0Z"/>
      </g>
      <g>
        <g class="roc-cls-33">
          <ellipse class="roc-cls-21" cx="1022.1" cy="219.59" rx="33.58" ry="33.62"/>
          <ellipse class="roc-cls-9" cx="1022.1" cy="219.59" rx="33.58" ry="33.62"/>
        </g>
        <path class="roc-cls-3" d="M1023.14,230.87v2.82h-2.08v-2.82c-1.77-.63-2.85-2.87-1.43-5.19,2.59-2.28,5.6-.4,5.6,2.16,0,1.38-.89,2.55-2.08,3.03h0ZM1014.28,211.35c0-6.96,8.69-11.81,15.63-3.89v9.79s-7.82-.58-7.82-.58l-7.82.58v-5.9h0ZM1033.04,217.47v-6.11c0-6.17-4.9-11.17-10.94-11.17s-10.94,5-10.94,11.17v6.11l-3.65.27v20.2l14.59,1.06,14.59-1.06v-20.2l-3.65-.27h0Z"/>
      </g>
      <g>
        <g class="roc-cls-34">
          <ellipse class="roc-cls-21" cx="972.75" cy="414.37" rx="34.76" ry="34.34"/>
          <ellipse class="roc-cls-8" cx="972.75" cy="414.37" rx="34.76" ry="34.34"/>
        </g>
        <path class="roc-cls-26" d="M973.52,435.76v2.06h-1.53v-2.06c-1.3-.46-2.1-2.1-1.05-3.81,1.91-1.67,4.12-.29,4.12,1.59,0,1.01-.65,1.87-1.53,2.22h0ZM967,421.47c0-5.1,6.39-8.65,11.51-2.85v7.17s-5.75-.43-5.75-.43l-5.75.43v-4.32h0ZM980.8,425.95v-4.48c0-4.52-3.6-8.18-8.05-8.18s-8.05,3.66-8.05,8.18v4.48l-2.68.19v14.8l10.74.78,10.74-.78v-14.8l-2.68-.19h0Z"/>
        <path class="roc-cls-26" d="M979.85,392.7h-5.69v-.92c0-.98-.07-1.62-.2-1.92-.13-.3-.41-.45-.85-.45-.35,0-.61.13-.78.39-.17.26-.26.65-.26,1.18,0,.87.18,1.48.54,1.83.35.35,1.37,1.03,3.07,2.03,1.45.85,2.43,1.51,2.96,1.96.53.45.97,1.1,1.33,1.92.36.83.54,1.86.54,3.1,0,1.98-.49,3.53-1.47,4.66-.98,1.13-2.44,1.82-4.4,2.09v2.09h-2.62v-2.16c-1.52-.15-2.85-.72-3.99-1.71-1.14-.99-1.71-2.73-1.71-5.2v-1.09h5.69v1.36c0,1.49.06,2.42.18,2.78.12.36.4.54.85.54.38,0,.67-.13.86-.38s.28-.63.28-1.12c0-1.25-.09-2.14-.27-2.67-.18-.54-.79-1.12-1.83-1.75-1.74-1.06-2.92-1.84-3.54-2.34-.62-.5-1.16-1.2-1.62-2.11-.46-.91-.68-1.93-.68-3.08,0-1.66.48-2.96,1.44-3.9.96-.94,2.41-1.53,4.33-1.75v-1.77h2.62v1.77c1.76.22,3.07.79,3.95,1.72.87.93,1.31,2.22,1.31,3.86,0,.23-.02.58-.06,1.04Z"/>
      </g>
      <g>
        <g>
          <g class="roc-cls-35">
            <rect class="roc-cls-21" x="896.62" y="274.52" width="155.88" height="86.57" rx="14.96" ry="14.96"/>
            <rect class="roc-cls-8" x="896.62" y="274.52" width="155.88" height="86.57" rx="14.96" ry="14.96"/>
          </g>
          <path class="roc-cls-11" d="M974.55,361.19h-63.05c-11.56-1.06-14.89-6.81-14.89-15.2v-56.17c0-11.81,6.66-15.2,14.89-15.2h63.05"/>
        </g>
        <g>
          <ellipse class="roc-cls-12" cx="934.13" cy="331.26" rx="23.59" ry="23.09"/>
          <path class="roc-cls-26" d="M939.69,339.38l2.04,2.13,2.04-2.13,2.04,2.13,2.51-3.27-2.51-3.27h-12.7c-1.13-2.16-3.29-3.6-5.8-3.6-3.64,0-6.58,3.07-6.58,6.87s2.95,6.87,6.58,6.87c2.51,0,4.67-1.44,5.8-3.6h2.04l1.25-1.31,1.25,1.31,2.04-2.13h0ZM924.49,340.2c-1.03,0-1.88-.88-1.88-1.96s.85-1.96,1.88-1.96,1.88.88,1.88,1.96-.85,1.96-1.88,1.96h0Z"/>
          <path class="roc-cls-26" d="M938.94,317.27h-3.86v-.62c0-.66-.04-1.09-.13-1.29-.09-.2-.28-.31-.57-.31-.24,0-.41.09-.53.26-.12.18-.18.44-.18.79,0,.59.12,1,.36,1.23.24.23.93.69,2.08,1.37.98.57,1.65,1.01,2.01,1.32.36.3.66.74.9,1.29s.37,1.25.37,2.08c0,1.33-.33,2.38-.99,3.13-.66.76-1.66,1.23-2.98,1.41v1.41h-1.78v-1.45c-1.03-.1-1.94-.48-2.71-1.15-.77-.67-1.16-1.83-1.16-3.5v-.73h3.86v.92c0,1,.04,1.63.12,1.87.08.24.27.37.58.37.26,0,.46-.08.58-.25.13-.17.19-.42.19-.75,0-.84-.06-1.44-.18-1.8s-.54-.75-1.24-1.18c-1.18-.71-1.98-1.24-2.4-1.58-.42-.34-.79-.81-1.1-1.42-.31-.61-.46-1.3-.46-2.07,0-1.12.33-1.99.98-2.63.65-.63,1.63-1.03,2.94-1.17v-1.19h1.78v1.19c1.19.15,2.08.54,2.68,1.16.59.63.89,1.49.89,2.59,0,.15-.01.39-.04.7Z"/>
        </g>
        <g>
          <path class="roc-cls-21" d="M922.72,296.91c-1.14-.34-2.05-.79-2.74-1.33l1.21-2.78c.66.5,1.44.9,2.35,1.21.91.3,1.82.46,2.73.46,1.01,0,1.76-.16,2.24-.47.48-.31.73-.73.73-1.24,0-.38-.14-.7-.43-.95-.29-.25-.65-.45-1.1-.6s-1.05-.32-1.81-.5c-1.17-.29-2.13-.58-2.88-.87-.75-.29-1.39-.75-1.92-1.39s-.8-1.49-.8-2.55c0-.93.24-1.77.73-2.52s1.21-1.35,2.19-1.79c.98-.44,2.17-.66,3.57-.66.98,0,1.94.12,2.88.37s1.76.59,2.46,1.05l-1.1,2.81c-1.42-.84-2.85-1.25-4.27-1.25-1,0-1.73.17-2.21.5-.48.33-.71.78-.71,1.32s.27.95.82,1.22c.55.27,1.39.53,2.52.79,1.17.29,2.13.58,2.88.87.75.29,1.39.75,1.92,1.37.54.62.8,1.47.8,2.53,0,.91-.25,1.74-.74,2.5-.49.75-1.23,1.35-2.21,1.79s-2.18.66-3.59.66c-1.22,0-2.39-.17-3.53-.51Z"/>
          <path class="roc-cls-21" d="M935.16,282.6c-.4-.38-.59-.85-.59-1.41s.2-1.03.59-1.41.91-.57,1.54-.57,1.14.18,1.54.55c.4.37.59.82.59,1.37,0,.59-.2,1.08-.59,1.47s-.91.58-1.54.58-1.14-.19-1.54-.57ZM934.99,284.88h3.43v12.27h-3.43v-12.27Z"/>
          <path class="roc-cls-21" d="M953.82,284.88v10.22c0,2.25-.56,3.92-1.69,5.02-1.13,1.09-2.78,1.64-4.95,1.64-1.14,0-2.23-.14-3.26-.43-1.03-.29-1.88-.71-2.55-1.25l1.36-2.55c.5.42,1.13.76,1.89,1.01s1.52.38,2.29.38c1.19,0,2.06-.28,2.63-.83.56-.56.85-1.39.85-2.52v-.52c-.89,1.02-2.14,1.53-3.74,1.53-1.09,0-2.08-.25-2.98-.74s-1.62-1.19-2.15-2.09c-.53-.9-.79-1.93-.79-3.1s.26-2.2.79-3.1c.53-.9,1.24-1.59,2.15-2.09s1.9-.74,2.98-.74c1.72,0,3.02.59,3.92,1.76v-1.57h3.26ZM949.56,292.8c.58-.55.87-1.28.87-2.18s-.29-1.62-.87-2.18c-.58-.55-1.32-.83-2.23-.83s-1.66.28-2.24.83-.88,1.28-.88,2.18.29,1.62.88,2.18c.59.56,1.33.83,2.24.83s1.65-.28,2.23-.83Z"/>
        </g>
        <g>
          <g class="roc-cls-19">
            <ellipse class="roc-cls-21" cx="1013.07" cy="316.34" rx="25.47" ry="25.85"/>
            <ellipse class="roc-cls-9" cx="1013.07" cy="316.34" rx="25.47" ry="25.85"/>
          </g>
          <path class="roc-cls-3" d="M1013.86,325v2.17h-1.58v-2.17c-1.34-.48-2.16-2.21-1.08-3.99,1.97-1.75,4.25-.31,4.25,1.66,0,1.06-.67,1.96-1.58,2.33h0ZM1007.14,310c0-5.35,6.59-9.08,11.86-2.99v7.53s-5.93-.45-5.93-.45l-5.93.45v-4.54h0ZM1021.37,314.7v-4.7c0-4.74-3.71-8.59-8.3-8.59s-8.3,3.84-8.3,8.59v4.7l-2.77.2v15.54l11.07.82,11.07-.82v-15.54l-2.77-.2h0Z"/>
        </g>
      </g>
      <g>
        <g class="roc-cls-17">
          <ellipse class="roc-cls-40" cx="977.88" cy="80.26" rx="49.49" ry="49.73"/>
        </g>
        <path class="roc-cls-13" d="M1017.26,80.36c0,24.83-17.59,39.46-39.28,39.46s-39.28-17.67-39.28-39.46,17.59-39.46,39.28-39.46,39.28,17.67,39.28,39.46Z"/>
        <g>
          <path class="roc-cls-21" d="M976.9,73.41h-9.85v-1.64c0-1.75-.11-2.89-.34-3.43-.23-.54-.71-.81-1.46-.81-.6,0-1.05.23-1.35.7-.3.46-.45,1.16-.45,2.09,0,1.55.31,2.64.93,3.26.6.62,2.37,1.83,5.31,3.62,2.5,1.52,4.21,2.68,5.12,3.49.91.81,1.68,1.95,2.3,3.43.62,1.48.94,3.32.94,5.52,0,3.53-.85,6.29-2.54,8.3-1.69,2.01-4.22,3.25-7.6,3.72v3.72h-4.53v-3.84c-2.63-.26-4.93-1.28-6.9-3.05s-2.95-4.86-2.95-9.27v-1.94h9.85v2.42c0,2.66.1,4.31.31,4.96.2.65.69.97,1.47.97.67,0,1.16-.22,1.49-.67.33-.45.49-1.11.49-2,0-2.22-.15-3.81-.46-4.76-.31-.96-1.37-2-3.17-3.12-3.01-1.89-5.05-3.28-6.13-4.17-1.08-.89-2.02-2.14-2.8-3.76-.79-1.62-1.18-3.44-1.18-5.48,0-2.95.83-5.27,2.5-6.95,1.67-1.68,4.16-2.72,7.49-3.11v-3.16h4.53v3.16c3.04.39,5.31,1.42,6.82,3.07,1.51,1.66,2.27,3.95,2.27,6.87,0,.41-.03,1.03-.1,1.86Z"/>
          <path class="roc-cls-21" d="M1002.64,61.85v6.34h-12.21v6.73c1.53-1.81,3.49-2.72,5.9-2.72,2.71,0,4.77.76,6.15,2.29,1.39,1.53,2.08,4.46,2.08,8.8v5.66c0,2.81-.13,4.87-.4,6.18-.27,1.31-.84,2.53-1.72,3.65s-2.1,1.98-3.67,2.57c-1.57.6-3.48.89-5.74.89-2.54,0-4.77-.45-6.7-1.33s-3.31-2.22-4.12-3.98-1.22-4.49-1.22-8.18v-2.15h9.85v2.47c0,2.56.09,4.38.27,5.46.18,1.08.8,1.62,1.85,1.62.49,0,.88-.15,1.18-.46s.46-.65.49-1,.05-1.92.09-4.68v-7.86c0-1.49-.15-2.5-.46-3.04-.31-.54-.82-.81-1.54-.81-.46,0-.84.14-1.15.42s-.51.58-.6.89c-.09.32-.13,1.06-.13,2.22h-9.75l.41-19.98h21.13Z"/>
        </g>
      </g>
    </g>
    <g id="rda" class="fragment fade">
      <g>
        <line class="roc-cls-8" x1="833.68" y1="356.37" x2="602.11" y2="356.37"/>
        <path class="roc-cls-26" d="M820.01,346.77c-.3.46-.16,1.08.31,1.38l12.91,8.22-12.91,8.22c-.47.3-.6.92-.31,1.38s.92.6,1.38.31l14.23-9.06c.29-.18.46-.5.46-.84s-.17-.66-.46-.84l-14.23-9.06c-.17-.11-.35-.16-.54-.16-.33,0-.65.16-.84.46Z"/>
      </g>
      <g>
        <g class="roc-cls-28">
          <ellipse class="roc-cls-21" cx="667.06" cy="306.54" rx="32.77" ry="33.16"/>
          <ellipse class="roc-cls-14" cx="667.06" cy="306.54" rx="32.77" ry="33.16"/>
        </g>
        <path class="roc-cls-23" d="M677.31,308.55l2.42,2.58c.58.62,1.57.62,2.15,0l1.35-1.43c.58-.62,1.57-.62,2.15,0l1.22,1.3c.63.67,1.71.61,2.26-.12l2.58-3.43c.4-.53.4-1.25,0-1.78l-3.2-4.25c-.28-.37-.72-.59-1.18-.59h-20.21c-.54,0-1.01-.3-1.29-.76-2.03-3.35-5.53-5.54-9.54-5.54-6.25,0-11.31,5.38-11.31,12.02s5.06,12.02,11.31,12.02c4.01,0,7.51-2.19,9.54-5.54.28-.46.75-.76,1.29-.76h1.99c.41,0,.8-.17,1.08-.47l.64-.68c.58-.62,1.57-.62,2.15,0h0c.58.62,1.57.62,2.15,0l2.42-2.58h0ZM651.19,309.98c-1.78,0-3.23-1.55-3.23-3.44s1.45-3.44,3.23-3.44,3.23,1.55,3.23,3.44-1.45,3.44-3.23,3.44h0Z"/>
      </g>
    </g>
    <g id="rda2" class="fragment fade">
      <g>
        <g class="roc-cls-42">
          <ellipse class="roc-cls-21" cx="775.15" cy="307" rx="33.58" ry="33.62"/>
          <ellipse class="roc-cls-10" cx="775.15" cy="307" rx="33.58" ry="33.62"/>
        </g>
        <path class="roc-cls-37" d="M776.19,318.27v2.82h-2.08v-2.82c-1.77-.63-2.85-2.87-1.43-5.19,2.59-2.28,5.6-.4,5.6,2.16,0,1.38-.89,2.55-2.08,3.03h0ZM767.34,298.76c0-6.96,8.69-11.81,15.63-3.89v9.79s-7.82-.58-7.82-.58l-7.82.58v-5.9h0ZM786.09,304.87v-6.11c0-6.17-4.9-11.17-10.94-11.17s-10.94,5-10.94,11.17v6.11l-3.65.27v20.2l14.59,1.06,14.59-1.06v-20.2l-3.65-.27h0Z"/>
      </g>
      <text class="roc-cls-25" transform="translate(713.27 326.41)"><tspan x="0" y="0">*</tspan></text>
      <g>
        <g class="roc-cls-39">
          <path class="roc-cls-26" d="M772.03,368.98c25.97,0,47.02,21.44,47.02,47.88s-21.05,47.88-47.02,47.88-47.02-21.44-47.02-47.88,21.05-47.88,47.02-47.88"/>
        </g>
        <text class="roc-cls-20" transform="translate(746.51 448.36) scale(.98 1)"><tspan class="roc-cls-38" x="0" y="0">E</tspan><tspan class="roc-cls-41" x="6.98" y="0">x</tspan><tspan class="roc-cls-31" x="12.47" y="0">c</tspan><tspan x="18.39" y="0">ha</tspan><tspan class="roc-cls-36" x="31.9" y="0">n</tspan><tspan x="39.14" y="0">ge</tspan></text>
        <g>
          <path class="roc-cls-21" d="M754.51,412.93c.22.1.48.1.71-.02l6.97-3.37c.45-.23.63-.8.42-1.27-.21-.46-.71-.66-1.15-.46l-4.88,2.36c2.33-7.42,8.82-12.37,16.3-12.37s14.68,5.57,16.65,13.53c.12.5.62.81,1.09.67.47-.13.76-.66.63-1.16-2.18-8.79-9.73-14.95-18.38-14.95s-15.41,5.47-18,13.66l-2.05-5.46c-.15-.49-.66-.77-1.13-.61-.46.16-.72.7-.57,1.2,0,.04.03.08.04.11l2.85,7.6c.09.24.27.44.5.53h0Z"/>
          <path class="roc-cls-21" d="M793.92,426.95s-.02-.04-.02-.06l-2.85-7.6c-.09-.24-.27-.44-.5-.53-.22-.09-.48-.09-.71.02l-6.97,3.37c-.46.2-.67.76-.48,1.24.19.48.71.71,1.17.51.02,0,.04-.02.05-.03l4.88-2.36c-2.35,7.42-8.85,12.37-16.31,12.37-7.83,0-14.68-5.57-16.65-13.53-.12-.5-.62-.81-1.09-.67-.47.13-.76.66-.63,1.16,2.17,8.8,9.73,14.95,18.38,14.95s15.4-5.47,18-13.66l2.05,5.46c.17.49.68.75,1.14.57.46-.18.71-.72.54-1.22h0Z"/>
        </g>
      </g>
    </g>
  </g>
</svg>