<svg xmlns="http://www.w3.org/2000/svg" xmlns:xlink="http://www.w3.org/1999/xlink" version="1.1" x="0" y="0" viewBox="0 0 220 220" width="220" height="220">
<rect x="0" y="0" width="220" fill="none" height="220" stroke="none"></rect>
<g transform="translate(10, 10)">
<g fill="#ffffff">
<rect x="49.702" y="1.222" width="3.6359999999999997" height="3.6359999999999997" rx="4"></rect>
<rect x="61.821999999999996" y="1.222" width="3.6359999999999997" height="3.6359999999999997" rx="4"></rect>
<rect x="73.94200000000001" y="1.222" width="3.6359999999999997" height="3.6359999999999997" rx="4"></rect>
<rect x="104.242" y="1.222" width="3.6359999999999997" height="3.6359999999999997" rx="4"></rect>
<rect x="110.302" y="1.222" width="3.6359999999999997" height="3.6359999999999997" rx="4"></rect>
<rect x="116.362" y="1.222" width="3.6359999999999997" height="3.6359999999999997" rx="4"></rect>
<rect x="122.422" y="1.222" width="3.6359999999999997" height="3.6359999999999997" rx="4"></rect>
<rect x="140.60199999999998" y="1.222" width="3.6359999999999997" height="3.6359999999999997" rx="4"></rect>
<rect x="55.762" y="7.281999999999999" width="3.6359999999999997" height="3.6359999999999997" rx="4"></rect>
<rect x="67.882" y="7.281999999999999" width="3.6359999999999997" height="3.6359999999999997" rx="4"></rect>
<rect x="92.122" y="7.281999999999999" width="3.6359999999999997" height="3.6359999999999997" rx="4"></rect>
<rect x="98.182" y="7.281999999999999" width="3.6359999999999997" height="3.6359999999999997" rx="4"></rect>
<rect x="104.242" y="7.281999999999999" width="3.6359999999999997" height="3.6359999999999997" rx="4"></rect>
<rect x="134.54199999999997" y="7.281999999999999" width="3.6359999999999997" height="3.6359999999999997" rx="4"></rect>
<rect x="146.66199999999998" y="7.281999999999999" width="3.6359999999999997" height="3.6359999999999997" rx="4"></rect>
<rect x="55.762" y="13.341999999999999" width="3.6359999999999997" height="3.6359999999999997" rx="4"></rect>
<rect x="67.882" y="13.341999999999999" width="3.6359999999999997" height="3.6359999999999997" rx="4"></rect>
<rect x="104.242" y="13.341999999999999" width="3.6359999999999997" height="3.6359999999999997" rx="4"></rect>
<rect x="110.302" y="13.341999999999999" width="3.6359999999999997" height="3.6359999999999997" rx="4"></rect>
<rect x="122.422" y="13.341999999999999" width="3.6359999999999997" height="3.6359999999999997" rx="4"></rect>
<rect x="128.482" y="13.341999999999999" width="3.6359999999999997" height="3.6359999999999997" rx="4"></rect>
<rect x="134.54199999999997" y="13.341999999999999" width="3.6359999999999997" height="3.6359999999999997" rx="4"></rect>
<rect x="55.762" y="19.402" width="3.6359999999999997" height="3.6359999999999997" rx="4"></rect>
<rect x="80.00200000000001" y="19.402" width="3.6359999999999997" height="3.6359999999999997" rx="4"></rect>
<rect x="92.122" y="19.402" width="3.6359999999999997" height="3.6359999999999997" rx="4"></rect>
<rect x="122.422" y="19.402" width="3.6359999999999997" height="3.6359999999999997" rx="4"></rect>
<rect x="134.54199999999997" y="19.402" width="3.6359999999999997" height="3.6359999999999997" rx="4"></rect>
<rect x="140.60199999999998" y="19.402" width="3.6359999999999997" height="3.6359999999999997" rx="4"></rect>
<rect x="146.66199999999998" y="19.402" width="3.6359999999999997" height="3.6359999999999997" rx="4"></rect>
<rect x="49.702" y="25.462" width="3.6359999999999997" height="3.6359999999999997" rx="4"></rect>
<rect x="55.762" y="25.462" width="3.6359999999999997" height="3.6359999999999997" rx="4"></rect>
<rect x="67.882" y="25.462" width="3.6359999999999997" height="3.6359999999999997" rx="4"></rect>
<rect x="80.00200000000001" y="25.462" width="3.6359999999999997" height="3.6359999999999997" rx="4"></rect>
<rect x="86.062" y="25.462" width="3.6359999999999997" height="3.6359999999999997" rx="4"></rect>
<rect x="92.122" y="25.462" width="3.6359999999999997" height="3.6359999999999997" rx="4"></rect>
<rect x="98.182" y="25.462" width="3.6359999999999997" height="3.6359999999999997" rx="4"></rect>
<rect x="110.302" y="25.462" width="3.6359999999999997" height="3.6359999999999997" rx="4"></rect>
<rect x="128.482" y="25.462" width="3.6359999999999997" height="3.6359999999999997" rx="4"></rect>
<rect x="140.60199999999998" y="25.462" width="3.6359999999999997" height="3.6359999999999997" rx="4"></rect>
<rect x="49.702" y="31.522" width="3.6359999999999997" height="3.6359999999999997" rx="4"></rect>
<rect x="61.821999999999996" y="31.522" width="3.6359999999999997" height="3.6359999999999997" rx="4"></rect>
<rect x="67.882" y="31.522" width="3.6359999999999997" height="3.6359999999999997" rx="4"></rect>
<rect x="73.94200000000001" y="31.522" width="3.6359999999999997" height="3.6359999999999997" rx="4"></rect>
<rect x="110.302" y="31.522" width="3.6359999999999997" height="3.6359999999999997" rx="4"></rect>
<rect x="122.422" y="31.522" width="3.6359999999999997" height="3.6359999999999997" rx="4"></rect>
<rect x="128.482" y="31.522" width="3.6359999999999997" height="3.6359999999999997" rx="4"></rect>
<rect x="134.54199999999997" y="31.522" width="3.6359999999999997" height="3.6359999999999997" rx="4"></rect>
<rect x="49.702" y="37.582" width="3.6359999999999997" height="3.6359999999999997" rx="4"></rect>
<rect x="61.821999999999996" y="37.582" width="3.6359999999999997" height="3.6359999999999997" rx="4"></rect>
<rect x="73.94200000000001" y="37.582" width="3.6359999999999997" height="3.6359999999999997" rx="4"></rect>
<rect x="86.062" y="37.582" width="3.6359999999999997" height="3.6359999999999997" rx="4"></rect>
<rect x="98.182" y="37.582" width="3.6359999999999997" height="3.6359999999999997" rx="4"></rect>
<rect x="110.302" y="37.582" width="3.6359999999999997" height="3.6359999999999997" rx="4"></rect>
<rect x="122.422" y="37.582" width="3.6359999999999997" height="3.6359999999999997" rx="4"></rect>
<rect x="134.54199999999997" y="37.582" width="3.6359999999999997" height="3.6359999999999997" rx="4"></rect>
<rect x="146.66199999999998" y="37.582" width="3.6359999999999997" height="3.6359999999999997" rx="4"></rect>
<rect x="73.94200000000001" y="43.641999999999996" width="3.6359999999999997" height="3.6359999999999997" rx="4"></rect>
<rect x="80.00200000000001" y="43.641999999999996" width="3.6359999999999997" height="3.6359999999999997" rx="4"></rect>
<rect x="86.062" y="43.641999999999996" width="3.6359999999999997" height="3.6359999999999997" rx="4"></rect>
<rect x="128.482" y="43.641999999999996" width="3.6359999999999997" height="3.6359999999999997" rx="4"></rect>
<rect x="146.66199999999998" y="43.641999999999996" width="3.6359999999999997" height="3.6359999999999997" rx="4"></rect>
<rect x="7.281999999999999" y="49.702" width="3.6359999999999997" height="3.6359999999999997" rx="4"></rect>
<rect x="13.341999999999999" y="49.702" width="3.6359999999999997" height="3.6359999999999997" rx="4"></rect>
<rect x="19.402" y="49.702" width="3.6359999999999997" height="3.6359999999999997" rx="4"></rect>
<rect x="25.462" y="49.702" width="3.6359999999999997" height="3.6359999999999997" rx="4"></rect>
<rect x="31.522" y="49.702" width="3.6359999999999997" height="3.6359999999999997" rx="4"></rect>
<rect x="37.582" y="49.702" width="3.6359999999999997" height="3.6359999999999997" rx="4"></rect>
<rect x="43.641999999999996" y="49.702" width="3.6359999999999997" height="3.6359999999999997" rx="4"></rect>
<rect x="55.762" y="49.702" width="3.6359999999999997" height="3.6359999999999997" rx="4"></rect>
<rect x="67.882" y="49.702" width="3.6359999999999997" height="3.6359999999999997" rx="4"></rect>
<rect x="80.00200000000001" y="49.702" width="3.6359999999999997" height="3.6359999999999997" rx="4"></rect>
<rect x="92.122" y="49.702" width="3.6359999999999997" height="3.6359999999999997" rx="4"></rect>
<rect x="104.242" y="49.702" width="3.6359999999999997" height="3.6359999999999997" rx="4"></rect>
<rect x="122.422" y="49.702" width="3.6359999999999997" height="3.6359999999999997" rx="4"></rect>
<rect x="134.54199999999997" y="49.702" width="3.6359999999999997" height="3.6359999999999997" rx="4"></rect>
<rect x="140.60199999999998" y="49.702" width="3.6359999999999997" height="3.6359999999999997" rx="4"></rect>
<rect x="146.66199999999998" y="49.702" width="3.6359999999999997" height="3.6359999999999997" rx="4"></rect>
<rect x="164.84199999999996" y="49.702" width="3.6359999999999997" height="3.6359999999999997" rx="4"></rect>
<rect x="170.90199999999996" y="49.702" width="3.6359999999999997" height="3.6359999999999997" rx="4"></rect>
<rect x="195.14199999999997" y="49.702" width="3.6359999999999997" height="3.6359999999999997" rx="4"></rect>
<rect x="7.281999999999999" y="55.762" width="3.6359999999999997" height="3.6359999999999997" rx="4"></rect>
<rect x="49.702" y="55.762" width="3.6359999999999997" height="3.6359999999999997" rx="4"></rect>
<rect x="55.762" y="55.762" width="3.6359999999999997" height="3.6359999999999997" rx="4"></rect>
<rect x="80.00200000000001" y="55.762" width="3.6359999999999997" height="3.6359999999999997" rx="4"></rect>
<rect x="98.182" y="55.762" width="3.6359999999999997" height="3.6359999999999997" rx="4"></rect>
<rect x="110.302" y="55.762" width="3.6359999999999997" height="3.6359999999999997" rx="4"></rect>
<rect x="116.362" y="55.762" width="3.6359999999999997" height="3.6359999999999997" rx="4"></rect>
<rect x="122.422" y="55.762" width="3.6359999999999997" height="3.6359999999999997" rx="4"></rect>
<rect x="140.60199999999998" y="55.762" width="3.6359999999999997" height="3.6359999999999997" rx="4"></rect>
<rect x="158.78199999999998" y="55.762" width="3.6359999999999997" height="3.6359999999999997" rx="4"></rect>
<rect x="176.96199999999996" y="55.762" width="3.6359999999999997" height="3.6359999999999997" rx="4"></rect>
<rect x="183.02199999999996" y="55.762" width="3.6359999999999997" height="3.6359999999999997" rx="4"></rect>
<rect x="195.14199999999997" y="55.762" width="3.6359999999999997" height="3.6359999999999997" rx="4"></rect>
<rect x="7.281999999999999" y="61.821999999999996" width="3.6359999999999997" height="3.6359999999999997" rx="4"></rect>
<rect x="19.402" y="61.821999999999996" width="3.6359999999999997" height="3.6359999999999997" rx="4"></rect>
<rect x="37.582" y="61.821999999999996" width="3.6359999999999997" height="3.6359999999999997" rx="4"></rect>
<rect x="67.882" y="61.821999999999996" width="3.6359999999999997" height="3.6359999999999997" rx="4"></rect>
<rect x="73.94200000000001" y="61.821999999999996" width="3.6359999999999997" height="3.6359999999999997" rx="4"></rect>
<rect x="80.00200000000001" y="61.821999999999996" width="3.6359999999999997" height="3.6359999999999997" rx="4"></rect>
<rect x="86.062" y="61.821999999999996" width="3.6359999999999997" height="3.6359999999999997" rx="4"></rect>
<rect x="92.122" y="61.821999999999996" width="3.6359999999999997" height="3.6359999999999997" rx="4"></rect>
<rect x="110.302" y="61.821999999999996" width="3.6359999999999997" height="3.6359999999999997" rx="4"></rect>
<rect x="122.422" y="61.821999999999996" width="3.6359999999999997" height="3.6359999999999997" rx="4"></rect>
<rect x="134.54199999999997" y="61.821999999999996" width="3.6359999999999997" height="3.6359999999999997" rx="4"></rect>
<rect x="152.72199999999998" y="61.821999999999996" width="3.6359999999999997" height="3.6359999999999997" rx="4"></rect>
<rect x="170.90199999999996" y="61.821999999999996" width="3.6359999999999997" height="3.6359999999999997" rx="4"></rect>
<rect x="183.02199999999996" y="61.821999999999996" width="3.6359999999999997" height="3.6359999999999997" rx="4"></rect>
<rect x="7.281999999999999" y="67.882" width="3.6359999999999997" height="3.6359999999999997" rx="4"></rect>
<rect x="31.522" y="67.882" width="3.6359999999999997" height="3.6359999999999997" rx="4"></rect>
<rect x="43.641999999999996" y="67.882" width="3.6359999999999997" height="3.6359999999999997" rx="4"></rect>
<rect x="55.762" y="67.882" width="3.6359999999999997" height="3.6359999999999997" rx="4"></rect>
<rect x="61.821999999999996" y="67.882" width="3.6359999999999997" height="3.6359999999999997" rx="4"></rect>
<rect x="67.882" y="67.882" width="3.6359999999999997" height="3.6359999999999997" rx="4"></rect>
<rect x="73.94200000000001" y="67.882" width="3.6359999999999997" height="3.6359999999999997" rx="4"></rect>
<rect x="98.182" y="67.882" width="3.6359999999999997" height="3.6359999999999997" rx="4"></rect>
<rect x="116.362" y="67.882" width="3.6359999999999997" height="3.6359999999999997" rx="4"></rect>
<rect x="122.422" y="67.882" width="3.6359999999999997" height="3.6359999999999997" rx="4"></rect>
<rect x="128.482" y="67.882" width="3.6359999999999997" height="3.6359999999999997" rx="4"></rect>
<rect x="140.60199999999998" y="67.882" width="3.6359999999999997" height="3.6359999999999997" rx="4"></rect>
<rect x="152.72199999999998" y="67.882" width="3.6359999999999997" height="3.6359999999999997" rx="4"></rect>
<rect x="170.90199999999996" y="67.882" width="3.6359999999999997" height="3.6359999999999997" rx="4"></rect>
<rect x="176.96199999999996" y="67.882" width="3.6359999999999997" height="3.6359999999999997" rx="4"></rect>
<rect x="183.02199999999996" y="67.882" width="3.6359999999999997" height="3.6359999999999997" rx="4"></rect>
<rect x="195.14199999999997" y="67.882" width="3.6359999999999997" height="3.6359999999999997" rx="4"></rect>
<rect x="7.281999999999999" y="73.94200000000001" width="3.6359999999999997" height="3.6359999999999997" rx="4"></rect>
<rect x="13.341999999999999" y="73.94200000000001" width="3.6359999999999997" height="3.6359999999999997" rx="4"></rect>
<rect x="25.462" y="73.94200000000001" width="3.6359999999999997" height="3.6359999999999997" rx="4"></rect>
<rect x="37.582" y="73.94200000000001" width="3.6359999999999997" height="3.6359999999999997" rx="4"></rect>
<rect x="43.641999999999996" y="73.94200000000001" width="3.6359999999999997" height="3.6359999999999997" rx="4"></rect>
<rect x="55.762" y="73.94200000000001" width="3.6359999999999997" height="3.6359999999999997" rx="4"></rect>
<rect x="67.882" y="73.94200000000001" width="3.6359999999999997" height="3.6359999999999997" rx="4"></rect>
<rect x="110.302" y="73.94200000000001" width="3.6359999999999997" height="3.6359999999999997" rx="4"></rect>
<rect x="116.362" y="73.94200000000001" width="3.6359999999999997" height="3.6359999999999997" rx="4"></rect>
<rect x="128.482" y="73.94200000000001" width="3.6359999999999997" height="3.6359999999999997" rx="4"></rect>
<rect x="140.60199999999998" y="73.94200000000001" width="3.6359999999999997" height="3.6359999999999997" rx="4"></rect>
<rect x="146.66199999999998" y="73.94200000000001" width="3.6359999999999997" height="3.6359999999999997" rx="4"></rect>
<rect x="152.72199999999998" y="73.94200000000001" width="3.6359999999999997" height="3.6359999999999997" rx="4"></rect>
<rect x="164.84199999999996" y="73.94200000000001" width="3.6359999999999997" height="3.6359999999999997" rx="4"></rect>
<rect x="170.90199999999996" y="73.94200000000001" width="3.6359999999999997" height="3.6359999999999997" rx="4"></rect>
<rect x="176.96199999999996" y="73.94200000000001" width="3.6359999999999997" height="3.6359999999999997" rx="4"></rect>
<rect x="1.222" y="80.00200000000001" width="3.6359999999999997" height="3.6359999999999997" rx="4"></rect>
<rect x="13.341999999999999" y="80.00200000000001" width="3.6359999999999997" height="3.6359999999999997" rx="4"></rect>
<rect x="49.702" y="80.00200000000001" width="3.6359999999999997" height="3.6359999999999997" rx="4"></rect>
<rect x="67.882" y="80.00200000000001" width="3.6359999999999997" height="3.6359999999999997" rx="4"></rect>
<rect x="80.00200000000001" y="80.00200000000001" width="3.6359999999999997" height="3.6359999999999997" rx="4"></rect>
<rect x="92.122" y="80.00200000000001" width="3.6359999999999997" height="3.6359999999999997" rx="4"></rect>
<rect x="98.182" y="80.00200000000001" width="3.6359999999999997" height="3.6359999999999997" rx="4"></rect>
<rect x="122.422" y="80.00200000000001" width="3.6359999999999997" height="3.6359999999999997" rx="4"></rect>
<rect x="140.60199999999998" y="80.00200000000001" width="3.6359999999999997" height="3.6359999999999997" rx="4"></rect>
<rect x="158.78199999999998" y="80.00200000000001" width="3.6359999999999997" height="3.6359999999999997" rx="4"></rect>
<rect x="176.96199999999996" y="80.00200000000001" width="3.6359999999999997" height="3.6359999999999997" rx="4"></rect>
<rect x="189.08199999999997" y="80.00200000000001" width="3.6359999999999997" height="3.6359999999999997" rx="4"></rect>
<rect x="195.14199999999997" y="80.00200000000001" width="3.6359999999999997" height="3.6359999999999997" rx="4"></rect>
<rect x="1.222" y="86.062" width="3.6359999999999997" height="3.6359999999999997" rx="4"></rect>
<rect x="7.281999999999999" y="86.062" width="3.6359999999999997" height="3.6359999999999997" rx="4"></rect>
<rect x="19.402" y="86.062" width="3.6359999999999997" height="3.6359999999999997" rx="4"></rect>
<rect x="25.462" y="86.062" width="3.6359999999999997" height="3.6359999999999997" rx="4"></rect>
<rect x="37.582" y="86.062" width="3.6359999999999997" height="3.6359999999999997" rx="4"></rect>
<rect x="43.641999999999996" y="86.062" width="3.6359999999999997" height="3.6359999999999997" rx="4"></rect>
<rect x="67.882" y="86.062" width="3.6359999999999997" height="3.6359999999999997" rx="4"></rect>
<rect x="80.00200000000001" y="86.062" width="3.6359999999999997" height="3.6359999999999997" rx="4"></rect>
<rect x="86.062" y="86.062" width="3.6359999999999997" height="3.6359999999999997" rx="4"></rect>
<rect x="92.122" y="86.062" width="3.6359999999999997" height="3.6359999999999997" rx="4"></rect>
<rect x="98.182" y="86.062" width="3.6359999999999997" height="3.6359999999999997" rx="4"></rect>
<rect x="104.242" y="86.062" width="3.6359999999999997" height="3.6359999999999997" rx="4"></rect>
<rect x="110.302" y="86.062" width="3.6359999999999997" height="3.6359999999999997" rx="4"></rect>
<rect x="116.362" y="86.062" width="3.6359999999999997" height="3.6359999999999997" rx="4"></rect>
<rect x="128.482" y="86.062" width="3.6359999999999997" height="3.6359999999999997" rx="4"></rect>
<rect x="146.66199999999998" y="86.062" width="3.6359999999999997" height="3.6359999999999997" rx="4"></rect>
<rect x="152.72199999999998" y="86.062" width="3.6359999999999997" height="3.6359999999999997" rx="4"></rect>
<rect x="170.90199999999996" y="86.062" width="3.6359999999999997" height="3.6359999999999997" rx="4"></rect>
<rect x="176.96199999999996" y="86.062" width="3.6359999999999997" height="3.6359999999999997" rx="4"></rect>
<rect x="183.02199999999996" y="86.062" width="3.6359999999999997" height="3.6359999999999997" rx="4"></rect>
<rect x="189.08199999999997" y="86.062" width="3.6359999999999997" height="3.6359999999999997" rx="4"></rect>
<rect x="31.522" y="92.122" width="3.6359999999999997" height="3.6359999999999997" rx="4"></rect>
<rect x="43.641999999999996" y="92.122" width="3.6359999999999997" height="3.6359999999999997" rx="4"></rect>
<rect x="61.821999999999996" y="92.122" width="3.6359999999999997" height="3.6359999999999997" rx="4"></rect>
<rect x="80.00200000000001" y="92.122" width="3.6359999999999997" height="3.6359999999999997" rx="4"></rect>
<rect x="86.062" y="92.122" width="3.6359999999999997" height="3.6359999999999997" rx="4"></rect>
<rect x="92.122" y="92.122" width="3.6359999999999997" height="3.6359999999999997" rx="4"></rect>
<rect x="110.302" y="92.122" width="3.6359999999999997" height="3.6359999999999997" rx="4"></rect>
<rect x="116.362" y="92.122" width="3.6359999999999997" height="3.6359999999999997" rx="4"></rect>
<rect x="122.422" y="92.122" width="3.6359999999999997" height="3.6359999999999997" rx="4"></rect>
<rect x="128.482" y="92.122" width="3.6359999999999997" height="3.6359999999999997" rx="4"></rect>
<rect x="134.54199999999997" y="92.122" width="3.6359999999999997" height="3.6359999999999997" rx="4"></rect>
<rect x="152.72199999999998" y="92.122" width="3.6359999999999997" height="3.6359999999999997" rx="4"></rect>
<rect x="164.84199999999996" y="92.122" width="3.6359999999999997" height="3.6359999999999997" rx="4"></rect>
<rect x="176.96199999999996" y="92.122" width="3.6359999999999997" height="3.6359999999999997" rx="4"></rect>
<rect x="183.02199999999996" y="92.122" width="3.6359999999999997" height="3.6359999999999997" rx="4"></rect>
<rect x="7.281999999999999" y="98.182" width="3.6359999999999997" height="3.6359999999999997" rx="4"></rect>
<rect x="13.341999999999999" y="98.182" width="3.6359999999999997" height="3.6359999999999997" rx="4"></rect>
<rect x="19.402" y="98.182" width="3.6359999999999997" height="3.6359999999999997" rx="4"></rect>
<rect x="31.522" y="98.182" width="3.6359999999999997" height="3.6359999999999997" rx="4"></rect>
<rect x="37.582" y="98.182" width="3.6359999999999997" height="3.6359999999999997" rx="4"></rect>
<rect x="49.702" y="98.182" width="3.6359999999999997" height="3.6359999999999997" rx="4"></rect>
<rect x="98.182" y="98.182" width="3.6359999999999997" height="3.6359999999999997" rx="4"></rect>
<rect x="104.242" y="98.182" width="3.6359999999999997" height="3.6359999999999997" rx="4"></rect>
<rect x="116.362" y="98.182" width="3.6359999999999997" height="3.6359999999999997" rx="4"></rect>
<rect x="146.66199999999998" y="98.182" width="3.6359999999999997" height="3.6359999999999997" rx="4"></rect>
<rect x="164.84199999999996" y="98.182" width="3.6359999999999997" height="3.6359999999999997" rx="4"></rect>
<rect x="170.90199999999996" y="98.182" width="3.6359999999999997" height="3.6359999999999997" rx="4"></rect>
<rect x="176.96199999999996" y="98.182" width="3.6359999999999997" height="3.6359999999999997" rx="4"></rect>
<rect x="195.14199999999997" y="98.182" width="3.6359999999999997" height="3.6359999999999997" rx="4"></rect>
<rect x="25.462" y="104.242" width="3.6359999999999997" height="3.6359999999999997" rx="4"></rect>
<rect x="31.522" y="104.242" width="3.6359999999999997" height="3.6359999999999997" rx="4"></rect>
<rect x="43.641999999999996" y="104.242" width="3.6359999999999997" height="3.6359999999999997" rx="4"></rect>
<rect x="55.762" y="104.242" width="3.6359999999999997" height="3.6359999999999997" rx="4"></rect>
<rect x="73.94200000000001" y="104.242" width="3.6359999999999997" height="3.6359999999999997" rx="4"></rect>
<rect x="80.00200000000001" y="104.242" width="3.6359999999999997" height="3.6359999999999997" rx="4"></rect>
<rect x="86.062" y="104.242" width="3.6359999999999997" height="3.6359999999999997" rx="4"></rect>
<rect x="92.122" y="104.242" width="3.6359999999999997" height="3.6359999999999997" rx="4"></rect>
<rect x="116.362" y="104.242" width="3.6359999999999997" height="3.6359999999999997" rx="4"></rect>
<rect x="140.60199999999998" y="104.242" width="3.6359999999999997" height="3.6359999999999997" rx="4"></rect>
<rect x="158.78199999999998" y="104.242" width="3.6359999999999997" height="3.6359999999999997" rx="4"></rect>
<rect x="164.84199999999996" y="104.242" width="3.6359999999999997" height="3.6359999999999997" rx="4"></rect>
<rect x="176.96199999999996" y="104.242" width="3.6359999999999997" height="3.6359999999999997" rx="4"></rect>
<rect x="183.02199999999996" y="104.242" width="3.6359999999999997" height="3.6359999999999997" rx="4"></rect>
<rect x="189.08199999999997" y="104.242" width="3.6359999999999997" height="3.6359999999999997" rx="4"></rect>
<rect x="195.14199999999997" y="104.242" width="3.6359999999999997" height="3.6359999999999997" rx="4"></rect>
<rect x="1.222" y="110.302" width="3.6359999999999997" height="3.6359999999999997" rx="4"></rect>
<rect x="7.281999999999999" y="110.302" width="3.6359999999999997" height="3.6359999999999997" rx="4"></rect>
<rect x="13.341999999999999" y="110.302" width="3.6359999999999997" height="3.6359999999999997" rx="4"></rect>
<rect x="31.522" y="110.302" width="3.6359999999999997" height="3.6359999999999997" rx="4"></rect>
<rect x="37.582" y="110.302" width="3.6359999999999997" height="3.6359999999999997" rx="4"></rect>
<rect x="49.702" y="110.302" width="3.6359999999999997" height="3.6359999999999997" rx="4"></rect>
<rect x="80.00200000000001" y="110.302" width="3.6359999999999997" height="3.6359999999999997" rx="4"></rect>
<rect x="86.062" y="110.302" width="3.6359999999999997" height="3.6359999999999997" rx="4"></rect>
<rect x="134.54199999999997" y="110.302" width="3.6359999999999997" height="3.6359999999999997" rx="4"></rect>
<rect x="152.72199999999998" y="110.302" width="3.6359999999999997" height="3.6359999999999997" rx="4"></rect>
<rect x="158.78199999999998" y="110.302" width="3.6359999999999997" height="3.6359999999999997" rx="4"></rect>
<rect x="170.90199999999996" y="110.302" width="3.6359999999999997" height="3.6359999999999997" rx="4"></rect>
<rect x="183.02199999999996" y="110.302" width="3.6359999999999997" height="3.6359999999999997" rx="4"></rect>
<rect x="189.08199999999997" y="110.302" width="3.6359999999999997" height="3.6359999999999997" rx="4"></rect>
<rect x="13.341999999999999" y="116.362" width="3.6359999999999997" height="3.6359999999999997" rx="4"></rect>
<rect x="19.402" y="116.362" width="3.6359999999999997" height="3.6359999999999997" rx="4"></rect>
<rect x="25.462" y="116.362" width="3.6359999999999997" height="3.6359999999999997" rx="4"></rect>
<rect x="31.522" y="116.362" width="3.6359999999999997" height="3.6359999999999997" rx="4"></rect>
<rect x="49.702" y="116.362" width="3.6359999999999997" height="3.6359999999999997" rx="4"></rect>
<rect x="73.94200000000001" y="116.362" width="3.6359999999999997" height="3.6359999999999997" rx="4"></rect>
<rect x="86.062" y="116.362" width="3.6359999999999997" height="3.6359999999999997" rx="4"></rect>
<rect x="92.122" y="116.362" width="3.6359999999999997" height="3.6359999999999997" rx="4"></rect>
<rect x="98.182" y="116.362" width="3.6359999999999997" height="3.6359999999999997" rx="4"></rect>
<rect x="104.242" y="116.362" width="3.6359999999999997" height="3.6359999999999997" rx="4"></rect>
<rect x="110.302" y="116.362" width="3.6359999999999997" height="3.6359999999999997" rx="4"></rect>
<rect x="122.422" y="116.362" width="3.6359999999999997" height="3.6359999999999997" rx="4"></rect>
<rect x="146.66199999999998" y="116.362" width="3.6359999999999997" height="3.6359999999999997" rx="4"></rect>
<rect x="158.78199999999998" y="116.362" width="3.6359999999999997" height="3.6359999999999997" rx="4"></rect>
<rect x="170.90199999999996" y="116.362" width="3.6359999999999997" height="3.6359999999999997" rx="4"></rect>
<rect x="176.96199999999996" y="116.362" width="3.6359999999999997" height="3.6359999999999997" rx="4"></rect>
<rect x="183.02199999999996" y="116.362" width="3.6359999999999997" height="3.6359999999999997" rx="4"></rect>
<rect x="189.08199999999997" y="116.362" width="3.6359999999999997" height="3.6359999999999997" rx="4"></rect>
<rect x="1.222" y="122.422" width="3.6359999999999997" height="3.6359999999999997" rx="4"></rect>
<rect x="7.281999999999999" y="122.422" width="3.6359999999999997" height="3.6359999999999997" rx="4"></rect>
<rect x="37.582" y="122.422" width="3.6359999999999997" height="3.6359999999999997" rx="4"></rect>
<rect x="43.641999999999996" y="122.422" width="3.6359999999999997" height="3.6359999999999997" rx="4"></rect>
<rect x="67.882" y="122.422" width="3.6359999999999997" height="3.6359999999999997" rx="4"></rect>
<rect x="86.062" y="122.422" width="3.6359999999999997" height="3.6359999999999997" rx="4"></rect>
<rect x="98.182" y="122.422" width="3.6359999999999997" height="3.6359999999999997" rx="4"></rect>
<rect x="122.422" y="122.422" width="3.6359999999999997" height="3.6359999999999997" rx="4"></rect>
<rect x="128.482" y="122.422" width="3.6359999999999997" height="3.6359999999999997" rx="4"></rect>
<rect x="134.54199999999997" y="122.422" width="3.6359999999999997" height="3.6359999999999997" rx="4"></rect>
<rect x="140.60199999999998" y="122.422" width="3.6359999999999997" height="3.6359999999999997" rx="4"></rect>
<rect x="152.72199999999998" y="122.422" width="3.6359999999999997" height="3.6359999999999997" rx="4"></rect>
<rect x="170.90199999999996" y="122.422" width="3.6359999999999997" height="3.6359999999999997" rx="4"></rect>
<rect x="176.96199999999996" y="122.422" width="3.6359999999999997" height="3.6359999999999997" rx="4"></rect>
<rect x="189.08199999999997" y="122.422" width="3.6359999999999997" height="3.6359999999999997" rx="4"></rect>
<rect x="1.222" y="128.482" width="3.6359999999999997" height="3.6359999999999997" rx="4"></rect>
<rect x="7.281999999999999" y="128.482" width="3.6359999999999997" height="3.6359999999999997" rx="4"></rect>
<rect x="13.341999999999999" y="128.482" width="3.6359999999999997" height="3.6359999999999997" rx="4"></rect>
<rect x="25.462" y="128.482" width="3.6359999999999997" height="3.6359999999999997" rx="4"></rect>
<rect x="31.522" y="128.482" width="3.6359999999999997" height="3.6359999999999997" rx="4"></rect>
<rect x="43.641999999999996" y="128.482" width="3.6359999999999997" height="3.6359999999999997" rx="4"></rect>
<rect x="49.702" y="128.482" width="3.6359999999999997" height="3.6359999999999997" rx="4"></rect>
<rect x="55.762" y="128.482" width="3.6359999999999997" height="3.6359999999999997" rx="4"></rect>
<rect x="61.821999999999996" y="128.482" width="3.6359999999999997" height="3.6359999999999997" rx="4"></rect>
<rect x="80.00200000000001" y="128.482" width="3.6359999999999997" height="3.6359999999999997" rx="4"></rect>
<rect x="98.182" y="128.482" width="3.6359999999999997" height="3.6359999999999997" rx="4"></rect>
<rect x="104.242" y="128.482" width="3.6359999999999997" height="3.6359999999999997" rx="4"></rect>
<rect x="110.302" y="128.482" width="3.6359999999999997" height="3.6359999999999997" rx="4"></rect>
<rect x="140.60199999999998" y="128.482" width="3.6359999999999997" height="3.6359999999999997" rx="4"></rect>
<rect x="152.72199999999998" y="128.482" width="3.6359999999999997" height="3.6359999999999997" rx="4"></rect>
<rect x="158.78199999999998" y="128.482" width="3.6359999999999997" height="3.6359999999999997" rx="4"></rect>
<rect x="183.02199999999996" y="128.482" width="3.6359999999999997" height="3.6359999999999997" rx="4"></rect>
<rect x="195.14199999999997" y="128.482" width="3.6359999999999997" height="3.6359999999999997" rx="4"></rect>
<rect x="1.222" y="134.54199999999997" width="3.6359999999999997" height="3.6359999999999997" rx="4"></rect>
<rect x="19.402" y="134.54199999999997" width="3.6359999999999997" height="3.6359999999999997" rx="4"></rect>
<rect x="25.462" y="134.54199999999997" width="3.6359999999999997" height="3.6359999999999997" rx="4"></rect>
<rect x="31.522" y="134.54199999999997" width="3.6359999999999997" height="3.6359999999999997" rx="4"></rect>
<rect x="37.582" y="134.54199999999997" width="3.6359999999999997" height="3.6359999999999997" rx="4"></rect>
<rect x="49.702" y="134.54199999999997" width="3.6359999999999997" height="3.6359999999999997" rx="4"></rect>
<rect x="61.821999999999996" y="134.54199999999997" width="3.6359999999999997" height="3.6359999999999997" rx="4"></rect>
<rect x="86.062" y="134.54199999999997" width="3.6359999999999997" height="3.6359999999999997" rx="4"></rect>
<rect x="104.242" y="134.54199999999997" width="3.6359999999999997" height="3.6359999999999997" rx="4"></rect>
<rect x="110.302" y="134.54199999999997" width="3.6359999999999997" height="3.6359999999999997" rx="4"></rect>
<rect x="122.422" y="134.54199999999997" width="3.6359999999999997" height="3.6359999999999997" rx="4"></rect>
<rect x="134.54199999999997" y="134.54199999999997" width="3.6359999999999997" height="3.6359999999999997" rx="4"></rect>
<rect x="152.72199999999998" y="134.54199999999997" width="3.6359999999999997" height="3.6359999999999997" rx="4"></rect>
<rect x="158.78199999999998" y="134.54199999999997" width="3.6359999999999997" height="3.6359999999999997" rx="4"></rect>
<rect x="183.02199999999996" y="134.54199999999997" width="3.6359999999999997" height="3.6359999999999997" rx="4"></rect>
<rect x="189.08199999999997" y="134.54199999999997" width="3.6359999999999997" height="3.6359999999999997" rx="4"></rect>
<rect x="1.222" y="140.60199999999998" width="3.6359999999999997" height="3.6359999999999997" rx="4"></rect>
<rect x="19.402" y="140.60199999999998" width="3.6359999999999997" height="3.6359999999999997" rx="4"></rect>
<rect x="31.522" y="140.60199999999998" width="3.6359999999999997" height="3.6359999999999997" rx="4"></rect>
<rect x="49.702" y="140.60199999999998" width="3.6359999999999997" height="3.6359999999999997" rx="4"></rect>
<rect x="55.762" y="140.60199999999998" width="3.6359999999999997" height="3.6359999999999997" rx="4"></rect>
<rect x="73.94200000000001" y="140.60199999999998" width="3.6359999999999997" height="3.6359999999999997" rx="4"></rect>
<rect x="92.122" y="140.60199999999998" width="3.6359999999999997" height="3.6359999999999997" rx="4"></rect>
<rect x="98.182" y="140.60199999999998" width="3.6359999999999997" height="3.6359999999999997" rx="4"></rect>
<rect x="128.482" y="140.60199999999998" width="3.6359999999999997" height="3.6359999999999997" rx="4"></rect>
<rect x="146.66199999999998" y="140.60199999999998" width="3.6359999999999997" height="3.6359999999999997" rx="4"></rect>
<rect x="158.78199999999998" y="140.60199999999998" width="3.6359999999999997" height="3.6359999999999997" rx="4"></rect>
<rect x="176.96199999999996" y="140.60199999999998" width="3.6359999999999997" height="3.6359999999999997" rx="4"></rect>
<rect x="183.02199999999996" y="140.60199999999998" width="3.6359999999999997" height="3.6359999999999997" rx="4"></rect>
<rect x="195.14199999999997" y="140.60199999999998" width="3.6359999999999997" height="3.6359999999999997" rx="4"></rect>
<rect x="1.222" y="146.66199999999998" width="3.6359999999999997" height="3.6359999999999997" rx="4"></rect>
<rect x="19.402" y="146.66199999999998" width="3.6359999999999997" height="3.6359999999999997" rx="4"></rect>
<rect x="25.462" y="146.66199999999998" width="3.6359999999999997" height="3.6359999999999997" rx="4"></rect>
<rect x="37.582" y="146.66199999999998" width="3.6359999999999997" height="3.6359999999999997" rx="4"></rect>
<rect x="43.641999999999996" y="146.66199999999998" width="3.6359999999999997" height="3.6359999999999997" rx="4"></rect>
<rect x="49.702" y="146.66199999999998" width="3.6359999999999997" height="3.6359999999999997" rx="4"></rect>
<rect x="67.882" y="146.66199999999998" width="3.6359999999999997" height="3.6359999999999997" rx="4"></rect>
<rect x="92.122" y="146.66199999999998" width="3.6359999999999997" height="3.6359999999999997" rx="4"></rect>
<rect x="98.182" y="146.66199999999998" width="3.6359999999999997" height="3.6359999999999997" rx="4"></rect>
<rect x="122.422" y="146.66199999999998" width="3.6359999999999997" height="3.6359999999999997" rx="4"></rect>
<rect x="134.54199999999997" y="146.66199999999998" width="3.6359999999999997" height="3.6359999999999997" rx="4"></rect>
<rect x="176.96199999999996" y="146.66199999999998" width="3.6359999999999997" height="3.6359999999999997" rx="4"></rect>
<rect x="189.08199999999997" y="146.66199999999998" width="3.6359999999999997" height="3.6359999999999997" rx="4"></rect>
<rect x="49.702" y="152.72199999999998" width="3.6359999999999997" height="3.6359999999999997" rx="4"></rect>
<rect x="55.762" y="152.72199999999998" width="3.6359999999999997" height="3.6359999999999997" rx="4"></rect>
<rect x="61.821999999999996" y="152.72199999999998" width="3.6359999999999997" height="3.6359999999999997" rx="4"></rect>
<rect x="80.00200000000001" y="152.72199999999998" width="3.6359999999999997" height="3.6359999999999997" rx="4"></rect>
<rect x="98.182" y="152.72199999999998" width="3.6359999999999997" height="3.6359999999999997" rx="4"></rect>
<rect x="116.362" y="152.72199999999998" width="3.6359999999999997" height="3.6359999999999997" rx="4"></rect>
<rect x="122.422" y="152.72199999999998" width="3.6359999999999997" height="3.6359999999999997" rx="4"></rect>
<rect x="128.482" y="152.72199999999998" width="3.6359999999999997" height="3.6359999999999997" rx="4"></rect>
<rect x="183.02199999999996" y="152.72199999999998" width="3.6359999999999997" height="3.6359999999999997" rx="4"></rect>
<rect x="195.14199999999997" y="152.72199999999998" width="3.6359999999999997" height="3.6359999999999997" rx="4"></rect>
<rect x="49.702" y="158.78199999999998" width="3.6359999999999997" height="3.6359999999999997" rx="4"></rect>
<rect x="80.00200000000001" y="158.78199999999998" width="3.6359999999999997" height="3.6359999999999997" rx="4"></rect>
<rect x="86.062" y="158.78199999999998" width="3.6359999999999997" height="3.6359999999999997" rx="4"></rect>
<rect x="110.302" y="158.78199999999998" width="3.6359999999999997" height="3.6359999999999997" rx="4"></rect>
<rect x="122.422" y="158.78199999999998" width="3.6359999999999997" height="3.6359999999999997" rx="4"></rect>
<rect x="128.482" y="158.78199999999998" width="3.6359999999999997" height="3.6359999999999997" rx="4"></rect>
<rect x="140.60199999999998" y="158.78199999999998" width="3.6359999999999997" height="3.6359999999999997" rx="4"></rect>
<rect x="152.72199999999998" y="146.66199999999998" width="21.816" height="3.6359999999999997" rx="2"></rect>
<rect x="170.902" y="152.72199999999998" width="3.6359999999999997" height="21.816" rx="2"></rect>
<rect x="146.66199999999998" y="170.902" width="21.816" height="3.6359999999999997" rx="2"></rect>
<rect x="146.66199999999998" y="146.66199999999998" width="3.6359999999999997" height="21.816" rx="2"></rect>
<rect x="158.78199999999998" y="158.78199999999998" width="3.6359999999999997" height="3.6359999999999997" rx="4"></rect>
<rect x="183.02199999999996" y="158.78199999999998" width="3.6359999999999997" height="3.6359999999999997" rx="4"></rect>
<rect x="189.08199999999997" y="158.78199999999998" width="3.6359999999999997" height="3.6359999999999997" rx="4"></rect>
<rect x="49.702" y="164.84199999999996" width="3.6359999999999997" height="3.6359999999999997" rx="4"></rect>
<rect x="61.821999999999996" y="164.84199999999996" width="3.6359999999999997" height="3.6359999999999997" rx="4"></rect>
<rect x="86.062" y="164.84199999999996" width="3.6359999999999997" height="3.6359999999999997" rx="4"></rect>
<rect x="92.122" y="164.84199999999996" width="3.6359999999999997" height="3.6359999999999997" rx="4"></rect>
<rect x="98.182" y="164.84199999999996" width="3.6359999999999997" height="3.6359999999999997" rx="4"></rect>
<rect x="104.242" y="164.84199999999996" width="3.6359999999999997" height="3.6359999999999997" rx="4"></rect>
<rect x="122.422" y="164.84199999999996" width="3.6359999999999997" height="3.6359999999999997" rx="4"></rect>
<rect x="128.482" y="164.84199999999996" width="3.6359999999999997" height="3.6359999999999997" rx="4"></rect>
<rect x="134.54199999999997" y="164.84199999999996" width="3.6359999999999997" height="3.6359999999999997" rx="4"></rect>
<rect x="140.60199999999998" y="164.84199999999996" width="3.6359999999999997" height="3.6359999999999997" rx="4"></rect>
<rect x="183.02199999999996" y="164.84199999999996" width="3.6359999999999997" height="3.6359999999999997" rx="4"></rect>
<rect x="49.702" y="170.90199999999996" width="3.6359999999999997" height="3.6359999999999997" rx="4"></rect>
<rect x="55.762" y="170.90199999999996" width="3.6359999999999997" height="3.6359999999999997" rx="4"></rect>
<rect x="80.00200000000001" y="170.90199999999996" width="3.6359999999999997" height="3.6359999999999997" rx="4"></rect>
<rect x="98.182" y="170.90199999999996" width="3.6359999999999997" height="3.6359999999999997" rx="4"></rect>
<rect x="128.482" y="170.90199999999996" width="3.6359999999999997" height="3.6359999999999997" rx="4"></rect>
<rect x="176.96199999999996" y="170.90199999999996" width="3.6359999999999997" height="3.6359999999999997" rx="4"></rect>
<rect x="189.08199999999997" y="170.90199999999996" width="3.6359999999999997" height="3.6359999999999997" rx="4"></rect>
<rect x="195.14199999999997" y="170.90199999999996" width="3.6359999999999997" height="3.6359999999999997" rx="4"></rect>
<rect x="49.702" y="176.96199999999996" width="3.6359999999999997" height="3.6359999999999997" rx="4"></rect>
<rect x="55.762" y="176.96199999999996" width="3.6359999999999997" height="3.6359999999999997" rx="4"></rect>
<rect x="61.821999999999996" y="176.96199999999996" width="3.6359999999999997" height="3.6359999999999997" rx="4"></rect>
<rect x="67.882" y="176.96199999999996" width="3.6359999999999997" height="3.6359999999999997" rx="4"></rect>
<rect x="86.062" y="176.96199999999996" width="3.6359999999999997" height="3.6359999999999997" rx="4"></rect>
<rect x="110.302" y="176.96199999999996" width="3.6359999999999997" height="3.6359999999999997" rx="4"></rect>
<rect x="122.422" y="176.96199999999996" width="3.6359999999999997" height="3.6359999999999997" rx="4"></rect>
<rect x="134.54199999999997" y="176.96199999999996" width="3.6359999999999997" height="3.6359999999999997" rx="4"></rect>
<rect x="146.66199999999998" y="176.96199999999996" width="3.6359999999999997" height="3.6359999999999997" rx="4"></rect>
<rect x="152.72199999999998" y="176.96199999999996" width="3.6359999999999997" height="3.6359999999999997" rx="4"></rect>
<rect x="164.84199999999996" y="176.96199999999996" width="3.6359999999999997" height="3.6359999999999997" rx="4"></rect>
<rect x="170.90199999999996" y="176.96199999999996" width="3.6359999999999997" height="3.6359999999999997" rx="4"></rect>
<rect x="183.02199999999996" y="176.96199999999996" width="3.6359999999999997" height="3.6359999999999997" rx="4"></rect>
<rect x="195.14199999999997" y="176.96199999999996" width="3.6359999999999997" height="3.6359999999999997" rx="4"></rect>
<rect x="49.702" y="183.02199999999996" width="3.6359999999999997" height="3.6359999999999997" rx="4"></rect>
<rect x="55.762" y="183.02199999999996" width="3.6359999999999997" height="3.6359999999999997" rx="4"></rect>
<rect x="67.882" y="183.02199999999996" width="3.6359999999999997" height="3.6359999999999997" rx="4"></rect>
<rect x="73.94200000000001" y="183.02199999999996" width="3.6359999999999997" height="3.6359999999999997" rx="4"></rect>
<rect x="104.242" y="183.02199999999996" width="3.6359999999999997" height="3.6359999999999997" rx="4"></rect>
<rect x="110.302" y="183.02199999999996" width="3.6359999999999997" height="3.6359999999999997" rx="4"></rect>
<rect x="116.362" y="183.02199999999996" width="3.6359999999999997" height="3.6359999999999997" rx="4"></rect>
<rect x="134.54199999999997" y="183.02199999999996" width="3.6359999999999997" height="3.6359999999999997" rx="4"></rect>
<rect x="146.66199999999998" y="183.02199999999996" width="3.6359999999999997" height="3.6359999999999997" rx="4"></rect>
<rect x="152.72199999999998" y="183.02199999999996" width="3.6359999999999997" height="3.6359999999999997" rx="4"></rect>
<rect x="158.78199999999998" y="183.02199999999996" width="3.6359999999999997" height="3.6359999999999997" rx="4"></rect>
<rect x="164.84199999999996" y="183.02199999999996" width="3.6359999999999997" height="3.6359999999999997" rx="4"></rect>
<rect x="49.702" y="189.08199999999997" width="3.6359999999999997" height="3.6359999999999997" rx="4"></rect>
<rect x="61.821999999999996" y="189.08199999999997" width="3.6359999999999997" height="3.6359999999999997" rx="4"></rect>
<rect x="80.00200000000001" y="189.08199999999997" width="3.6359999999999997" height="3.6359999999999997" rx="4"></rect>
<rect x="86.062" y="189.08199999999997" width="3.6359999999999997" height="3.6359999999999997" rx="4"></rect>
<rect x="116.362" y="189.08199999999997" width="3.6359999999999997" height="3.6359999999999997" rx="4"></rect>
<rect x="122.422" y="189.08199999999997" width="3.6359999999999997" height="3.6359999999999997" rx="4"></rect>
<rect x="128.482" y="189.08199999999997" width="3.6359999999999997" height="3.6359999999999997" rx="4"></rect>
<rect x="152.72199999999998" y="189.08199999999997" width="3.6359999999999997" height="3.6359999999999997" rx="4"></rect>
<rect x="164.84199999999996" y="189.08199999999997" width="3.6359999999999997" height="3.6359999999999997" rx="4"></rect>
<rect x="170.90199999999996" y="189.08199999999997" width="3.6359999999999997" height="3.6359999999999997" rx="4"></rect>
<rect x="176.96199999999996" y="189.08199999999997" width="3.6359999999999997" height="3.6359999999999997" rx="4"></rect>
<rect x="183.02199999999996" y="189.08199999999997" width="3.6359999999999997" height="3.6359999999999997" rx="4"></rect>
<rect x="55.762" y="195.14199999999997" width="3.6359999999999997" height="3.6359999999999997" rx="4"></rect>
<rect x="92.122" y="195.14199999999997" width="3.6359999999999997" height="3.6359999999999997" rx="4"></rect>
<rect x="110.302" y="195.14199999999997" width="3.6359999999999997" height="3.6359999999999997" rx="4"></rect>
<rect x="116.362" y="195.14199999999997" width="3.6359999999999997" height="3.6359999999999997" rx="4"></rect>
<rect x="134.54199999999997" y="195.14199999999997" width="3.6359999999999997" height="3.6359999999999997" rx="4"></rect>
<rect x="140.60199999999998" y="195.14199999999997" width="3.6359999999999997" height="3.6359999999999997" rx="4"></rect>
<rect x="146.66199999999998" y="195.14199999999997" width="3.6359999999999997" height="3.6359999999999997" rx="4"></rect>
<rect x="164.84199999999996" y="195.14199999999997" width="3.6359999999999997" height="3.6359999999999997" rx="4"></rect>
<rect x="170.90199999999996" y="195.14199999999997" width="3.6359999999999997" height="3.6359999999999997" rx="4"></rect>
<rect x="189.08199999999997" y="195.14199999999997" width="3.6359999999999997" height="3.6359999999999997" rx="4"></rect>
<rect x="73.94200000000001" y="43.641999999999996" width="15.756" height="3.6359999999999997" rx="2"></rect>
<rect x="19.402" y="134.54199999999997" width="21.816" height="3.6359999999999997" rx="2"></rect>
<rect x="104.242" y="134.54199999999997" width="9.696" height="3.6359999999999997" rx="2"></rect>
<rect x="152.72199999999998" y="134.54199999999997" width="9.696" height="3.6359999999999997" rx="2"></rect>
<rect x="183.02199999999996" y="134.54199999999997" width="9.696" height="3.6359999999999997" rx="2"></rect>
<rect x="49.702" y="183.02199999999996" width="9.696" height="3.6359999999999997" rx="2"></rect>
<rect x="67.882" y="183.02199999999996" width="9.696" height="3.6359999999999997" rx="2"></rect>
<rect x="104.242" y="183.02199999999996" width="15.756" height="3.6359999999999997" rx="2"></rect>
<rect x="146.66199999999998" y="183.02199999999996" width="21.816" height="3.6359999999999997" rx="2"></rect>
<rect x="110.302" y="195.14199999999997" width="9.696" height="3.6359999999999997" rx="2"></rect>
<rect x="134.54199999999997" y="195.14199999999997" width="15.756" height="3.6359999999999997" rx="2"></rect>
<rect x="164.84199999999996" y="195.14199999999997" width="9.696" height="3.6359999999999997" rx="2"></rect>
<rect x="43.641999999999996" y="67.882" width="3.6359999999999997" height="9.696" rx="2"></rect>
<rect x="43.641999999999996" y="86.062" width="3.6359999999999997" height="9.696" rx="2"></rect>
<rect x="43.641999999999996" y="122.422" width="3.6359999999999997" height="9.696" rx="2"></rect>
<rect x="183.02199999999996" y="55.762" width="3.6359999999999997" height="15.756" rx="2"></rect>
<rect x="183.02199999999996" y="86.062" width="3.6359999999999997" height="9.696" rx="2"></rect>
<rect x="183.02199999999996" y="104.242" width="3.6359999999999997" height="15.756" rx="2"></rect>
<rect x="183.02199999999996" y="128.482" width="3.6359999999999997" height="3.6359999999999997" rx="2"></rect>
<rect x="183.02199999999996" y="152.72199999999998" width="3.6359999999999997" height="15.756" rx="2"></rect>
<rect x="1.222" y="86.062" width="9.696" height="3.6359999999999997" rx="2"></rect>
<rect x="19.402" y="86.062" width="9.696" height="3.6359999999999997" rx="2"></rect>
<rect x="80.00200000000001" y="86.062" width="39.995999999999995" height="3.6359999999999997" rx="2"></rect>
<rect x="146.66199999999998" y="86.062" width="9.696" height="3.6359999999999997" rx="2"></rect>
<rect x="170.90199999999996" y="61.821999999999996" width="3.6359999999999997" height="15.756" rx="2"></rect>
<rect x="170.90199999999996" y="110.302" width="3.6359999999999997" height="15.756" rx="2"></rect>
<rect x="170.90199999999996" y="189.08199999999997" width="3.6359999999999997" height="3.6359999999999997" rx="2"></rect>
<rect x="7.281999999999999" y="73.94200000000001" width="9.696" height="3.6359999999999997" rx="2"></rect>
<rect x="110.302" y="73.94200000000001" width="9.696" height="3.6359999999999997" rx="2"></rect>
<rect x="140.60199999999998" y="73.94200000000001" width="15.756" height="3.6359999999999997" rx="2"></rect>
<rect x="152.72199999999998" y="61.821999999999996" width="3.6359999999999997" height="9.696" rx="2"></rect>
<rect x="152.72199999999998" y="122.422" width="3.6359999999999997" height="9.696" rx="2"></rect>
<rect x="152.72199999999998" y="176.96199999999996" width="3.6359999999999997" height="3.6359999999999997" rx="2"></rect>
<rect x="7.281999999999999" y="98.182" width="15.756" height="3.6359999999999997" rx="2"></rect>
<rect x="31.522" y="98.182" width="9.696" height="3.6359999999999997" rx="2"></rect>
<rect x="98.182" y="98.182" width="9.696" height="3.6359999999999997" rx="2"></rect>
<rect x="164.84199999999996" y="98.182" width="15.756" height="3.6359999999999997" rx="2"></rect>
<rect x="164.84199999999996" y="92.122" width="3.6359999999999997" height="3.6359999999999997" rx="2"></rect>
<rect x="164.84199999999996" y="176.96199999999996" width="3.6359999999999997" height="3.6359999999999997" rx="2"></rect>
<rect x="164.84199999999996" y="189.08199999999997" width="3.6359999999999997" height="3.6359999999999997" rx="2"></rect>
<rect x="49.702" y="140.60199999999998" width="9.696" height="3.6359999999999997" rx="2"></rect>
<rect x="92.122" y="140.60199999999998" width="9.696" height="3.6359999999999997" rx="2"></rect>
<rect x="176.96199999999996" y="140.60199999999998" width="9.696" height="3.6359999999999997" rx="2"></rect>
<rect x="176.96199999999996" y="67.882" width="3.6359999999999997" height="27.875999999999998" rx="2"></rect>
<rect x="176.96199999999996" y="116.362" width="3.6359999999999997" height="9.696" rx="2"></rect>
<rect x="13.341999999999999" y="116.362" width="21.816" height="3.6359999999999997" rx="2"></rect>
<rect x="86.062" y="116.362" width="27.875999999999998" height="3.6359999999999997" rx="2"></rect>
<rect x="55.762" y="7.281999999999999" width="3.6359999999999997" height="21.816" rx="2"></rect>
<rect x="55.762" y="49.702" width="3.6359999999999997" height="9.696" rx="2"></rect>
<rect x="55.762" y="67.882" width="3.6359999999999997" height="9.696" rx="2"></rect>
<rect x="55.762" y="170.90199999999996" width="3.6359999999999997" height="9.696" rx="2"></rect>
<rect x="25.462" y="128.482" width="3.6359999999999997" height="3.6359999999999997" rx="2"></rect>
<rect x="92.122" y="7.281999999999999" width="15.756" height="3.6359999999999997" rx="2"></rect>
<rect x="86.062" y="37.582" width="3.6359999999999997" height="3.6359999999999997" rx="2"></rect>
<rect x="86.062" y="104.242" width="3.6359999999999997" height="9.696" rx="2"></rect>
<rect x="86.062" y="158.78199999999998" width="3.6359999999999997" height="9.696" rx="2"></rect>
<rect x="61.821999999999996" y="31.522" width="3.6359999999999997" height="9.696" rx="2"></rect>
<rect x="61.821999999999996" y="128.482" width="3.6359999999999997" height="9.696" rx="2"></rect>
<rect x="1.222" y="110.302" width="15.756" height="3.6359999999999997" rx="2"></rect>
<rect x="31.522" y="110.302" width="9.696" height="3.6359999999999997" rx="2"></rect>
<rect x="152.72199999999998" y="110.302" width="9.696" height="3.6359999999999997" rx="2"></rect>
<rect x="92.122" y="80.00200000000001" width="9.696" height="3.6359999999999997" rx="2"></rect>
<rect x="189.08199999999997" y="80.00200000000001" width="9.696" height="3.6359999999999997" rx="2"></rect>
<rect x="110.302" y="55.762" width="15.756" height="3.6359999999999997" rx="2"></rect>
<rect x="73.94200000000001" y="31.522" width="3.6359999999999997" height="9.696" rx="2"></rect>
<rect x="73.94200000000001" y="61.821999999999996" width="3.6359999999999997" height="9.696" rx="2"></rect>
<rect x="49.702" y="152.72199999999998" width="15.756" height="3.6359999999999997" rx="2"></rect>
<rect x="116.362" y="152.72199999999998" width="15.756" height="3.6359999999999997" rx="2"></rect>
<rect x="1.222" y="80.00200000000001" width="3.6359999999999997" height="3.6359999999999997" rx="2"></rect>
<rect x="1.222" y="122.422" width="3.6359999999999997" height="27.875999999999998" rx="2"></rect>
<rect x="19.402" y="140.60199999999998" width="3.6359999999999997" height="9.696" rx="2"></rect>
<rect x="67.882" y="7.281999999999999" width="3.6359999999999997" height="9.696" rx="2"></rect>
<rect x="67.882" y="25.462" width="3.6359999999999997" height="9.696" rx="2"></rect>
<rect x="67.882" y="61.821999999999996" width="3.6359999999999997" height="27.875999999999998" rx="2"></rect>
<rect x="67.882" y="176.96199999999996" width="3.6359999999999997" height="3.6359999999999997" rx="2"></rect>
<rect x="80.00200000000001" y="189.08199999999997" width="9.696" height="3.6359999999999997" rx="2"></rect>
<rect x="116.362" y="189.08199999999997" width="15.756" height="3.6359999999999997" rx="2"></rect>
<rect x="140.60199999999998" y="19.402" width="3.6359999999999997" height="9.696" rx="2"></rect>
<rect x="140.60199999999998" y="49.702" width="3.6359999999999997" height="9.696" rx="2"></rect>
<rect x="140.60199999999998" y="67.882" width="3.6359999999999997" height="3.6359999999999997" rx="2"></rect>
<rect x="140.60199999999998" y="122.422" width="3.6359999999999997" height="9.696" rx="2"></rect>
<rect x="140.60199999999998" y="158.78199999999998" width="3.6359999999999997" height="9.696" rx="2"></rect>
<rect x="158.78199999999998" y="104.242" width="3.6359999999999997" height="3.6359999999999997" rx="2"></rect>
<rect x="158.78199999999998" y="128.482" width="3.6359999999999997" height="3.6359999999999997" rx="2"></rect>
<rect x="189.08199999999997" y="170.90199999999996" width="9.696" height="3.6359999999999997" rx="2"></rect>
<rect x="49.702" y="25.462" width="3.6359999999999997" height="15.756" rx="2"></rect>
<rect x="49.702" y="110.302" width="3.6359999999999997" height="9.696" rx="2"></rect>
<rect x="49.702" y="128.482" width="3.6359999999999997" height="9.696" rx="2"></rect>
<rect x="49.702" y="146.66199999999998" width="3.6359999999999997" height="3.6359999999999997" rx="2"></rect>
<rect x="49.702" y="158.78199999999998" width="3.6359999999999997" height="21.816" rx="2"></rect>
<rect x="80.00200000000001" y="25.462" width="21.816" height="3.6359999999999997" rx="2"></rect>
<rect x="128.482" y="25.462" width="3.6359999999999997" height="9.696" rx="2"></rect>
<rect x="128.482" y="67.882" width="3.6359999999999997" height="9.696" rx="2"></rect>
<rect x="128.482" y="86.062" width="3.6359999999999997" height="9.696" rx="2"></rect>
<rect x="128.482" y="158.78199999999998" width="3.6359999999999997" height="15.756" rx="2"></rect>
<rect x="31.522" y="92.122" width="3.6359999999999997" height="3.6359999999999997" rx="2"></rect>
<rect x="31.522" y="104.242" width="3.6359999999999997" height="3.6359999999999997" rx="2"></rect>
<rect x="31.522" y="128.482" width="3.6359999999999997" height="3.6359999999999997" rx="2"></rect>
<rect x="104.242" y="1.222" width="21.816" height="3.6359999999999997" rx="2"></rect>
<rect x="92.122" y="19.402" width="3.6359999999999997" height="3.6359999999999997" rx="2"></rect>
<rect x="80.00200000000001" y="92.122" width="15.756" height="3.6359999999999997" rx="2"></rect>
<rect x="80.00200000000001" y="19.402" width="3.6359999999999997" height="3.6359999999999997" rx="2"></rect>
<rect x="80.00200000000001" y="49.702" width="3.6359999999999997" height="15.756" rx="2"></rect>
<rect x="80.00200000000001" y="80.00200000000001" width="3.6359999999999997" height="3.6359999999999997" rx="2"></rect>
<rect x="80.00200000000001" y="104.242" width="3.6359999999999997" height="9.696" rx="2"></rect>
<rect x="80.00200000000001" y="152.72199999999998" width="3.6359999999999997" height="9.696" rx="2"></rect>
<rect x="116.362" y="67.882" width="3.6359999999999997" height="3.6359999999999997" rx="2"></rect>
<rect x="116.362" y="92.122" width="3.6359999999999997" height="15.756" rx="2"></rect>
<rect x="104.242" y="128.482" width="3.6359999999999997" height="3.6359999999999997" rx="2"></rect>
<rect x="7.281999999999999" y="49.702" width="39.995999999999995" height="3.6359999999999997" rx="2"></rect>
<rect x="164.84199999999996" y="49.702" width="9.696" height="3.6359999999999997" rx="2"></rect>
<rect x="110.302" y="25.462" width="3.6359999999999997" height="15.756" rx="2"></rect>
<rect x="110.302" y="128.482" width="3.6359999999999997" height="3.6359999999999997" rx="2"></rect>
<rect x="110.302" y="176.96199999999996" width="3.6359999999999997" height="3.6359999999999997" rx="2"></rect>
<rect x="189.08199999999997" y="104.242" width="3.6359999999999997" height="21.816" rx="2"></rect>
<rect x="92.122" y="146.66199999999998" width="9.696" height="3.6359999999999997" rx="2"></rect>
<rect x="104.242" y="13.341999999999999" width="9.696" height="3.6359999999999997" rx="2"></rect>
<rect x="122.422" y="13.341999999999999" width="15.756" height="3.6359999999999997" rx="2"></rect>
<rect x="134.54199999999997" y="7.281999999999999" width="3.6359999999999997" height="3.6359999999999997" rx="2"></rect>
<rect x="134.54199999999997" y="31.522" width="3.6359999999999997" height="9.696" rx="2"></rect>
<rect x="134.54199999999997" y="176.96199999999996" width="3.6359999999999997" height="9.696" rx="2"></rect>
<rect x="146.66199999999998" y="37.582" width="3.6359999999999997" height="15.756" rx="2"></rect>
<rect x="146.66199999999998" y="176.96199999999996" width="3.6359999999999997" height="3.6359999999999997" rx="2"></rect>
<rect x="122.422" y="31.522" width="3.6359999999999997" height="9.696" rx="2"></rect>
<rect x="122.422" y="49.702" width="3.6359999999999997" height="3.6359999999999997" rx="2"></rect>
<rect x="122.422" y="61.821999999999996" width="3.6359999999999997" height="9.696" rx="2"></rect>
<rect x="122.422" y="116.362" width="3.6359999999999997" height="9.696" rx="2"></rect>
<rect x="122.422" y="146.66199999999998" width="3.6359999999999997" height="3.6359999999999997" rx="2"></rect>
<rect x="122.422" y="158.78199999999998" width="3.6359999999999997" height="9.696" rx="2"></rect>
<rect x="195.14199999999997" y="49.702" width="3.6359999999999997" height="9.696" rx="2"></rect>
<rect x="195.14199999999997" y="98.182" width="3.6359999999999997" height="9.696" rx="2"></rect>
<rect x="98.182" y="122.422" width="3.6359999999999997" height="9.696" rx="2"></rect>
<rect x="98.182" y="164.84199999999996" width="3.6359999999999997" height="9.696" rx="2"></rect>
<rect x="7.281999999999999" y="55.762" width="3.6359999999999997" height="15.756" rx="2"></rect>
<rect x="7.281999999999999" y="122.422" width="3.6359999999999997" height="9.696" rx="2"></rect>
</g>
<g shape-rendering="geometricPrecision">
<path d="M 9.09,0.0 h 24.240000000000002 a 9.09,9.09 0 0 1 9.09,9.09 v 24.240000000000002 a 9.09,9.09 0 0 1 -9.09,9.09 h -24.240000000000002 a 9.09,9.09 0 0 1 -9.09,-9.09 v -24.240000000000002 a 9.09,9.09 0 0 1 9.09,-9.09 z M 9.09,6.06 h 24.240000000000002 a 3.03,3.03 0 0 1 3.03,3.03 v 24.240000000000002 a 3.03,3.03 0 0 1 -3.03,3.03 h -24.240000000000002 a 3.03,3.03 0 0 1 -3.03,-3.03 v -24.240000000000002 a 3.03,3.03 0 0 1 3.03,-3.03 z" fill="#ffffff" fill-rule="evenodd"></path>
<path d="M 166.67000000000002,0.0 h 24.240000000000002 a 9.09,9.09 0 0 1 9.09,9.09 v 24.240000000000002 a 9.09,9.09 0 0 1 -9.09,9.09 h -24.240000000000002 a 9.09,9.09 0 0 1 -9.09,-9.09 v -24.240000000000002 a 9.09,9.09 0 0 1 9.09,-9.09 z M 166.67000000000002,6.06 h 24.240000000000002 a 3.03,3.03 0 0 1 3.03,3.03 v 24.240000000000002 a 3.03,3.03 0 0 1 -3.03,3.03 h -24.240000000000002 a 3.03,3.03 0 0 1 -3.03,-3.03 v -24.240000000000002 a 3.03,3.03 0 0 1 3.03,-3.03 z" fill="#ffffff" fill-rule="evenodd"></path>
<path d="M 9.09,157.58 h 24.240000000000002 a 9.09,9.09 0 0 1 9.09,9.09 v 24.240000000000002 a 9.09,9.09 0 0 1 -9.09,9.09 h -24.240000000000002 a 9.09,9.09 0 0 1 -9.09,-9.09 v -24.240000000000002 a 9.09,9.09 0 0 1 9.09,-9.09 z M 9.09,163.64000000000001 h 24.240000000000002 a 3.03,3.03 0 0 1 3.03,3.03 v 24.240000000000002 a 3.03,3.03 0 0 1 -3.03,3.03 h -24.240000000000002 a 3.03,3.03 0 0 1 -3.03,-3.03 v -24.240000000000002 a 3.03,3.03 0 0 1 3.03,-3.03 z" fill="#ffffff" fill-rule="evenodd"></path>
<rect x="12.12" y="12.12" width="18.18" height="18.18" fill="#ffffff" rx="3.03"></rect>
<rect x="169.7" y="12.12" width="18.18" height="18.18" fill="#ffffff" rx="3.03"></rect>
<rect x="12.12" y="169.7" width="18.18" height="18.18" fill="#ffffff" rx="3.03"></rect>
</g>
</g>
</svg>