<?xml version="1.0" encoding="UTF-8"?>
<svg id="Layer_2" data-name="Layer 2" xmlns="http://www.w3.org/2000/svg" xmlns:xlink="http://www.w3.org/1999/xlink" viewBox="0 0 1243.35 674.23">
  <defs>
    <style>
      .tsig-cls-1, .tsig-cls-2, .tsig-cls-3, .tsig-cls-4, .tsig-cls-5 {
        stroke-miterlimit: 10;
      }

      .tsig-cls-1, .tsig-cls-2, .tsig-cls-5 {
        stroke-width: 2px;
      }

      .tsig-cls-1, .tsig-cls-6 {
        fill: #fff;
      }

      .tsig-cls-1, .tsig-cls-5 {
        stroke: #fbd63b;
      }

      .tsig-cls-7 {
        filter: url(#dropshadow2-4);
      }

      .tsig-cls-2, .tsig-cls-3, .tsig-cls-4 {
        stroke: #0042b3;
      }

      .tsig-cls-2, .tsig-cls-3, .tsig-cls-5, .tsig-cls-8 {
        fill: none;
      }

      .tsig-cls-9 {
        fill: #fbd63b;
      }

      .tsig-cls-10 {
        filter: url(#dropshadow2);
      }

      .tsig-cls-11, .tsig-cls-12, .tsig-cls-4 {
        fill: #0042b3;
      }

      .tsig-cls-13 {
        filter: url(#dropshadow);
      }

      .tsig-cls-3 {
        stroke-width: 7px;
      }

      .tsig-cls-14 {
        letter-spacing: 0em;
      }

      .tsig-cls-15 {
        font-size: 28px;
      }

      .tsig-cls-15, .tsig-cls-16 {
        font-family: Montserrat-Regular, Montserrat;
      }

      .tsig-cls-17 {
        letter-spacing: 0em;
      }

      .tsig-cls-18 {
        filter: url(#dropshadow2-2);
      }

      .tsig-cls-12 {
        font-family: Montserrat-Medium, Montserrat;
        font-size: 100.41px;
        font-weight: 500;
      }

      .tsig-cls-4 {
        stroke-width: .75px;
      }

      .tsig-cls-19 {
        filter: url(#dropshadow2-3);
      }

      .tsig-cls-8 {
        stroke: #0042b3;
        stroke-linecap: square;
        stroke-width: 2.3px;
      }

      .tsig-cls-16 {
        font-size: 27px;
      }
    </style>
    <filter id="dropshadow">
      <feGaussianBlur in="SourceAlpha" stdDeviation="5"/>
      <feOffset dx="5" dy="5"/>
      <feComponentTransfer>
        <feFuncA slope="0.5" type="linear"/>
      </feComponentTransfer>
      <feMerge>
        <feMergeNode/>
        <feMergeNode in="SourceGraphic"/>
      </feMerge>
    </filter>
    <filter id="dropshadow2">
      <feGaussianBlur in="SourceAlpha" stdDeviation="2"/>
      <feOffset dx="3" dy="3"/>
      <feComponentTransfer>
        <feFuncA slope="0.5" type="linear"/>
      </feComponentTransfer>
      <feMerge>
        <feMergeNode/>
        <feMergeNode in="SourceGraphic"/>
      </feMerge>
    </filter>
    <filter id="dropshadow2-2" data-name="dropshadow2">
      <feGaussianBlur in="SourceAlpha" stdDeviation="2"/>
      <feOffset dx="3" dy="3"/>
      <feComponentTransfer>
        <feFuncA slope="0.5" type="linear"/>
      </feComponentTransfer>
      <feMerge>
        <feMergeNode/>
        <feMergeNode in="SourceGraphic"/>
      </feMerge>
    </filter>
    <filter id="dropshadow2-3" data-name="dropshadow2">
      <feGaussianBlur in="SourceAlpha" stdDeviation="2"/>
      <feOffset dx="3" dy="3"/>
      <feComponentTransfer>
        <feFuncA slope="0.5" type="linear"/>
      </feComponentTransfer>
      <feMerge>
        <feMergeNode/>
        <feMergeNode in="SourceGraphic"/>
      </feMerge>
    </filter>
    <filter id="dropshadow2-4" data-name="dropshadow2">
      <feGaussianBlur in="SourceAlpha" stdDeviation="2"/>
      <feOffset dx="3" dy="3"/>
      <feComponentTransfer>
        <feFuncA slope="0.5" type="linear"/>
      </feComponentTransfer>
      <feMerge>
        <feMergeNode/>
        <feMergeNode in="SourceGraphic"/>
      </feMerge>
    </filter>
  </defs>
  <g id="t-sig">
    <g id="_1" class="fragment fade" data-name="1">
      <g>
        <g class="tsig-cls-13">
          <ellipse class="tsig-cls-6" cx="98.12" cy="334.17" rx="81.77" ry="79.12"/>
        </g>
        <text class="tsig-cls-15" transform="translate(87.75 384.35) scale(1.03 1)"><tspan x="0" y="0">A</tspan></text>
        <path class="tsig-cls-8" d="M70.33,351.42c0-10.05,13.9-10.05,20.84-16.75,3.47-3.35-6.95-3.35-6.95-20.1,0-11.17,4.63-16.75,13.9-16.75s13.9,5.58,13.9,16.75c0,16.75-10.42,16.75-6.95,20.1,6.95,6.7,20.84,6.7,20.84,16.75"/>
      </g>
      <g class="tsig-cls-10">
        <path class="tsig-cls-6" d="M286.06,338.64c0-20.1,16.62-36.39,37.13-36.39s37.13,16.29,37.13,36.39-16.62,36.39-37.13,36.39-37.13-16.29-37.13-36.39"/>
        <path class="tsig-cls-5" d="M286.06,338.64c0-20.1,16.62-36.39,37.13-36.39s37.13,16.29,37.13,36.39-16.62,36.39-37.13,36.39-37.13-16.29-37.13-36.39"/>
      </g>
      <path class="tsig-cls-9" d="M334.6,340.76l4,3.95,4-3.95,4,3.95,4.93-6.07-4.93-6.07h-24.95c-2.22-4.01-6.47-6.68-11.4-6.68-7.15,0-12.94,5.71-12.94,12.75s5.79,12.75,12.94,12.75c4.93,0,9.18-2.67,11.4-6.68h4l2.46-2.43,2.46,2.43,4-3.95h0ZM304.72,342.28c-2.03,0-3.7-1.64-3.7-3.64s1.66-3.64,3.7-3.64,3.7,1.64,3.7,3.64-1.66,3.64-3.7,3.64h0Z"/>
      <text class="tsig-cls-16" transform="translate(502.48 328.01)"><tspan x="0" y="0">Public</tspan><tspan class="tsig-cls-17" x="-18.32" y="32.4">m</tspan><tspan x="10.38" y="32.4">ess</tspan><tspan class="tsig-cls-17" x="53.09" y="32.4">a</tspan><tspan class="tsig-cls-14" x="69.08" y="32.4">ge</tspan></text>
      <text class="tsig-cls-12" transform="translate(396.88 373.41) scale(1.05 1)"><tspan x="0" y="0">+</tspan></text>
    </g>
    <g id="_2"  class="fragment fade" data-name="2">
      <g id="sig">
        <g>
          <g>
            <g class="tsig-cls-18">
              <rect class="tsig-cls-6" x="905.78" y="20.62" width="252.74" height="136.4" rx="14.96" ry="14.96"/>
              <rect class="tsig-cls-2" x="905.78" y="20.62" width="252.74" height="136.4" rx="14.96" ry="14.96"/>
            </g>
            <path class="tsig-cls-4" d="M1024.15,157.18h-94.24c-24.13-.16-24.13-10.72-24.13-23.95V44.73c0-18.61,3.38-24.11,24.13-23.95h94.24"/>
          </g>
          <g>
            <ellipse class="tsig-cls-1" cx="967.73" cy="110.01" rx="37.13" ry="36.39"/>
            <path class="tsig-cls-9" d="M979.13,112.14l4,3.95,4-3.95,4,3.95,4.93-6.07-4.93-6.07h-24.95c-2.22-4.01-6.47-6.68-11.4-6.68-7.15,0-12.94,5.71-12.94,12.75s5.79,12.75,12.94,12.75c4.93,0,9.18-2.67,11.4-6.68h4l2.46-2.43,2.46,2.43,4-3.95h0ZM949.25,113.66c-2.03,0-3.7-1.64-3.7-3.64s1.66-3.64,3.7-3.64,3.7,1.64,3.7,3.64-1.66,3.64-3.7,3.64h0Z"/>
          </g>
          <g>
            <path class="tsig-cls-6" d="M948.12,55.89c-1.84-.54-3.32-1.24-4.44-2.1l1.96-4.38c1.07.79,2.34,1.42,3.82,1.9,1.47.48,2.95.72,4.42.72,1.64,0,2.85-.24,3.64-.74.79-.49,1.18-1.14,1.18-1.96,0-.6-.23-1.1-.7-1.49-.46-.4-1.06-.71-1.78-.95s-1.71-.5-2.94-.79c-1.9-.46-3.46-.91-4.67-1.36-1.21-.46-2.25-1.19-3.12-2.19s-1.3-2.35-1.3-4.03c0-1.46.39-2.78,1.18-3.97s1.97-2.13,3.55-2.82c1.58-.7,3.51-1.04,5.8-1.04,1.59,0,3.15.19,4.67.58s2.85.93,3.99,1.65l-1.78,4.42c-2.31-1.32-4.61-1.98-6.92-1.98-1.62,0-2.81.26-3.58.79-.77.53-1.16,1.22-1.16,2.09s.45,1.5,1.34,1.92c.89.42,2.25.83,4.08,1.24,1.9.46,3.46.91,4.67,1.36,1.21.46,2.25,1.17,3.12,2.16.87.98,1.3,2.31,1.3,3.99,0,1.44-.4,2.75-1.19,3.93-.8,1.18-1.99,2.13-3.58,2.82s-3.53,1.04-5.81,1.04c-1.97,0-3.88-.27-5.72-.81Z"/>
            <path class="tsig-cls-6" d="M968.29,33.34c-.64-.6-.96-1.34-.96-2.23s.32-1.63.96-2.23,1.47-.9,2.5-.9,1.85.29,2.5.86c.64.58.96,1.29.96,2.16,0,.93-.32,1.71-.96,2.32s-1.47.92-2.5.92-1.85-.3-2.5-.9ZM968,36.93h5.56v19.33h-5.56v-19.33Z"/>
            <path class="tsig-cls-6" d="M998.53,36.93v16.1c0,3.55-.92,6.18-2.75,7.91-1.83,1.72-4.51,2.59-8.02,2.59-1.85,0-3.61-.23-5.28-.68-1.66-.46-3.04-1.11-4.14-1.98l2.21-4.02c.81.67,1.83,1.2,3.07,1.6s2.47.59,3.71.59c1.93,0,3.35-.44,4.26-1.31.92-.88,1.37-2.2,1.37-3.97v-.83c-1.45,1.6-3.47,2.41-6.06,2.41-1.76,0-3.37-.39-4.83-1.17s-2.62-1.87-3.48-3.29c-.86-1.41-1.28-3.04-1.28-4.89s.43-3.47,1.28-4.89c.86-1.41,2.02-2.51,3.48-3.29s3.07-1.17,4.83-1.17c2.78,0,4.9.92,6.35,2.77v-2.48h5.28ZM991.63,49.42c.94-.87,1.41-2.02,1.41-3.43s-.47-2.56-1.41-3.43c-.94-.87-2.15-1.31-3.62-1.31s-2.69.44-3.64,1.31-1.43,2.02-1.43,3.43.48,2.56,1.43,3.43c.95.88,2.16,1.31,3.64,1.31s2.68-.44,3.62-1.31Z"/>
          </g>
        </g>
        <text class="tsig-cls-16" transform="translate(1046.6298 79.4601)"><tspan x="0" y="0">Public</tspan><tspan class="tsig-cls-17" x="-18.32" y="32.4">m</tspan><tspan x="10.38" y="32.4">ess</tspan><tspan class="tsig-cls-17" x="53.09" y="32.4">a</tspan><tspan class="tsig-cls-14" x="69.08" y="32.4">ge</tspan></text>
      </g>
      <g id="sig-2" data-name="sig">
        <g>
          <g>
            <g class="tsig-cls-19">
              <rect class="tsig-cls-6" x="905.18" y="197.77" width="252.74" height="136.4" rx="14.96" ry="14.96"/>
              <rect class="tsig-cls-2" x="905.18" y="197.77" width="252.74" height="136.4" rx="14.96" ry="14.96"/>
            </g>
            <path class="tsig-cls-4" d="M1023.55,334.33h-94.24c-24.13-.16-24.13-10.72-24.13-23.95v-88.5c0-18.61,3.38-24.11,24.13-23.95h94.24"/>
          </g>
          <g>
            <ellipse class="tsig-cls-1" cx="967.12" cy="287.17" rx="37.13" ry="36.39"/>
            <path class="tsig-cls-9" d="M978.53,289.29l4,3.95,4-3.95,4,3.95,4.93-6.07-4.93-6.07h-24.95c-2.22-4.01-6.47-6.68-11.4-6.68-7.15,0-12.94,5.71-12.94,12.75s5.79,12.75,12.94,12.75c4.93,0,9.18-2.67,11.4-6.68h4l2.46-2.43,2.46,2.43,4-3.95h0ZM948.65,290.81c-2.03,0-3.7-1.64-3.7-3.64s1.66-3.64,3.7-3.64,3.7,1.64,3.7,3.64-1.66,3.64-3.7,3.64h0Z"/>
          </g>
          <g>
            <path class="tsig-cls-6" d="M947.51,233.04c-1.84-.54-3.32-1.24-4.44-2.1l1.96-4.38c1.07.79,2.34,1.42,3.82,1.9,1.47.48,2.95.72,4.42.72,1.64,0,2.85-.24,3.64-.74.79-.49,1.18-1.14,1.18-1.96,0-.6-.23-1.1-.7-1.49-.46-.4-1.06-.71-1.78-.95s-1.71-.5-2.94-.79c-1.9-.46-3.46-.91-4.67-1.36-1.21-.46-2.25-1.19-3.12-2.19s-1.3-2.35-1.3-4.03c0-1.46.39-2.78,1.18-3.97s1.97-2.13,3.55-2.82c1.58-.7,3.51-1.04,5.8-1.04,1.59,0,3.15.19,4.67.58s2.85.93,3.99,1.65l-1.78,4.42c-2.31-1.32-4.61-1.98-6.92-1.98-1.62,0-2.81.26-3.58.79-.77.53-1.16,1.22-1.16,2.09s.45,1.5,1.34,1.92c.89.42,2.25.83,4.08,1.24,1.9.46,3.46.91,4.67,1.36,1.21.46,2.25,1.17,3.12,2.16.87.98,1.3,2.31,1.3,3.99,0,1.44-.4,2.75-1.19,3.93-.8,1.18-1.99,2.13-3.58,2.82s-3.53,1.04-5.81,1.04c-1.97,0-3.88-.27-5.72-.81Z"/>
            <path class="tsig-cls-6" d="M967.68,210.49c-.64-.6-.96-1.34-.96-2.23s.32-1.63.96-2.23,1.47-.9,2.5-.9,1.85.29,2.5.86c.64.58.96,1.29.96,2.16,0,.93-.32,1.71-.96,2.32s-1.47.92-2.5.92-1.85-.3-2.5-.9ZM967.4,214.08h5.56v19.33h-5.56v-19.33Z"/>
            <path class="tsig-cls-6" d="M997.93,214.08v16.1c0,3.55-.92,6.18-2.75,7.91-1.83,1.72-4.51,2.59-8.02,2.59-1.85,0-3.61-.23-5.28-.68-1.66-.46-3.04-1.11-4.14-1.98l2.21-4.02c.81.67,1.83,1.2,3.07,1.6s2.47.59,3.71.59c1.93,0,3.35-.44,4.26-1.31.92-.88,1.37-2.2,1.37-3.97v-.83c-1.45,1.6-3.47,2.41-6.06,2.41-1.76,0-3.37-.39-4.83-1.17s-2.62-1.87-3.48-3.29c-.86-1.41-1.28-3.04-1.28-4.89s.43-3.47,1.28-4.89c.86-1.41,2.02-2.51,3.48-3.29s3.07-1.17,4.83-1.17c2.78,0,4.9.92,6.35,2.77v-2.48h5.28ZM991.03,226.57c.94-.87,1.41-2.02,1.41-3.43s-.47-2.56-1.41-3.43c-.94-.87-2.15-1.31-3.62-1.31s-2.69.44-3.64,1.31-1.43,2.02-1.43,3.43.48,2.56,1.43,3.43c.95.88,2.16,1.31,3.64,1.31s2.68-.44,3.62-1.31Z"/>
          </g>
        </g>
        <text class="tsig-cls-16" transform="translate(1046.0266 256.6132)"><tspan x="0" y="0">Public</tspan><tspan class="tsig-cls-17" x="-18.32" y="32.4">m</tspan><tspan x="10.38" y="32.4">ess</tspan><tspan class="tsig-cls-17" x="53.09" y="32.4">a</tspan><tspan class="tsig-cls-14" x="69.08" y="32.4">ge</tspan></text>
      </g>
      <g id="sig-3" data-name="sig">
        <g>
          <g>
            <g class="tsig-cls-7">
              <rect class="tsig-cls-6" x="909.58" y="505.92" width="252.74" height="136.4" rx="14.96" ry="14.96"/>
              <rect class="tsig-cls-2" x="909.58" y="505.92" width="252.74" height="136.4" rx="14.96" ry="14.96"/>
            </g>
            <path class="tsig-cls-4" d="M1027.95,642.48h-94.24c-24.13-.16-24.13-10.72-24.13-23.95v-88.5c0-18.61,3.38-24.11,24.13-23.95h94.24"/>
          </g>
          <g>
            <ellipse class="tsig-cls-1" cx="971.52" cy="595.32" rx="37.13" ry="36.39"/>
            <path class="tsig-cls-9" d="M982.93,597.44l4,3.95,4-3.95,4,3.95,4.93-6.07-4.93-6.07h-24.95c-2.22-4.01-6.47-6.68-11.4-6.68-7.15,0-12.94,5.71-12.94,12.75s5.79,12.75,12.94,12.75c4.93,0,9.18-2.67,11.4-6.68h4l2.46-2.43,2.46,2.43,4-3.95h0ZM953.05,598.96c-2.03,0-3.7-1.64-3.7-3.64s1.66-3.64,3.7-3.64,3.7,1.64,3.7,3.64-1.66,3.64-3.7,3.64h0Z"/>
          </g>
          <g>
            <path class="tsig-cls-6" d="M951.91,541.19c-1.84-.54-3.32-1.24-4.44-2.1l1.96-4.38c1.07.79,2.34,1.42,3.82,1.9,1.47.48,2.95.72,4.42.72,1.64,0,2.85-.24,3.64-.74.79-.49,1.18-1.14,1.18-1.96,0-.6-.23-1.1-.7-1.49-.46-.4-1.06-.71-1.78-.95s-1.71-.5-2.94-.79c-1.9-.46-3.46-.91-4.67-1.36-1.21-.46-2.25-1.19-3.12-2.19s-1.3-2.35-1.3-4.03c0-1.46.39-2.78,1.18-3.97s1.97-2.13,3.55-2.82c1.58-.7,3.51-1.04,5.8-1.04,1.59,0,3.15.19,4.67.58s2.85.93,3.99,1.65l-1.78,4.42c-2.31-1.32-4.61-1.98-6.92-1.98-1.62,0-2.81.26-3.58.79-.77.53-1.16,1.22-1.16,2.09s.45,1.5,1.34,1.92c.89.42,2.25.83,4.08,1.24,1.9.46,3.46.91,4.67,1.36,1.21.46,2.25,1.17,3.12,2.16.87.98,1.3,2.31,1.3,3.99,0,1.44-.4,2.75-1.19,3.93-.8,1.18-1.99,2.13-3.58,2.82s-3.53,1.04-5.81,1.04c-1.97,0-3.88-.27-5.72-.81Z"/>
            <path class="tsig-cls-6" d="M972.08,518.64c-.64-.6-.96-1.34-.96-2.23s.32-1.63.96-2.23,1.47-.9,2.5-.9,1.85.29,2.5.86c.64.58.96,1.29.96,2.16,0,.93-.32,1.71-.96,2.32s-1.47.92-2.5.92-1.85-.3-2.5-.9ZM971.8,522.23h5.56v19.33h-5.56v-19.33Z"/>
            <path class="tsig-cls-6" d="M1002.32,522.23v16.1c0,3.55-.92,6.18-2.75,7.91-1.83,1.72-4.51,2.59-8.02,2.59-1.85,0-3.61-.23-5.28-.68-1.66-.46-3.04-1.11-4.14-1.98l2.21-4.02c.81.67,1.83,1.2,3.07,1.6s2.47.59,3.71.59c1.93,0,3.35-.44,4.26-1.31.92-.88,1.37-2.2,1.37-3.97v-.83c-1.45,1.6-3.47,2.41-6.06,2.41-1.76,0-3.37-.39-4.83-1.17s-2.62-1.87-3.48-3.29c-.86-1.41-1.28-3.04-1.28-4.89s.43-3.47,1.28-4.89c.86-1.41,2.02-2.51,3.48-3.29s3.07-1.17,4.83-1.17c2.78,0,4.9.92,6.35,2.77v-2.48h5.28ZM995.42,534.72c.94-.87,1.41-2.02,1.41-3.43s-.47-2.56-1.41-3.43c-.94-.87-2.15-1.31-3.62-1.31s-2.69.44-3.64,1.31-1.43,2.02-1.43,3.43.48,2.56,1.43,3.43c.95.88,2.16,1.31,3.64,1.31s2.68-.44,3.62-1.31Z"/>
          </g>
        </g>
        <text class="tsig-cls-16" transform="translate(1050.425 564.7641)"><tspan x="0" y="0">Public</tspan><tspan class="tsig-cls-17" x="-18.32" y="32.4">m</tspan><tspan x="10.38" y="32.4">ess</tspan><tspan class="tsig-cls-17" x="53.09" y="32.4">a</tspan><tspan class="tsig-cls-14" x="69.08" y="32.4">ge</tspan></text>
      </g>
      <text class="tsig-cls-12" transform="translate(1049.104 457.7028) rotate(-90) scale(1.0471 1)"><tspan x="0" y="0">...</tspan></text>
      <path class="tsig-cls-11" d="M1218.23,70.81v-3.64c3.59-.33,6.09-.89,7.51-1.67,1.42-.78,2.48-2.63,3.17-5.55h3.92v37.6h-5.3v-26.74h-9.3Z"/>
      <path class="tsig-cls-11" d="M1218.12,280.52c1.22-2.41,3.61-4.6,7.17-6.57l5.3-2.93c2.37-1.32,4.04-2.44,5-3.38,1.51-1.46,2.26-3.13,2.26-5.01,0-2.2-.69-3.94-2.07-5.23-1.38-1.29-3.22-1.94-5.52-1.94-3.41,0-5.76,1.23-7.07,3.69-.7,1.32-1.09,3.15-1.16,5.48h-5.05c.05-3.29.69-5.97,1.91-8.04,2.15-3.66,5.95-5.48,11.4-5.48,4.53,0,7.84,1.17,9.92,3.51s3.13,4.94,3.13,7.8c0,3.02-1.11,5.61-3.34,7.75-1.29,1.25-3.6,2.76-6.93,4.54l-3.78,2c-1.8.95-3.22,1.85-4.25,2.72-1.84,1.53-3,3.23-3.48,5.09h21.59v4.48h-27.14c.18-3.25.89-6.08,2.11-8.49Z"/>
      <path class="tsig-cls-11" d="M1229.55,557.19h5.02v7.88h4.72v3.88h-4.72v18.43c0,.98.35,1.64,1.05,1.98.39.19,1.03.29,1.93.29.24,0,.5,0,.77-.01s.6-.03.97-.07v3.74c-.57.16-1.16.27-1.78.34-.62.07-1.28.11-2,.11-2.32,0-3.89-.57-4.72-1.7-.83-1.13-1.24-2.61-1.24-4.42v-18.69h-4v-3.88h4v-7.88Z"/>
      <text class="tsig-cls-12" transform="translate(672.84 373.41) scale(1.05 1)"><tspan x="0" y="0">=</tspan></text>
      <g>
        <path class="tsig-cls-3" d="M847.09,3.49s-87.08,7.52-32.94,245.01c19.81,86.89-12.78,88.07-12.78,88.07"/>
        <path class="tsig-cls-3" d="M851.03,670.74s-87.08-7.52-32.94-245.01c19.14-83.95-14.78-88.15-12.78-88.07"/>
      </g>
    </g>
  </g>
</svg>